/* XPM */
static char *a25bddb5620041cf9869679053298c81VxoY5yZZgNXjlf6Y[] = {
/* columns rows colors chars-per-pixel */
"64 64 66 1 ",
"  c #040303",
". c #090907",
"X c #060608",
"o c #080708",
"O c #0C0B0B",
"+ c #160000",
"@ c #100F0D",
"# c #161800",
"$ c #13120D",
"% c #19160E",
"& c #000014",
"* c #0F0F10",
"= c #00001D",
"- c #150015",
"; c #100F10",
": c #001417",
"> c #141414",
", c #191714",
"< c #1B1A15",
"1 c #161718",
"2 c #171819",
"3 c #1B1B1B",
"4 c #211E16",
"5 c #201F1B",
"6 c #1C201C",
"7 c #272317",
"8 c #24221E",
"9 c #29261E",
"0 c #2C291F",
"q c #322E1E",
"w c #1E1F20",
"e c #1F2021",
"r c #242424",
"t c #292722",
"y c #272826",
"u c #2C2A24",
"i c #252628",
"p c #272829",
"a c #2B2B29",
"s c #312E24",
"d c #312E28",
"f c #353226",
"g c #393526",
"h c #3D3927",
"j c #353329",
"k c #393628",
"l c #3D3928",
"z c #2D2F31",
"x c #2E3032",
"c c #353533",
"v c #3C3A32",
"b c #4A2821",
"n c #413B27",
"m c #423D29",
"M c #254225",
"N c #534B00",
"B c #46402A",
"V c #49432C",
"C c #494C2A",
"Z c #241E4C",
"A c #234E4A",
"S c #EA7252",
"D c #64D162",
"F c #E9F077",
"G c #6043F1",
"H c #5DF8EA",
/* pixels */
"r3$X XO3uu9sffst9ussfgnng5snfsnsfnqnnu4nggfffs99usss8oO O>t86r9r",
"r8,>@$,9uu888889tu0sssu49ssggnn0snnnsqsu70sss0s985885,@@$6r86r8r",
"8r8O.X2ufu8usffghmgfmmnsmmmmVmnsgVmmmmnmsfmmgghggsssu<.O$rt85rrr",
"rrr236tuu00gglgghnhgnmsgmmnnnmnssmmmmnmmgfmnfghhkgkgfst9rtt93iur",
"8r33uuusstsffglghhksmnghmmnnnBmqgmnnnnmmnfnmfflfggffffsuutur3trr",
"3,26rr8t09sfggggkhsgnmgnmmBVBBmsfmnnnnmmlgnhfflglgffffs98886<3<<",
"ririryyus6ffkkglhhsgmmhnmbVnfqhqfbnnmmmmngnlg0hlgfkfff0,uairriir",
"irieryysf6fjkgllhhqgmmnnmmmmBnmfgmmmmmmmnlBBf0ggllkjffu%uuiierri",
"ipieyyuas8fffgfglluqnmmmnnnmmVmghmmVmmmmmmmmg9hhgsgggjf$uarrriie",
"eeiyeyysu7ggggglll0fnmmmmmmnmmmqgnhnmnmmmmhhs9hhgllgggf%tayreiii",
"eeeeeyrtu800qggghl00hnnmmmnhnnnfgnhhhnnmmnhgu9khlMBfuu96tyr6eee2",
"22*eeyyusjufhmg%nhf00u00sgq9000090u00ss0t90suslhmml6fgsuuytyiye*",
"iieeyyuadgsglBn%BnnBmnngs0gmmmnghnBBnh9sgnmmmmmlggg<gjsuupiryii2",
"eieepyuadssglBn%lhnBmmhnhgVmVVVVVmmVmmqhmnmmnnllngg4ffuuuyyreii2",
"iieepyuadjsgmmn$hhnnmmmmgsVmmmmVmmmBnh9gmmmmmmhlhgg4ggfuappiiei2",
"222iryuusfqgnmm@glmnmmmmg7nmmVVVmmVmmn9nmmnmmhhhggg478336rieeeew",
"12errtyuuussqq7%ghnnhmmmn5nmmVmnnVmnmgunmngnngnnhgk7,<@7uu8rrrep",
"21rpaadsjjgllB$0hhmhhBmmm9nmnnmgnVhnmssmnmmmnngngkhkgg04durrreri",
"1@ryyuadfjkllB%470sqffggq9qnnhnsgnghnsussfssss559sssuu8$aateieri",
"2>epyaudfjjfBB$8ghfgnnq0nmnmnnnskmnnnnmm0snngsnfqu95870,>>$3iiei",
"y>eyyuydjjjfmm@qmmhgnVggVmmmmmmqfVmVmmVVnfnmggnmhhkgfsff09 1iiri",
"e2epuatdkjlsnm fmnhgnmfgmmmmnmmusmmnmnVmnsmnggmmkkggkgfffs@*ieie",
"y26ayd9dfkg.%4%qlhgqmmgnmmmmmmmqsmmVmmnnnfnnffnhhkggfffsuf<Oiiii",
"y26yya6dfgs fhMkllsgmngnmmmnnnnugnnnnmhnmhnmgulkkkkdgfsjvu6Xieie",
"e2eerr9afk6%lkllllsgBlhmmnmnnfnssgggnmmmmklmjuhhklkfff8tu99Oeirr",
"yyyypursdlO0kkfkgl0flBMmnnmmmnnshmBmmmmmmlmlgtkkkffffg8fuur$3rrr",
"ieiyyarfff.fkksglg0fllnBmmmnnnnsgnnnmmhmmmmhs9hhkukkfj9uaur,wiii",
"riiruy9ujfOfkgkglg0qglBnmmnnnnnsfnnnlllmmmmns7kgggkjff8udur6X1>>",
"iiipyarsjq$ggkjfggt90usfggn9usft0fsssgggsss08tkkgkkfjf8uautr2<<3",
"ww3rrr8tu9<gkfkkjlgfffut59uugsutsuffsu879ssffgggjfgjsj83tr55rwre",
"233,,><4660fffkklffhlmllgungnnnglllllluglllhkgggfffjsjt,<>>,,>>>",
"uuuuu8ssffqfjgkkjgfghhlln9gnnfgnmggglf9hkhkggggjjjjjfffsu8tuaurr",
"ruttt5ususjsjkgkkkkkgfjhh0fgkklkllggkquBhkfjkkfffjfjfsuuu88uyyur",
"rrtut5uujdsjssfkkkkhkgkkhuulklggkkllkuslkkkgjgffffffdssau8ryaarr",
"rtrur5uavjsfsfsjsfkskkgkhs0kglkkkglgk8fggfgffjffufjudsuuu88uturr",
"rtttr5ujaddujfffskggdgkggf9gjglgffflf9gfggfggfgjffjjsdaut5rurr8r",
"rrrtt5ruattuussut9usssfsff9fkkgglgggs9jfffssst98tusutttu03rrrtr<",
"trr5555555555888usuusuu99t8skkkkffgf98999tu0u0st985855533383rrrO",
"rrt55rttuuusssssfgfgkkgsuusfgkkjffggffuuffgjgfjsfsuuttuttr38uir;",
"rrte5taadsussdsjsssffssfusgfkffgjkffff0fkjsffsfuudjuuuuttt<8irrO",
"er8e3ttaauuudsssdfssjkdgu9fffffffjffff8sfjsffsssddduccrutt<rrrrO",
"e55e3ttuuaududdsssfsfssss8ffffffffffff8sfssfjsddusauuduptr<65wwO",
"rrrr3tttttuuusssdssdjssku8sffffffjfffu8ujjjuusssdaaurtattr3rrri>",
"epp83rttttttuaaaddsssssss7ufsufufftfft9fsdjausassuuuuaattr39rri>",
"wri53rttttrusauutususssss5tf0usttftuf99uasssuutttuuauruttr<errr1",
"wre38i8rtr5555555559tr989ttusss9tfftt9998rrtt88855555588rr335rr3",
"3r8errrttt55rrtussu9ssu9sdfssfjrtfffffuu9tsst9uaurr5558rrrrrrrpe",
"3eer8ripur5tuuuausu9ssr9vjudvss8tfjffufsttsatusauuuaurrrrrriarrr",
"wrereipprr8aauuttduussrssssudss8rdssdusdurustraddtttttrr8rwrrrri",
"irriiiiwrw8zxttttu5rsutusasddss89dauususdtudt8aattttrtrr8rrrrrii",
"irrriirwrrrrtppurawtuuuuuudtttu89uttusuauruut5ttttrtr8rriirieiei",
"iirreiiw5rrrattttu5tauututauutt8ruuauaayuddat5tttptrrr5riririeii",
"wiwiweewwrrtrr8trt5tatttpuauauur9auuyuutudptr5rtirtrrrr5eeiiieii",
"wwww11*ww8err8<rtt38tatatuutttu88utuutcutttt55rtr3r8e8rw1>-11www",
"iiiwiipppprrrtrrtr358trttutttrt8ruttttutyttr53rrrrrrrrapppiwiiie",
"wiiwwieippppierrr8533555e8e5e535335358er553333r8e5tpppppiie1iiie",
"rei21iiipippiiwirrriir5533w8rrw8r8rrr3<<wee8rewrreriiiiieie>rire",
"iii*1iipppipiwrrrirerwrie5ttttttrttttr3rpptririreeiiriipiiwXeiii",
"eewXOrrripiewrwwiwwrwwwr83trrrtrtrtrripppipprpirreriiiiieiw wwwe",
"22>1->wwwwwwwwwwwww5wrrrreertrririiippyppppppiweeeeeeeeriwX*11ww",
"w3ww533333wwww153331wwwwewrwwweippppiiirrreweweeeeww3w3w3<<rw63w",
"2222111313311111>33333w3wwwwwwwwrrww3ew333w333w3332213<2331&+-:#",
"33<2333131335115133113333w13322wwww333<323322<2232<2<22<315CAMbZ",
"232333131313113131331333113132222132<23231332222323223333=NFHDSG"
};
