/* XPM */
static char *c121904d49fb4272e5c5666014a2c417VjHBqslzOIGPbMMZ[] = {
/* columns rows colors chars-per-pixel */
"64 64 223 2 ",
"   c #000000",
".  c #0A0503",
"X  c #03040B",
"o  c #070808",
"O  c #0B0B0D",
"+  c #120A04",
"@  c #051607",
"#  c #15120E",
"$  c #191509",
"%  c #020C14",
"&  c #0E0E12",
"*  c #0E1114",
"=  c #0B1C17",
"-  c #0E1419",
";  c #111215",
":  c #191612",
">  c #141913",
",  c #1C1915",
"<  c #14161A",
"1  c #16191E",
"2  c #1E1D1B",
"3  c #221F16",
"4  c #201E1B",
"5  c #10221A",
"6  c #262602",
"7  c #272317",
"8  c #22211E",
"9  c #0A1026",
"0  c #151A21",
"q  c #1A1D22",
"w  c #231B20",
"e  c #1C2125",
"r  c #1A2626",
"t  c #1E2429",
"y  c #1F2B36",
"u  c #262522",
"i  c #282723",
"p  c #232824",
"a  c #2A2925",
"s  c #22262B",
"d  c #242B2C",
"f  c #2C2C2A",
"g  c #312D27",
"h  c #322E2A",
"j  c #2D312D",
"k  c #32322C",
"l  c #252B32",
"z  c #2A2E33",
"x  c #252F3A",
"c  c #2C3235",
"v  c #2A343A",
"b  c #2C343B",
"n  c #323534",
"m  c #363936",
"M  c #32363A",
"N  c #35393B",
"B  c #393C3D",
"V  c #4E3027",
"C  c #364435",
"Z  c #555123",
"A  c #2E294F",
"S  c #2D3944",
"D  c #333C44",
"F  c #3B3E41",
"G  c #333E4A",
"H  c #3C4244",
"J  c #35414C",
"K  c #3A4449",
"L  c #3B444C",
"P  c #30544E",
"I  c #354350",
"U  c #3C4651",
"Y  c #3E4954",
"T  c #3D4B59",
"R  c #414446",
"E  c #4E4A46",
"W  c #41464A",
"Q  c #444A4D",
"!  c #4A4C4D",
"~  c #56514B",
"^  c #434C55",
"/  c #4A4E53",
"(  c #444E5A",
")  c #4A4F5A",
"_  c #4C5254",
"`  c #46515C",
"'  c #4B5459",
"]  c #4C545C",
"[  c #525556",
"{  c #5C5853",
"}  c #52565A",
"|  c #555A5D",
" . c #5A5C5D",
".. c #61574D",
"X. c #645C56",
"o. c #69625C",
"O. c #455463",
"+. c #4B5661",
"@. c #4E5964",
"#. c #465869",
"$. c #4C5C6B",
"%. c #525862",
"&. c #545C63",
"*. c #5A5E62",
"=. c #525E6B",
"-. c #576166",
";. c #5D6265",
":. c #55616D",
">. c #5C646A",
",. c #5F696C",
"<. c #4F6173",
"1. c #546373",
"2. c #5A6672",
"3. c #5D6A75",
"4. c #55687A",
"5. c #5C6B7B",
"6. c #626566",
"7. c #6B6461",
"8. c #626669",
"9. c #646A6C",
"0. c #6A6B6D",
"q. c #726962",
"w. c #656D72",
"e. c #6A6E71",
"r. c #626E7B",
"t. c #667073",
"y. c #6C7275",
"u. c #64717D",
"i. c #6C737A",
"p. c #727476",
"a. c #797976",
"s. c #73767A",
"d. c #757A7D",
"f. c #7B7C7D",
"g. c #817C7A",
"h. c #EA7253",
"j. c #65D162",
"k. c #82827D",
"l. c #E9F078",
"z. c #5B6E82",
"x. c #5D7183",
"c. c #637384",
"v. c #6A7683",
"b. c #637689",
"n. c #687789",
"m. c #697889",
"M. c #6B7B8B",
"N. c #737D83",
"B. c #7A7D82",
"V. c #707D8B",
"C. c #657C93",
"Z. c #6B7E92",
"A. c #6043F1",
"S. c #7C8285",
"D. c #78828B",
"F. c #6E8195",
"G. c #6E8399",
"H. c #728394",
"J. c #788697",
"K. c #73869A",
"L. c #75899E",
"P. c #7C8C9D",
"I. c #758AA1",
"U. c #7C8EA2",
"Y. c #7D91A5",
"T. c #7E93A9",
"R. c #5DF8EB",
"E. c #838484",
"W. c #8B8985",
"Q. c #83858A",
"!. c #84898C",
"~. c #8B8B8C",
"^. c #928F8A",
"/. c #93928D",
"(. c #9B988B",
"). c #8B8F94",
"_. c #8C9196",
"`. c #929393",
"'. c #9C9A94",
"]. c #959698",
"[. c #9B9B9A",
"{. c #A09E98",
"}. c #A4A29B",
"|. c #A9A59A",
" X c #8393A5",
".X c #8395A9",
"XX c #8897A9",
"oX c #8599AE",
"OX c #8B9CAE",
"+X c #969DA7",
"@X c #859AB1",
"#X c #8A9EB4",
"$X c #A09FA0",
"%X c #9EA1A4",
"&X c #8DA0B5",
"*X c #8DA3BA",
"=X c #92A3B5",
"-X c #94A6BA",
";X c #94A9BE",
":X c #A5A5A3",
">X c #ADAAA4",
",X c #A6A8AA",
"<X c #B2ADA4",
"1X c #B1AEA9",
"2X c #B4B2AC",
"3X c #A5ADB9",
"4X c #B5B4B2",
"5X c #BCBBB8",
"6X c #C1BBAE",
"7X c #C2BEB3",
"8X c #C8C4BB",
"9X c #96ABC2",
"0X c #9AAEC3",
"qX c #9CB0C6",
"wX c #9DB2CA",
"eX c #A3B5C9",
"rX c #A5BBD2",
"tX c #A9BDD4",
"yX c #ADC2DA",
"uX c #B6C6DA",
"iX c #B8CCE2",
"pX c #D9D1C4",
"aX c #C5D7EA",
/* pixels */
"i i i i i i i p 7 a 7 i i i i p g g 4 : n e.`.2X6X7X7X6X<X1X>Xp.W.|.(.^.^.E.>X7X6X6X<XQ.0.i + u a a i a i i i i i i a i u i u u ",
"i a i i i a i i a a i i a a i a 4 : F e.X.e.{.2X6X7X7X7X4X>X:Xp.^.6X|.|.^.^.7X7X6X6X<X].p.*.e.h : a i a i i i a i i a i i i i u ",
"i i i i 8 i i i i i i i a a a i B 7.).4XQ.R W.|.1X<X6X7X8X,X:Xp.^.7X7X^.*.2X7X6X<X<X|.g.F ].2XW.;.f u g g i i i a i i u i i i a ",
"i i i i i i i i a f a f 2 3 3 m s.^./.2X,X/ 0.{.<X1X].>X1X$X:X0.(.pX'.L g.6X:X{.2X>X{.| 6.2X,X^.W.e.f   # u a u a a i i i a h i ",
"8 i i i i i i i a a h $ m e.B.[ B./.].$X$Xe.! f.~.,X_.p.Q.!.$Xs./.].%.) B.~.s.%X+XE.s./ d.+X{.].^.a.*.Q.8.u 3 a a i a i i a a a ",
"8 i i 8 i a a p a 3 + ) S.:X5Xs.7.{.,X].+XB./ 6.p.B.`.e.i.i.s.p.8.s.*.^ e.s.e.].B.p.*.[ E.+X].,X`.[ ).7X+XB.R . 4 f f i i u 8 i ",
"i a i i i 8 i p + R B.).[.4X4X~./ ~.$Xv.B.B.%./ 0.e.i.0.*.*.*.*.*.0.) ( *.8.e.e.w.6.^ 8.B.B.B.:XQ.! ].4X1X[.~.p.M + u u u u i i ",
"i i i i i f 7 a *.S.{.>X>X>X>X$X8.e.s.*.6.0.>.! *.0.0.6.*.] ) %.[ 6.) ^ %.*.8.e.0. ./ 8.w.*.*.B.e.0.{.<X<X>X>X[.B. .i 4 a a i i ",
"i i i a a . F w.^.'.'.{.^.'.'.}.s.! *.*.*.%.&.) } 8.0.*.%.] ) %./ X.) ) } | ;.9.8.} ] *.*.%. .*./ g.:X{.'.^.{.'.{.W.8.N 7 i i i ",
"a i i h , 6./.E./.}.}.'.E.E.~.Q.s.[ / %.%.} } ) ! *.*.*. .| &.} R %.%.%.| *.*.*.*.Q ) ] } %.%._ %.B.W.~.S.E.'.{.{.^.E.).;.$ i i ",
"i i a h : S.`.k.S./.[.`.Q.Q.Q.S.B.=.R +.] ] ) ) W Q [ [ _ ! ! F M B R W Q _ [ | R ^ ) ) ] ] ] W w.B.S.Q.E.Q./.[.).f.E.~.B.1 a i ",
"i a a h 4 i.E.k.0.a.Q.!.).E.Q.B.i.r.Q Q ] ^ G W D n F N m N C R ! ! W F C N N N z F L U ^ ' W ' e.v.S.Q.~.`.~.Q.a.7.k.W.y.2 h i ",
"a a i i u w.p.a.0.8.0.0.0.w.%.^ ^ 2.+.H U D n n n ! / ! _ [ |  .{ *.{ } [ / / / R n n c H L L &.:.U ) *.w.0.0.0.7.y.a.s.>.2 a a ",
"i 8 8 i u -.;.8.0.8.8.w.8.%.G ^ ' $.) M n n Q | R } *.|  .|  . .X. . . .*.} | *._ R  .K n c D ] %.) ^ U &.8.0.8.8.9.8.;.;.u i a ",
"i i a a 4 *.%.*.0.8.8.8.>.] ) ^ +.U j H L Q | [ H ' | | | |  . .*.*. .*.| |  .| Q H  .| L K C l ) ) ^ ^ +.8.>.9.9.9.&.| %.4 i i ",
"i i i a 4 =.%.&.>.%.%.%.%.) ) ^ C j K ! Q Q ! R K ( _ ' | | | | %.*.} | | %.' ( Q F Q Q ! Q _ H l G ) ^ ] %.%.%.&.;.| ] =.8 i i ",
"i i i a 4 ) ) ( O.( Y ^ ^ ^ Y z c K W W W K K C D ^ Q ^ W Q Q ^ ' _ Q Q Q W L ^ U M H H K L L W F s b ( ( ( T ^ +.+.+.` ' 2 i i ",
"8 i i i 4 ^ } %.| ) / ^ ^ M * * j d c b b m B B h N N n n c m M n c M n M b M i . f B B m m n n h f - q F Q ^ ! / ' ' _ ^ u i i ",
"i h g i 2 &.S.D.N.i.e.w.*.z   3.Y.] p C R ~ ~ { 3XXX..X.o.q.o.g.uX+X~ o.o.7...+XyXk...o.X.{ [ E _.Y.b % z =.w.w.i.N.B.D.;.2 i i ",
"i a i a 2 _ y.t.w.i.i.t.%.z 5 u.H.5.  e ; ; X q P.n.2 4 u f   *.=X).  k i f . J.@X-.  s u i 2 s M.v./ r z ;.s.i.r.t.e.y.^ 2 a a ",
"i p 7 a 2 ' 9.0.,.w.d.e.' c @ v.wX2.  1 & ;   u ;X&X  O O -   / iXU.  0 X -   M.yX=.  < o o &   I.@XN r c | t.y.9.9.t.9.' u p i ",
"i a a i 4 ' ,.w.w.w.t.w.[ c 5 u.@X:.  1 & ;   s &XI.o ; * 1   ^ tXI.  q ; q   M.qX+.  1 ; ; ; . F.K.H d x | 9.w.t.9.9.,.' 4 i p ",
"i f g a 5 | ,.0.9.>.>.&.[ M r 3.Z.:.  1 & ;   s XXZ.  & & <   ^ eXV.  q & 1   z.#X^   < & & O q 3.=.^ r M [ -.>.,.9.0.,.' 8 i i ",
"i a a a , &.9.t.9.;.&.&.| M @ M.rX2.  s 0 < ; s U.Z.X ; < q   L 9XM.  0 ; q   5.oX^   1 1 1 0 & K.I.D d v |  .-.;.,.t.w.| 8 a i ",
"i a i i , } t.,.| | -.-.%.c f 7 c.%.          + L.b.          D oXx.  <       2.U.I             F.L.K d b &.;.&.&.| t.9.' 8 a 8 ",
"i i i i , ' ,.,.| -.-.-.] b u   2.eX3X3X%X XoXV.n.@.1.x.V.P.XXc.b.+.1.c.V. X X1.3.@.x.M.P. XXXOXoXU.K d b %.-.-.&.@.,.,._ 8 a a ",
"i a i a 7 _ ;.-.| -.-.=.@.c i   w.iXaXuXuX X0XI.G D 4.b.C.XX0Xc.D D z.b.Z.9X-X+.T O.x.n..X9X0XtXOXD.^ j b @.=.-.&.-.| ;.' 8 a a ",
"i i p a 5 ' -.-.-.&.=.@.+.b 1   r.c.0 D M D z M 5.<.< s 0 l l D c.O.O t l l q ( c.J < - s z D u K.Y.K N b +.-.-.&.-.-.-.' 7 g 8 ",
"i i i i 2 K Y Y K K L ^ K l j @.Y.:.          & L.C.  o o .   D #X5.  ;   &   3.T.S   ;       > =.4.N K l U Y K K H K K H 8 p i ",
"8 i i a 2 E o.;.;.| [ R C c m 1.n.:.  q < < & 2 H.b.  < ; <   D .X4.  0 * 0   2.U.S   < < ; < 3.(   -.$.p H ! _  .9.7.9.! 2 i 8 ",
"i i i i 1  .!.D.f.y.t.;.[ M n 3.@X=.  q 1 1 ; q M.z.  < < 1   M I.=.  0 ; q   1.L.b   1 < < 1 w.@.r r.' f [ ;.0.i.S.S.S. ., f 7 ",
"i i i i , [ S.d.y.p.y.9.} F j r.*X+.            b.5.          l G.$.          $.G.x           $.b   * X c | 0.s.y.y.d.S. .8 f a ",
"a a a a > [ S.D.9.9.9.9. .B n u.XXr.W ` ) @.^ F z.4.z K L Q K U b.O.z G F G M @.b.I b K ^ ) +.) 1.3.v t n *.9.9.9.9.D.S.[ 3 a a ",
"a 7 i a 3 | N.i. .;.6.6.8.m B 3.2.rXyXeXwXOXrXT.r.=.z.H.P.9X9Xx.J.=.x.H.L.;X;Xc.] 4.G.Z.&XtXtXiXXX5.^ M n 8.6.;.9.*.c.S. .> a a ",
"a p a a , | t.,.' -.8.9.6.B k r.#XOXP.P.H.c. XM.G G #.$.4.H.H.$.Y I #.1.4.H.K.#.x ( 1.=.M.U._.@XY.G.H m m 8.9.>.;.` >.t.} 4 a 8 ",
"i a a j , -.t.+.` -.;.6.8.R a c.wX*.            z.4.          l Z.+.          +.b.S             Z.I.H B B 6.8.;.&.^ @.w.| 4 g a ",
"a a a f 1 &.>.^ ] %.-.9.6.R 3 J.iXr.  s 1 1 < s I.M.  < < q   F #X5.  q < q   2.T.L   1 1 0 e . Z.G.D B m 8.8.@.@.` ^ >.&.8 u g ",
"a a 8 i u >.%.` +.&.>.;.*.R 8 D.qXw.  1 & ; o 0 XXK.  < ; <   L 9Xu.  0 O 1   5.@XG   < & & ;   M.M.G C m  .>.] ` ] ^ @.>.8 8 a ",
"i 8 a 8 i >.%.=.*.;.8.;. .F m 3.M.2.  s q q < t T.C.  q 1 q   K #X5.  q 1 e   5.U.D   q 2 q q q 2.1.K B m *.;.T ` @.@.&.9.a 7 p ",
"i i i a i :.-.-.>.8.;.*.*.C k c.9X]             K.b.          z K.#.          1.K.b             b.M.F F m %.%.^ ' @.=.>.-.p p a ",
"a 7 i i u -.>.-.8.e.9.*.| F k u.I.D.v.v.v.v.i.@.z.1.Y =.2.u.r.=.M.#.^ $.:.r.2.1.c.` =.2.r.u.u.u.M.c.D C B  .%.) +.%.-.>.>.p i a ",
"p a a i p t.9.>.8.e.0.6. .B n c.5.rXyXrXrX=XrXI.3.+.z.Z._.0XrXC.r.( c.K.P.rXqX2.^ 4.I.H.wXyXtXyXV.+.L B B *.%.O.&.&.-.9.t.f a f ",
"i i i 8 p 0.8.&.;.0.0.8. .F k c.qXV.=.<.1.T =.( ^ G G G I #.1.I x x G I T :.1.G S I T Y 1.5.3.3.M.b.D m B  .} ] @.&.&.9.8.u a i ",
"a h f i u >.9.-.;.9.0.6.*.F g v.qXO.            T.C.          D .X1.          3.Y.S             $.4.L H B  .*.+.%.%.-.9.>.u i a ",
"a a i i u ,.,.&.] ;.8.*. .B n c.V.@.  q 0 < < q Y.C.  1 < 0   K @X1.  q < q   z.T.G   1 0 q 1 3.]   +.@.M  .| &.&.@.&.,.;.u i a ",
"i a 7 a , @.3.-.%.*.*.} [ F k 3.L.=.  1 & ; O q K.b.  ; & <   G I.+.  < & <   4.I.S   ; & O ; 3.3.t 2.` n } }  .&.%.>.,.@.8 i i ",
"i a a a , U ` L W R R F F n n r.#X2.  t q < < q Z.x.  < < 0 . G K.#.  1 < q   1.G.S   0 1 q 1 2.S   x r f F B F H R L ` J 2 i i ",
"a a h a , K _ 9.6.[ W [ ~ z z f 3.]             c.z.          D C.(           <.C.v             =.u.e % z {  .! [ 9.9._ F u i i ",
"i a a i , ( ,.S.N.t.| ;.;.m q   w.qX-X&X&X X.Xb.M.=.1.b.J.XXOXx.H.+.5.c.Z.P.P.c.3.<.b.H.P.#X-XeX=XK.H d B 6.6. .0.S.S.>.U i g i ",
"i p i i , ^ -.9.0.9.;.7.;.C u   >.iXiXuXtXJ.0XL.Q L 4.Z.H.0XeXc.L J x.b.Z.#X-X=.8 #.x.n.oXqXrXaX=X:.^ C H ;.6.6.9.0.t.@.L p g i ",
"i a a i 3 T -.,.;.6.9.9.;.B <   4.=.f D D b s z #.#.l q D G l G c.T   e 0 -   +.b.v   1 1 < l q F.L.M c R 8.9.0.;.;.9.:.Q i i a ",
"i i i i 3 ^ @.,.,.8.9.9.;.F n %.H.`           s &XU.  O       ^ 9X3.  < o 0   H.qXQ   ; o o o M ` ` S K H ;.9.0.,.,.>.@.U f 7 p ",
"8 i i a 7 T T @.>.;.9.8.;.B m =.5.@.  0 < <   l .XZ.  < ; 0   T @X=.  1 ; 1   b.@XG   < ; ;   V.-.  @.@.C ;.;.9.,.2.] T L i i i ",
"i i 8 i 8 ^ ` ` =.;.6.8.;.H n :.I.]   0 ; < . d L.b.  < * <   U T.$.  1 ; 1   5.T.S   < ; 1   D.3.% @.J H ;.9.9.-.@.` Y L i u i ",
"i a i i , ^ ` ] ' | 8.e.8.F k 2.L.`   O       t F.z.  & o ;   G I.O.  &   O   4.K.v         < =.v t y X B 8.0.;.| ' +.` L i i a ",
"i i i a 8 U T ' ] ] | ;.8.C j 5.T.O.  l f v # l x.1.  1 e O   G C.^ ; d s l   1.Z.b 2 b u e e . 1.c.x o H ;.;. .] ] +.T L i i i ",
"i i i a 4 T Y ( +.] |  .;.H f u.V.tXtXwX-X&X0Xc.M.:.z.K.U.wXY.5.v.` b.V.Y.0XL.r.:.<.Z.K.#X;X*X*XP.v.L = F 8.*.} ] +.` I U u i i ",
"i i a a , ^ T T ` ' } | ;.H c u.2.qX-X#XU.Z.#Xz.U I <.c.r.*XI.#.x I 1.4.b.@XH.S y #.z.4.I.Y.I.Y.c.1.Y = F *.| [ ' ` ^ T Y 8 i u ",
"i i g h , ^ ( ^ ^ _ _ [ | B 7 $.L.U       <   O T T     o     x ` S . ; O O   Y O.0   &         =.5.M > F } [ / ^ ) ^ ( L 8 a p ",
"a a a i 4 ^ %.} ] } ' _ [ B # $ . 2 u 8 4 4 u 2 2 1 4 q 2 u 8 2 q 2 2 2 2 2 2 1 8 , 8 4 2 8 8 q : # 4 # B } / [ } ] +.%./ 2 g i ",
"i i i i w z M N B B B N m f : 8 q 4 2 q 2 2 2 2 2 2 2 2 2 q 4 2 2 4 w 4 2 q q 4 2 4 2 q 2 2 4 q 4 q 4 , a N N N B F B B c 4 g a ",
"i i i i i 4 : : : : : : : 2 8 8 u 2 8 7 u 2 u 4 8 8 8 8 u 8 w 8 8 4 i 4 4 7 8 8 8 4 8 8 8 u 8 8 7 u 8 8 2 : : : # # # X + 4 q 6 ",
"i i i i i a a a i a a a a i i i i i i i i i i i i i p i i i i i i i i 4 i u i i i i i i i i i u i i u i a i i a a a 7 Z P C V A ",
"i i 8 i i a a i i i i f f i i u i i i u u i i i a a i a i i i a i i i i a h i i i i i i i i u i i i i i f i i a g 9 Z l.R.j.h.A."
};
