/* XPM */
static char *_d9c4c2c29ca4285b5f1b160e5b915d8Y1tsvHCI8STyAa0C[] = {
/* columns rows colors chars-per-pixel */
"64 64 135 2 ",
"   c None",
".  c #000000",
"X  c #0B0205",
"o  c #060903",
"O  c #090D05",
"+  c #050708",
"@  c #060909",
"#  c #0A0C0C",
"$  c #110207",
"%  c #140409",
"&  c #1E050E",
"*  c #0C1206",
"=  c #0E1708",
"-  c #101709",
";  c #121C0A",
":  c #0C1110",
">  c #111814",
",  c #1E1E1E",
"<  c #22050F",
"1  c #260510",
"2  c #2A0612",
"3  c #330616",
"4  c #15230C",
"5  c #19240E",
"6  c #1A2A0F",
"7  c #1C2511",
"8  c #1D2D10",
"9  c #19231C",
"0  c #1E3111",
"q  c #202D1E",
"w  c #243513",
"e  c #253C15",
"r  c #2A3A16",
"t  c #2D3F18",
"y  c #1E1F20",
"u  c #1F2021",
"i  c #2B2B26",
"p  c #25292D",
"a  c gray17",
"s  c #2A3B25",
"d  c #313131",
"f  c #393939",
"g  c #41081C",
"h  c #4A0A1F",
"j  c #4F0A21",
"k  c #550B24",
"l  c #6D0E2E",
"z  c #780F33",
"x  c #7A1034",
"c  c #274016",
"v  c #284217",
"b  c #2C4218",
"n  c #2D4A19",
"m  c #30461A",
"M  c #334C1C",
"N  c #384E1E",
"B  c #33541D",
"V  c #3A511F",
"C  c #37591F",
"Z  c #324629",
"A  c #384F2E",
"S  c #3C5320",
"D  c #3A5E21",
"F  c #3C6322",
"G  c #425D23",
"H  c #466226",
"J  c #486627",
"K  c #426D25",
"L  c #4E6E2A",
"P  c #457127",
"I  c #477428",
"U  c #487629",
"Y  c #4B7B2A",
"T  c #53742C",
"R  c #56792E",
"E  c #567938",
"W  c #505559",
"Q  c #636152",
"!  c #6F6D5C",
"~  c #6B6B6B",
"^  c #72767B",
"/  c #7C7C7C",
"(  c #821137",
")  c #831138",
"_  c #971340",
"`  c #9B1442",
"'  c #A91648",
"]  c #B6174D",
"[  c #B7184E",
"{  c #BE1951",
"}  c #C51954",
"|  c #CB1A56",
" . c #DC1C5E",
".. c #E51E61",
"X. c #E91E63",
"o. c #4E802C",
"O. c #52842E",
"+. c #53882F",
"@. c #5C8131",
"#. c #558B30",
"$. c #588E31",
"%. c #5C9334",
"&. c #648C35",
"*. c #60873C",
"=. c #62893C",
"-. c #639436",
";. c #639A37",
":. c #6A9438",
">. c #659C38",
",. c #6C9C3B",
"<. c #719E3C",
"1. c #6BA23B",
"2. c #76A53F",
"3. c #73AA3F",
"4. c #77A740",
"5. c #76AE40",
"6. c #7AAC42",
"7. c #7BB242",
"8. c #81B544",
"9. c #84BB46",
"0. c #87BE48",
"q. c #88BE48",
"w. c #858472",
"e. c #888774",
"r. c #8BC34A",
"t. c #959583",
"y. c #B0AC91",
"u. c #A5A5A5",
"i. c #B8BABD",
"p. c #E7E1BE",
"a. c #D3D3D3",
"s. c #F5EFCA",
"d. c #E2E2E2",
"f. c #ECEDED",
"g. c #FEFEFE",
/* pixels */
"                            . . .                                                             . . .                             ",
"                          . . . . .                                                         . . . . .                           ",
"                        o . 8 D ; . . .                                                 . . . ; D 0 . .                         ",
"                        . . I #.+.c . . .                                             . . . e +.+.I . .                         ",
"                        . . +.#.#.#.F o . . .                                     . . . o F #.#.#.+.o .                         ",
"                        . = #.#.#.#.#.Y 4 . . .                                 . . . 5 Y #.+.#.#.#.* .                         ",
"                        . 6 #.#.n B +.#.#.D * . . .                         . . . * C #.+.+.B n #.#.6 .                         ",
"                      . . 0 #.P . . ; I #.+.+.n . o . .   . . . . . .   . . . o n +.#.#.I ; . . K #.0 .                         ",
"                      . . w #.K . . . . b +.+.o.c . . . . . . . . . . . . . . c +.+.+.v o . . . K #.w .                         ",
"                      . . e #.P . % 2 . . - e o . . . . * 6 w w w w 6 * . . . . o e = . . 1 % . K #.e .                         ",
"                      . . e +.P . % X.x . . . . * n K o.#.#.#.#.#.+.#.#.O.F n * . . . . x ..% . K #.e .                         ",
"                      . . 6 #.P . .  .' X . o c +.#.#.+.%.%.;.;.>.;.%.%.#.#.#.+.v . . X '  .. . P #.6 .                         ",
"                        . * #.+.. . ) . . 4 I +.#.%.3.9.r.r.r.r.r.r.r.r.9.3.%.#.#.U 4 . . ) . . +.+.* .                         ",
"                        . . +.#.8 . . . ; +.#.%.5.r.8.q.r.r.r.r.r.r.r.r.r.9.r.5.$.#.+.; . . . 8 +.+.. .                         ",
"                        . . F +.C . . o Y +.%.:.r . . o 5 R r.r.r.r.T b * . 5 S :.-.#.Y o . . C #.F . .                         ",
"                        . . ; #.F . . F #.%.H . . . . . . . 8 8.r.M . . . . . . . @.;.#.D . . F #.; . .                         ",
"                          . . D 0 . 0 #.%.J . . j ]  .} x X . w t . X x }  .] h . . U %.+.w . 8 F . .                           ",
"                          . . = . . K #.1.o . l X.X.X.X.X.] X . . . ] X.X.X.X.X.l . O 3.+.K . o * . .                           ",
"                            . . . * +.#.L . &  .) j 2 g l | l . . l | l g 1 k ( ..< . @.$.#.O . . .                             ",
"                              . . 5 #.>.N . 3 < . . . . . . j . . j X . . . . . & 3 . M >.#.5 . .                               ",
"                              . . w #.5.b . . . , ~ u./ f . . . . . . f / u.~ , . . . V 5.#.w . .                               ",
"                              . . e #.q.J . . d f.g.g.g.g./ . . . . / g.g.g.g.f.d . . L 0.#.e . .                               ",
"                              . . e $.r.&.. . a.g.f.W i.g.g.i . . i g.g.i.W f.g.a.. . -.r.#.e . .                               ",
"                              . . e $.r.r.w . a d.^ . p g.~ . + + . ~ g.p . ^ d.d . t q.r.$.e . .                               ",
"                              . . e #.r.r.6.O . $ u . # , . O &.-.O . , # . u @ . 7 9.r.r.$.e . .                               ",
"                              . . e $.r.r.r.8.w . . . . . * ,.r.q.2.- . . . . + b 6.r.r.r.$.e . .                               ",
"                              . . e #.r.r.r.r.r.:.L N L <.q.r.r.r.r.q.<.R V L 8.r.r.r.r.r.#.e . .                               ",
"                              . . e $.r.r.r.r.r.r.r.r.r.r.r.r.r.r.r.r.r.r.r.r.r.r.r.r.r.r.$.e . .                               ",
"                              . . e #.r.r.r.r.r.r.r.6.q.r.r.r.r.r.r.r.q.q.6.r.r.r.r.r.r.r.$.e . .                               ",
"                              . . n $.r.r.r.r.r.&.* . . G r.r.r.r.r.q.G . . O &.r.r.r.r.r.#.n . .                               ",
"                            . . 4 o.1.r.r.r.r.4.+ . . . . L r.r.r.r.L . . . . o 2.r.r.r.r.1.+.; . .                             ",
"                          . . ; o.1.r.s + *.r.U . i p.! . 8 r.r.r.r.w . ! p.i . T r.=.+ s r.>.o.; . .                           ",
"                        . o = o.;.r.r.q . + Z S . Q s.y.. - r.r.r.r.; . y.s.Q . S Z + . u r.r.>.o.- . .                         ",
"                      . . * Y %.q.r.r.6.> . . . . i t.e.. - r.r.r.r.- . w.t.i . . . . > 7.r.r.r.%.o.* . .                       ",
"                    . . * Y %.r.r.r.r.r.0.A : . . . . . . . @ @ @ @ . . . . . . . : A r.r.r.r.r.r.%.Y * . .                     ",
"                  . . O U %.9.r.r.r.r.r.r.r.r.*.Z 9 : X . . . . . . . . + * 9 Z %.r.r.r.r.r.r.r.r.9.%.Y O . .                   ",
"                . . O I %.9.r.r.r.r.r.r.r.r.r.r.r.r.r.r.6.,.=.E E *.,.6.0.r.r.r.r.r.r.r.r.r.r.r.r.r.9.%.I O . .                 ",
"              . . o I #.8.r.r.r.r.r.r.r.r.r.r.r.r.r.r.r.r.r.r.r.r.r.r.r.r.r.r.r.r.r.r.r.r.r.r.r.r.r.r.7.#.I o . .               ",
"            . . o K #.7.r.r.r.r.r.r.r.r.r.r.r.r.r.r.r.r.r.8.&.H H =.9.r.r.r.r.r.r.r.r.r.r.r.r.r.r.r.r.r.7.#.P o . .             ",
"          . . o K #.3.r.r.r.r.r.r.r.r.r.r.r.r.r.r.r.r.@.; . . . . . . ; @.r.r.r.r.r.r.r.r.r.r.r.r.r.r.r.r.3.#.K . . .           ",
"          . . F #.%.r.r.r.r.r.r.r.r.r.r.r.r.r.r.r.2.r . . . < k k 1 . . . r 2.r.r.r.r.r.r.r.r.r.r.r.r.r.r.r.%.#.F . .           ",
"          . 6 #.#.>.r.r.r.r.r.r.r.r.r.r.r.r.r.r.,.o . X z  .X.X.X.X. .x X . . <.r.r.r.r.r.r.r.r.r.r.r.r.r.r.>.#.#.8 .           ",
"        . . n #.#.;.r.r.r.r.r.G O :.5.r.r.r.r.6.* . 3 | X.X.X.X.X.X.X.X.| 3 . O 6.r.r.r.r.6.:.O H r.r.r.r.r.;.#.#.n . .         ",
"        . . w #.#.#.9.r.r.r.H . . N #.r.r.r.r.; . 3  .X.X.X.X.X.X.X.X.X.X. .3 . ; r.r.r.r.#.N . . J r.r.r.9.$.+.#.e . .         ",
"          . o Y #.#.;.r.r.T . . . e $.r.r.r.:.. X  .X.X.X.X.X.X.X.X.X.X.X.X. .X . :.r.r.r.$.e . . . T r.r.;.+.#.Y o .           ",
"          . . O D +.#.O.t . . . . e $.r.r.r.H . 3 ` { } } } } } } } } | } { _ 2 . H r.r.r.$.e . . . . t O.#.+.D O . .           ",
"            . . . . o . . . . . . e #.r.r.r.<.. . . . . . . . . . . . . . . . . . <.r.r.r.$.e . . . . . . o . . . .             ",
"              . . . . . .     . . e #.r.r.r.r.2.G ; O O O . o o . . o . o * ; M <.r.r.r.r.#.e . .     . . . . . .               ",
"                              . . e #.0.r.r.r.r.r.r.r.r.r.r.r.r.r.r.r.r.r.r.r.r.r.r.r.r.r.#.e . .                               ",
"                              . . e #.9.r.r.r.r.r.r.r.r.r.r.r.9.9.r.r.r.r.r.r.r.r.r.r.r.7.#.e . .                               ",
"                                . 6 #.7.r.r.r.r.r.r.r.r.r.r.,.C D >.r.r.r.r.r.r.r.r.r.r.7.#.6 .                                 ",
"                                . ; #.5.r.r.r.r.r.r.r.r.r.T o . . o R r.r.r.r.r.r.r.r.r.7.#.; .                                 ",
"                                . O #.1.r.r.r.r.r.r.r.r.6.O . . . . o 6.r.r.r.r.r.r.r.r.1.#.O .                                 ",
"                                . . +.;.r.r.r.r.r.r.r.r.H . .     . . H r.r.r.r.r.r.r.r.;.+.. .                                 ",
"                                . . K %.r.r.r.r.r.r.r.r.w .         . w r.r.r.r.r.r.r.r.#.K . .                                 ",
"                                . . B #.9.r.r.r.r.r.r.r.O .         . O r.r.r.r.r.r.r.9.+.B . .                                 ",
"                                . . 0 #.3.r.r.r.r.r.r.2.. .         . . 2.r.r.r.r.r.r.3.#.0 . .                                 ",
"                                  . * #.%.r.r.r.r.r.r.R . .         . . R r.r.r.r.r.r.%.+.* .                                   ",
"                                  . . Y #.1.r.r.r.r.r.n . .         . . m r.r.r.r.r.1.#.Y . .                                   ",
"                                  . . w #.#.%.1.7.3.R o .             . . O.3.7.3.%.#.#.0 . .                                   ",
"                                    . . F +.#.#.#.+.; . .             . . ; +.#.#.#.#.D . .                                     ",
"                                    . . o 8 C K c = . .                 . . * t K B 6 . . .                                     ",
"                                      . . . . . . . .                     . . . . . . . .                                       ",
"                                          . . . . .                         . . . . .                                           "
};
