/* XPM */
static char *b4d471b21e224f16e5f7e86b98460c78URfpb1ZOYmMxaZt4[] = {
/* columns rows colors chars-per-pixel */
"64 64 127 2 ",
"   c None",
".  c #000000",
"X  c #0B0601",
"o  c #0D0A00",
"O  c #130D02",
"+  c #1D0F00",
"@  c #151100",
"#  c #1C1601",
"$  c #1E1800",
"%  c #1E1409",
"&  c #211306",
"*  c #241D00",
"=  c #261709",
"-  c #26180A",
";  c #2A1B0A",
":  c #311F0C",
">  c #2C2300",
",  c #312600",
"<  c #3C2700",
"1  c #342900",
"2  c #3A2E00",
"3  c #34210E",
"4  c #38220C",
"5  c #3C3000",
"6  c #322111",
"7  c #3B2714",
"8  c #3E2914",
"9  c #452E00",
"0  c #41260C",
"q  c #46290D",
"w  c #4E2E0E",
"e  c #433500",
"r  c #493600",
"t  c #473900",
"y  c #4E3F00",
"u  c #432B13",
"i  c #4B3015",
"p  c #4F351A",
"a  c #5E3711",
"s  c #5F3913",
"d  c #52361B",
"f  c #54381C",
"g  c #5D3B1A",
"h  c #653D15",
"j  c #683F17",
"k  c #633E1B",
"l  c #564500",
"z  c #584700",
"x  c #5C4A00",
"c  c #614E00",
"v  c #665100",
"b  c #6B5500",
"n  c #6F5800",
"m  c #745D00",
"M  c #684017",
"N  c #6B4219",
"B  c #72471C",
"V  c #754A1E",
"C  c #7C6400",
"Z  c #624221",
"A  c #6C4824",
"S  c #764B20",
"D  c #7B4E21",
"F  c #7F5123",
"G  c #7B5229",
"H  c #815E00",
"J  c #816700",
"K  c #8A6500",
"L  c #856A00",
"P  c #8B7000",
"I  c #907300",
"U  c #9E7500",
"Y  c #9A7B00",
"T  c #A27D00",
"R  c #825426",
"E  c #82572B",
"W  c #87592A",
"Q  c #8B5B2B",
"!  c #915F2E",
"~  c #8F602F",
"^  c #93612F",
"/  c #956432",
"(  c #996633",
")  c #9D6935",
"_  c #AB733B",
"`  c #A18100",
"'  c #A88700",
"]  c #AD8A00",
"[  c #B18D00",
"{  c #B59100",
"}  c #BB9600",
"|  c #BF9900",
" . c #C59D00",
".. c #CEA100",
"X. c #C5A00B",
"o. c #D5AA00",
"O. c #D7AF09",
"+. c #DEB200",
"@. c #D7B00F",
"#. c #C5A112",
"$. c #C5A319",
"%. c #D7B215",
"&. c #E2B500",
"*. c #E9BB00",
"=. c #F4C300",
"-. c #F9C700",
";. c #FFCC00",
":. c #FFCE09",
">. c #FFD115",
",. c #FFD31A",
"<. c #FFD522",
"1. c #FFD729",
"2. c #FFD82F",
"3. c #FFDC3F",
"4. c #BE8243",
"5. c #C28545",
"6. c #FFDD44",
"7. c #FFDF4D",
"8. c #FFE154",
"9. c #FFE45E",
"0. c #FFE563",
"q. c #FFF194",
"w. c #FFF299",
"e. c #FFF6A6",
"r. c #FFFAB6",
"t. c #FFFAB9",
"y. c #FFFFCC",
/* pixels */
"                                                                                                                                ",
"                                                                                                                                ",
"                                                                                                                                ",
"                                                                                                                                ",
"                                                                                                                                ",
"    . . . . . . . . .                                                                                       . . . . . . . . .   ",
"    . . 1 5 5 5 5 o .                                                                                       . O 5 5 5 5 > . .   ",
"    . . O.8.8.8.2.5 . . . . . . . . . . . . . . . . . . . . . . . . . . . . . . . . . . . . . . . . . . . . . y 1.8.8.9.X.. .   ",
"    . . %.y.y.y.0.2 . d d d d d f d d d d d d d d d d d d d d d d d d d f f p f f p f p d d d d d d d d d p . y 0.y.y.y.$.. .   ",
"    . . %.y.y.y.0.2 . _ 4.4.4.4.4.4.4.4.4.4.4.4.4.4.4.4.4.4.4.4.4.4.4.4.4.4.4.4.4.4.4.4.4.4.4.4.4.4.4.4.4./ . y 9.y.y.y.$.. .   ",
"    . . %.q.q.q.6.5 . _ 5.5.5.5.5.5.5.5.5.5.5.5.5.5.5.5.5.5.5.5.5.5.5.5.5.5.5.5.5.5.5.5.5.5.5.5.5.5.5.5.5./ . y 6.q.q.q.#.. .   ",
"    . . o.;.;.;.;.5 . _ 5.5.5.5.5.5.5.5.5.5.5.5.5.5.5.5.5.5.5.5.5.5.5.5.5.5.5.5.5.5.5.5.5.5.5.5.5.5.5.5.5./ . y ;.;.;.;. .. .   ",
"    . . +.;.;.;.;.5 . _ 5.5.5.5.5.5.5.5.5.5.5.5.5.5.5.5.5.5.5.5.5.5.5.5.5.5.5.5.5.5.5.5.5.5.5.5.5.5.5.5.5./ . y ;.;.;.;. .. .   ",
"    . . o.;.;.;.;.2 . ( ) ) ) ) ) ) ) ) ) ) ) ) ) ) ) ) ) ) ) ) ) ) ) ) ) ) ) ) ) ) ) ) ) ) ) ) ) ) ) ) ( / . l ;.;.;.;. .. .   ",
"    . . o.;.;.;.;.5 . ( ( ( ( ( ( ( ( ( ( ( ( ( ( ( / ( ( ( ( ( ( ( ( ( ( ( ( ( ( ( ( ( ( ( ( ( ( ( / ( ( ~ . y ;.;.;.;. .. .   ",
"    . . o.;.;.;.;.2 . ( ( ( ( ( ( ( ( ( ( ( ( ( ( ( ( ( ( G 7 % % u E ( ( ( ( ( ( ( ( ( ( ( ( ( ( ( ( ( ( Q . y ;.;.;.;. .. .   ",
"    . . o.;.;.;.;.5 . ( ( ( ( ( ( ( ( ( ( ( ( ( ( ( ( ( f . . o o . . Z ( ( ( ( ( ( ( ( ( ( ( ( ( ( ( ( ( ~ . y ;.;.;.;. .. .   ",
"    . . o.;.;.;.;.2 . ( ( ( ( ( ( ( ( ( ( ( ( ( ( ( ( A . # { ;.-.' @ . G ( ( ( ( ( ( ( ( ( ( ( ( ( ( ( ( / . y ;.;.;.;. .. .   ",
"    . . o.;.;.;.;.5 . ( ( ( ( ( ( ( ( ( ( ( ( ( ( ( / - . o.2.w.q.<.} . 6 ( ( ( ( ( ( ( ( ( ( ( ( ( ( ( ( Q . y ;.;.;.;. .. .   ",
"    . . o.;.;.;.;.2 . ! ! ! ! ! ! ! ! ! ! ! ! ! ! ~ Q . e ;.t.y.y.e.;.* X ! ! ! ! ! ! ! ! ! ! ! ~ ~ Q / ! W . y ;.;.;.;. .. .   ",
"    . . +.;.;.;.;.5 . F F F F F V R R V F F 3 . . . . . l :.y.y.y.r.;.2 . . . . . u R D F F F F R R D R D V . y ;.;.;.;. .. .   ",
"    . . o.;.;.;.;.5 . F F F F F R R R R F F 3 . 1 5 5 5 C ;.0.y.y.8.;.v 5 2 5 > . u D R F F F F R D R R R S . y ;.;.;.;. .. .   ",
"    . . o.;.;.;.;.2 . F F F F F R R R D F R 6 . o.-.;.;.;.;.;.>.>.;.;.;.;.;.;.{ . u R R F F F F R D R D R V . y ;.;.;.;. .. .   ",
"    . . ` } } } } > . g g g g g s a g g g g - . o.;.;.;.;.;.;.;.;.;.;.;.;.;.;.{ . : g s g g g g s g g g s d . 2 } } } } I . .   ",
". . . . . . . . . . . . . . . . . . . . . . . . o.;.;.;.;.;.;.;.;.;.;.;.;.;.;.{ . . . . . . . . . . . . . . . . . . . . . . . . ",
". $ J J J J J J J J J J J J J J J J J J J J 1 . o.;.;.;.;.-.o.c v &.;.;.;.;.;.{ . e J J J J J J J J J J J J J J J J J J J J o . ",
". 5 >.e.e.e.e.e.e.e.e.e.e.e.e.e.e.e.e.e.e.3.v . o.;.;.;.;.=.@ . . * ;.;.;.;.;.{ . L 6.e.e.e.e.e.e.e.e.e.e.e.e.e.e.e.e.e.e.>.$ . ",
". 5 >.y.y.y.y.y.y.y.y.y.y.y.y.y.y.y.y.y.y.8.v . ..;.;.;.;. .. . . . &.;.;.;.;.{ . L 7.y.y.y.y.y.y.y.y.y.y.y.y.y.y.y.y.y.y.,.$ . ",
". 5 ,.y.y.y.y.y.y.y.y.y.y.y.y.y.y.y.y.y.y.8.v . o.;.;.;.;.| . . . . +.;.;.;.;.{ . L 7.y.y.y.y.y.y.y.y.y.y.y.y.y.y.y.y.y.y.,.$ . ",
". 5 :.6.6.6.6.6.6.6.6.6.6.6.6.6.6.6.6.6.6.,.v . o.;.;.;.;.| . . . . +.;.;.;.;.{ . L ,.6.6.6.6.6.6.6.6.6.6.6.6.6.6.6.6.6.6.:.$ . ",
". 1 &.&.&.&.&.&.&.&.&.&.&.&.&.&.&.&.&.&.&.&.z . ..;.;.;.;.| . . . . +.;.;.;.;.{ . m &.&.&.&.&.&.&.&.&.&.&.&.&.&.&.&.&.&.&.&.# . ",
". . . . . . . . . . . . . . . . . . . . . . . . o.;.;.;.;.| . . . . +.;.;.;.;.{ . . . . . . . . . . . . . . . . . . . . . . . . ",
". . . X , 1 < 1 < o X = = = = = = = - - - - O . o.;.;.;.;.| . . . . +.;.;.;.;.{ . O - - - - = = = = = = - & X + 1 < < , ; X . . ",
"    . + K U U U T 9 + B N N N N N N N N N N ; . o.;.;.;.;. .. . . . +.;.;.;.;.{ . 4 N N N j N N N N N N N j + 9 U U U T H + X   ",
"    . + K T U U U : + j N N j j N N N N N N ; . o.;.;.;.;.+.. . . o =.;.;.;.;.{ . 4 N N N N N N B j N N N j + 9 U U U T H + X   ",
"    . X [  ..... .9 o R R R R R R R R R R R 3 . o.;.;.;.;.;.Y @ $ [ ;.;.;.;.;.{ . u R R R R R R R R R R R S O r .... ...T O .   ",
"    . . +.;.;.;.;.2 . ( ( ( ( ( ( ( ( ( ( ( 8 . ..;.;.;.;.;.;.;.;.;.;.;.;.;.;.{ . p ( ( ( ( ( ( ( ( ( ( ( Q . y ;.;.;.;. .. .   ",
"    . . o.;.;.;.;.2 . ( ( ( ( ( ( ( ( ( ( ( 8 . o.;.;.;.;.;.;.;.;.;.;.;.;.;.;.{ . d ( ( ( ( ( ( ( ( ( ( ( ~ . y ;.;.;.;. .. .   ",
"    . . o.;.;.;.;.2 . ( ( ( ( ( ( ( ( ( ( ( 8 . o.;.;.;.;.;.;.;.;.;.;.;.;.;.;.{ . d ( ( ( ( ( ( ( ( ( ( ( ~ . y ;.;.;.;. .. .   ",
"    . . o.;.;.;.;.2 . ( ( ( ( ( ( ( ( ( ( ( 8 . b L L L ' ;.;.;.;.;.;.` L L L x . i ( ( ( ( ( ( ( ( ( ( ( ~ . y ;.;.;.;. .. .   ",
"    . . o.;.;.;.;.5 . ( ( ( ( ( ( ( ^ ( ( ( 0 . . . . . l ;.;.;.;.;.;.2 . . . . . p ( ( ( ( ( ( ( ( ( ( ( ~ . y ;.;.;.;. .. .   ",
"    . . o.;.;.;.;.5 . W Q Q Q W Q W Q Q Q Q h q q q q . 5 ;.;.;.;.;.;.$ X q q q q N Q W Q Q Q W Q W Q W Q R . y ;.;.;.;. .. .   ",
"    . . o.;.;.;.;.2 . R R R V R R R R R R D N h a a a + . ..;.;.;.;.] . & a a a a B R F F F F F R R F F F S . y ;.;.;.;. .. .   ",
"    . . o.;.;.;.;.2 . D D R R R V R V R V R j a a a a q . @ ' -.=.Y o . w a a h a N F F F F F F R D F F F S . y ;.;.;.;. .. .   ",
"    . . +.;.;.;.;.2 . R R R R R R R R R R R V V V D D h 4 . . . . . . 0 h V V V V R F F F F F F D R R R F S . y ;.;.;.;. .. .   ",
"  . . . m  .-.;.;.2 . ^ ! ! ! ! Q ! ! ! ! ( ! ( ^ ^ ^ V N s ; + % 3 s N F ^ ^ ^ ^ ! ^ ^ ^ ^ ^ ! ! ! ! ! / Q . l ;.;.-.} b . . . ",
"  . . . . . @ n &.2 . ( ^ ( ^ ( ( ( ( ( ( ( ( ( ( ( ( ! N N N N N N N N ^ ( ( ( ( ( ( ( ( ( ( ( ( ( ( ( ( Q . l o.v o . . . . . ",
"  . l +.] b @ . X O . Q Q Q Q Q Q Q Q Q Q Q Q Q Q W Q W F j h h h h j R Q Q Q Q Q Q Q Q Q Q Q Q Q Q Q Q W R . O . . $ m [ &.2 . ",
"  . l ;.;.;.-.` * . . S F F F F F F F F F F F F F F F F F F B N N B F F F F F F F F F F F F F F R R R V D A . . > [ ;.;.;.;.5 . ",
"  . l ;.;.;.;.;.=.l . % D F F F F F F F F F F F F F F F F F F F F F F F F F F F F F F F F F F F V R R R S O . b -.;.;.;.;.;.5 . ",
"  . l ;.;.;.;.;.;.-.c . 6 F F F F F F F F F F F F F F F F F F F F F F F F F F F F F F F F F F F R V R R - . C ;.;.;.;.;.;.;.5 . ",
"  . l ;.;.[ > l -.;.-., . k F F F F F F F F F F F F F F F F F F F F F F F F F F F F F F F F F F R R R w . t -.;.*.t ,  .;.;.5 . ",
"  . l ;.;.$ . . Y ;.;.| . ; R F F F F F F F F F F F F F F F F F F F F F F F F F F F F F F F F F R R R % . o.;.;.C . . 2 ;.;.5 . ",
"  . l ;.;.5 . . { ;.;.;.> . S F F F F F F F F F F F F F F F F F F F F F F F F F F F F F F F F F R V N . t ;.;.;.Y . . l ;.;.5 . ",
"  . l ;.;.*.L ] ;.;.;.;.C . g F F F F F F F F F F F F F F F F F F F F F F F F F F F F F F F F F R R w . Y ;.;.;.;.T P =.;.;.5 . ",
"  . l ;.;.;.;.;.;.;.;.;.[ . - u u u u u u u u u u u u u u u u u u u u u u u u u u u u u u u u u 0 0 + . o.;.;.;.;.;.;.;.;.;.5 . ",
"  . l ;.;.;.;.;.;.;.;.;.o.. . . . . . . . . . . . . . . . . . . . . . . . . . . . . . . . . . . . . . . *.;.;.;.;.;.;.;.;.;.5 . ",
"  . o # $ # $ # $ $ $ # @ . .                                                                       . . $ # # * $ # # $ $ $ . . ",
"  . . . . . . . . . . . . .                                                                         . . . . . . . . . . . . . . ",
"                                                                                                                                ",
"                                                                                                                                ",
"                                                                                                                                ",
"                                                                                                                                ",
"                                                                                                                                "
};
