/* XPM */
static char *af2689779dd44476abf77a56469a8b18z7cvnfaYXUdhTpSN[] = {
/* columns rows colors chars-per-pixel */
"64 64 121 2 ",
"   c black",
".  c #0B0807",
"X  c #130D0B",
"o  c #18140F",
"O  c #171411",
"+  c #1A1613",
"@  c #1E1A16",
"#  c #1F1B18",
"$  c #211D17",
"%  c #221E19",
"&  c #25221D",
"*  c #28241F",
"=  c #272320",
"-  c #2A2621",
";  c #2E2924",
":  c #312C26",
">  c #332E29",
",  c #36312B",
"<  c #3A342E",
"1  c #3D3730",
"2  c #3E3832",
"3  c #433C35",
"4  c #483F37",
"5  c #463F38",
"6  c #474037",
"7  c #484037",
"8  c #474039",
"9  c #4C443C",
"0  c #4F483E",
"q  c #50473E",
"w  c #51493F",
"e  c #4E4740",
"r  c #4E4841",
"t  c #514740",
"y  c #544C43",
"u  c #584F46",
"i  c #574F48",
"p  c #584F48",
"a  c #575046",
"s  c #595146",
"d  c #575049",
"f  c #5C544A",
"g  c #5F584D",
"h  c #5F5850",
"j  c #60574D",
"k  c #62594E",
"l  c #655C51",
"z  c #655D54",
"x  c #665D54",
"c  c #665F54",
"v  c #665E55",
"b  c #675E55",
"n  c #685F53",
"m  c #685F55",
"M  c #676056",
"N  c #696054",
"B  c #686057",
"V  c #6B6256",
"C  c #6A6258",
"Z  c #6B6259",
"A  c #6C6358",
"S  c #6C6359",
"D  c #6D6459",
"F  c #6E655B",
"G  c #6F665A",
"H  c #716557",
"J  c #70675B",
"K  c #70665C",
"L  c #71675D",
"P  c #72675C",
"I  c #736A5D",
"U  c #74685D",
"Y  c #74695E",
"T  c #756B5E",
"R  c #786D5F",
"E  c #736A61",
"W  c #756C61",
"Q  c #776C61",
"!  c #776E63",
"~  c #786E61",
"^  c #786F62",
"/  c #796E63",
"(  c #786F64",
")  c #796F65",
"_  c #7A7167",
"`  c #7C7265",
"'  c #7D7366",
"]  c #7C7267",
"[  c #7C7367",
"{  c #7D7368",
"}  c #7F7568",
"|  c #7E7569",
" . c #7F756A",
".. c #807567",
"X. c #807669",
"o. c #817669",
"O. c #80766B",
"+. c #82776D",
"@. c #82786C",
"#. c #83786D",
"$. c #847A6C",
"%. c #857A6D",
"&. c #857B6E",
"*. c #897D6F",
"=. c #847B70",
"-. c #867B70",
";. c #877D70",
":. c #867C71",
">. c #897E71",
",. c #8B8073",
"<. c #898074",
"1. c #8A8176",
"2. c #8C8274",
"3. c #8C8277",
"4. c #8E8376",
"5. c #8E8479",
"6. c #908577",
"7. c #92877B",
"8. c #91877C",
"9. c #948A7B",
"0. c #93887D",
/* pixels */
"> > 1 5 3 3 5 8 8 e r r y i r e 8 8 2 , , : ; , 8 r d d f p i v v Z Z v d i e 5 2 : & : 1 e e y f g s u s f d g i e e 5 3 5 1 > ",
"< > h =.3.8.1.=.1.5.5.0.8.5.1. .[  .` E M 3 ; 3 M (  .<.=.+. .+.=. .` ! E F _ =.z > % 9 { >.$.1.>. .` `  .+.@. .` ! E Z F _  .Z ",
"2 1 h ! ! ! E Z M M M v v v v g l g l N C r ; , h h h h h f f h d h p i f g Z =.v , & r =.1.` ~ v z s f g f f f h h f f f v v Z ",
"3 , h h i i i i i i d i i i d d d d d f M y ; , g h d d p p i p i i i f f f k v h , % t ` _ ! A F b h f t e i f h f f f i i f h ",
"3 , g v f f f i d d s a y y y y a a a a M a ; : f h f d a t t t t t t t y i f h p : % y ~ ~ T T N k g t 9 5 e u d d d d i y i h ",
"2 2 v h i f p i d d s u d y y r w a a g M t ; , g g g g i y t t y t y t y u s h t : & t A N H T m s t 9 5 8 5 e y y i i i y y f ",
", 2 v h d f i p a d a f a a y y y a f g z 0 ; , d g g g s p y t t i y y y u i g y : * 9 z n N N z i t 8 5 5 9 5 e e r i y y i f ",
"> 5 v h h f p p i w 0 0 y 0 0 y a a g k k 9 ; , d g d g f p p y y y y i y p p g u - - 4 n k k k f u i 9 5 9 9 9 8 e r y i i f i ",
"; 3 l g g f f f w 0 9 9 9 0 w w f k k k k 9 ; , u k u f j s s u y i i i u u u z 9 - - 3 k k f j k k k N a 6 0 0 e e y y i f d j ",
"> 2 l g g g f w w 9 7 6 9 w w k k l k z g 3 * 2 q z j k j j j s p p p p f f k z 1 : - < g k f j k k k N w 6 0 s d e i i s d h v ",
"> , a A g g s w w w 9 w w g k k k z k k 0 , * 2 q j N k j j j j j j j j j j l y 3 > : 1 s k f k k k k s f k k N v j j j h g f f ",
"> > 6 N M a s w w w w w w w w w a w i y 6 < ; , 4 4 y t 9 4 9 9 4 9 9 q q t t q 9 9 > 7 w k k f j k k 9 k k k w p p y t 9 5 e 5 ",
"= & ; < < < 2 2 3 3 2 2 2 > > : : > < : > % @ % 1 1 - - : : : * - - ; ; ; ; > 3 3 7 - ; < 4 9 9 7 7 7 < ; 2 : * * & $ @ # % ; ; ",
"( ! ! ! N f 3 ; : : : > < 6 0 w f z l j j j j j y t e 9 < ; 3 w j p p p u y q 9 4 4 4 4 2 3 1 : : * * : , 2 0 w u f z H !  . .` ",
"` [ 1.<.$. .k 9 : w N T R 1.2.,.$.$.O.` =.>.*.>.6.6.>.+.z : w ......+.*.*.*.+.$.$.+.$.~ I R k w 7 > w N H R $.$.` ` [ O.,.7.4.+.",
"a a a a k N k 0 < w H ` H H N f u t t e p f n n R W U T j < s H m H U P P H n n n m J J V J N s < , w N N k k k j s a a y a f s ",
"d a i i i f M 0 > w z k y 9 9 9 w q 9 q t a k A N N k k w 3 w k j k k k j j k k a w w w f w g g 3 : 7 w s s s a w a w w a s s g ",
"a r r y y d M y : e n f t w y y w q 0 9 w y s k n n k k w , w k j k k n k k n k g s a w w a f k 6 * 7 j s s a w 0 0 w w w w a s ",
"a r r r y y l d ; 0 k u t t a a y y w w 9 q y a j j j j w < w j s j j s s j N n s s w w w g f k 6 * 6 w s a a w 0 w w w w a a a ",
"a r y r u y l a ; 2 g k s y a f u t t y q q w s f j w j w < w w w w w w w w w w s s a a w w w g 6 & 6 k a a a w 0 0 w w w w w a ",
"i i i i i d l f , , i z g a d s j w s w w y w f k j f j 0 < 4 u w w w 7 7 w w w w w w w w a w g 6 & 3 g s w w a w w w w w w s s ",
"f f f f f f l d , < 3 s k s a s j j s w a y y a j f s a 4 3 3 u w w w w w w w w w s w s w a g f , ; 2 g g f a a a w w s k g f g ",
"i y r e e r f y , < 3 9 a f f s j s s s s s s s a a f w 4 3 < t s w s w w k k k s s g s a 0 f 0 , : 2 w k g a w f f s a w 0 0 w ",
", , > ; , 1 2 2 > < 7 3 3 6 9 0 w w w w 9 9 9 q 9 9 0 7 7 < < 4 w s w w w w w w w 9 6 6 6 6 6 6 , ; > 3 6 6 6 6 6 3 2 < < , , , ",
"- - = = & # + .   + > = # @ + O o $ & * * * ; ; : : : < 1 > 3 3 2 < 2 < , * $ $ & * ; ; ; * ; < ; < < * * $ $ $ $ & & & * ; ; * ",
"h 1 > 5 9 g z v v i : h F ! ! E R H k w 3 ; : * * * * * & + - > : * $ $ * 7 w k M a , * ; V *.[ a *. .R T I H N J F R R [ [ ` T ",
"E 1 , h E ` W E E E r v >. .@. .[ R H f 7 < 0 k ` ` R T I k s v H n j s R ..,...` T 0 * < I ~ N M ~ R $.$.$.,.2.,.@.1.2.*.$.` T ",
"v 1 1 i ! F v g g h l 8 h I F N V z k f 3 < a $.$.` R R ! ! F F H H H H H H k f f N 0 * 6 g f a g a a g g g s g g f f f f f g g ",
"f 1 1 d Z v l f g l h l d s k g k N k s 6 , s H f k f g k g f d f g g g w w s g g g w ; 0 g f a g g k k k s s s a f f g f g g g ",
"h 2 > i v v l h h f f s h f y a f f g s 6 > k k g k z N N z f g f a a 0 w w s g g g w ; 0 g f k g k M k g s g s f a g a f g g g ",
"h 2 > y v v z g g s s i y f s d s f k g 6 : g z g g z N g s f s a 0 0 0 0 w s g a g w * 6 0 V k g g k k s g g s g g g g f f g g ",
"f 2 > y v d z z s d y y y y d d s f g f 6 * f k a s g s s s u 9 9 0 w w w a w a f k a * : g k a g N k k g g f g g g g g a a g g ",
"g 3 , t z f g M g s s w w s s s j s k w > : w j s a p s p u q q r r 0 w a r a g s k s * 3 N s s z N j k g k k k k k k s w w k k ",
"f 2 2 w k g g g N s a w w w w s k j z 4 > 3 j j f i u u t t q q 0 0 0 r r a f g g k a , 6 N s g z N k k V k k k j f w w w s k k ",
"i 1 6 f z k M g k k s a s g s s f n j 4 < 3 j j u w t y t y q q 8 9 0 0 a s f g g k w < < g k a k N N N k k k g s w w w w w g g ",
"i 2 3 M v k g g k z N k N N k N N N s w , 3 s j y y y y y u y q 0 0 a a g g s g k k w < < 2 k g k k N N N k k f a w w 9 w f g g ",
"y 3 1 t f 6 2 3 6 0 0 w w w w w w 0 j f > 9 z j s f f f j j s y w a a a w w w s a g a < 6 w w a w w w w w w w 0 9 6 1 > w w f f ",
"3 : > - * & * ; ; : ; > , * ; : , 4 6 6 $ 3 u q 9 9 9 q 4 4 4 3 < , , : , , > 2 6 6 2 ; 2 w 6 , , : ; * ; ; * & * ; ; % : , > < ",
"9 y i h g 0 6 < ; ; ; * * < < : : : * : < : > * $ $ + o . X + + * , : ; > < , > : 3 w a a 0 6 6 6 6 < 6 7 w w f 9 & ; 2 0 w 0 w ",
"+.O.+.=.1.[ I F N w 6 w H R ,.k < : 7 T ~ R 0 u V N k n H H H ..T T T T H N w ; 0 G R [ ,.2.6.6.2.2.2.2.2.2.2...V < > ~ ,.2.2.,.",
"N J T U N n k n H H n H R R R k 7 * w H R H k ,.*.*.$.*.*.$.....[ ` ` R H H 6 : w z N H T R R R [ T [ 1.1.[ [ T l 3 , T [ [ ~ T ",
"j j k k k k j j j j s j k H H k w * w w w w k j j j s u s s u w w w 0 w w j 1 : w k g k g w 0 0 s f a a f f f k l 3 , g G C k a ",
"j g j z k k j f s s s s j k H H 7 & 9 f j w k w j s j w w u u u w w w w w z 3 : w g k k g w 0 w 0 0 a a a f g k l 6 , M ~ T l f ",
"j u f z k j j s s s w s w k H k 3 & 7 k 7 w j k j j s w w u u s k w 9 0 w w 3 : w g g g a w 7 7 0 9 0 0 a a s k l 6 : l I A f f ",
"s a y j j k j s s s w w s s f k 7 & 3 q s w j s j j j w 0 w a f k g w 9 w j 3 ; w N k s w 0 7 0 7 7 0 0 t a s g l 6 , g M g a f ",
"s a w w w s u k s w w s s s f k 7 $ , s j w w w w j s w w 0 0 a f f j w w s < * 6 k N w w w w 0 9 0 0 w y d s k l 9 , g g r y f ",
"f s a a a a a k k s w s s s j s 7 * 3 w u s j w w s a d a w 0 y a f f s w w < * 6 g N f w w a w y w y a a a s g M 9 ; f l a d d ",
"j j f j j k f j n k j s s j j 7 3 : 3 w u s s 7 w w w w a a a a a s s w w w > * 6 s k g g s s g s s s a s f g g k 9 , d M a g d ",
"f g f f u f f g f j g s g k 9 < 2 > < 3 4 7 3 3 < 4 4 3 6 9 9 r w w s w w < : * < 9 g w f w f w s w w w a a a s w w , a l s s f ",
"7 0 7 4 3 3 3 3 3 4 6 7 3 < > : * % : : : : : * * ; ; : , , < < 7 7 7 6 6 6 , : , 6 4 9 9 6 4 3 3 3 3 3 3 6 6 6 0 w , 3 9 2 2 8 ",
"& > > ; : ; * $ + + @ * * : < 3 3 4 q w 9 3 3 < , , , , ; : , : < : * ; : , $ * * * : * & * : > < : : * : : ; ; ; ; & $ @ O @ % ",
"i 2 < > ; ; , i N T T ` $.,.,.4.6.4.6.6.6.2.*.*.$.*.*.H f 2 ; 3 H ..R N s w g k z w w w l f < : , 6 z T T ` R T N g N I ` ! ! Z ",
"5.1.=.E z < 3 P O.` ` ` [ ..` ..` ` O.$.*.*.$.$.O.$.[ H f 7 * 2 I 2.9.9.2.2.2.,...2.` ,.,.4.k * < 0 T R R [ $.$.,.*.@.>.0.9.9.9.",
"` O.) ! A 3 < f N s s a w k k w f g k V H J n f s k k N 9 3 & 6 g f g k N H n s w k k w k T n * : 0 N N z k k k m N m v Z F F E ",
"u i f g p 5 > t g w s s f k n k h f s g k l z f s s g N 9 < & s N a w 0 7 9 9 0 7 9 w w w f d , ; g V z k k k k k f g g k s d d ",
"s s s g f 3 > t k g s g s f k k j s s g j j g s a w s k 8 , * f s w 9 9 w 7 w 9 7 9 w w a f f < : k N k k k g s f f f g f a d a ",
"p p p u p 5 , t g w s g f u f j g g f z z j g u d 0 a g 9 ; : f a w w w 0 w w w 9 9 9 t s f f < > l g i f f g f d y s s s y y d ",
"p p p j p 5 : t k s u j f u s f j g j j j k z f s a a z 9 - < g g w w w w w w f u t t i s g s < > g g u p p p p q 0 e t i i d s ",
"f p p v p 5 : 5 g f a s s u i f f f f f f g g g g s s k y ; < d a s w a a w g f p p i i g f a < , l z u p i p p t e t y i p f f ",
"p p p j i 3 : 3 a f u a s i y i s f s p s u p g g g s g d , , r g w s w f s g w p i i v k f u > > g z f s i p p s i d s f f h f ",
"s g g j 4 < : : 4 p y u s i u a s g f f p s f g f g f g 9 , ; 8 a f f f f g f f d d h j h d e > 1 i z g h f p f p h d h h h f f ",
"s p u i 3 1 , < 3 t q y i u a s s s s p p i f s s f f s 9 < : 2 0 a r r w w w w e i r y r 8 2 : > 5 y s h d f p f f i y f f f f ",
"5 3 3 3 1 3 , > 3 4 9 4 9 9 6 6 6 5 3 3 1 3 3 3 3 4 8 8 4 < > 1 9 7 6 3 3 2 2 < , , , , < , > ; - > , 2 5 e e 5 3 1 , > 2 e e 8 ",
"1 < < , < , > : > < , < 1 < , > ; ; - ; - - - ; ; - ; ; ; ; ; , 2 < < < , , < < > ; ; ; - ; ; ; ; ; : : ; ; ; - = = - - = - > > "
};
