/* XPM */
static char *_c9d85f063644944f7984dfcde9e032cPQFuLRWI5wztksPh[] = {
/* columns rows colors chars-per-pixel */
"64 64 28 1 ",
"  c #2B2B2A",
". c #2F2F2D",
"X c #393836",
"o c #30302D",
"O c #31312F",
"+ c #323131",
"@ c #2C2C2B",
"# c #2C2C2A",
"$ c #30302E",
"% c #2F2F2E",
"& c #313030",
"* c #31302F",
"= c #302F2D",
"- c #31302E",
"; c gray17",
": c #363634",
"> c #353534",
", c #323231",
"< c #353433",
"1 c #32312F",
"2 c #2E2E2C",
"3 c #2E2E2D",
"4 c #31312E",
"5 c #323130",
"6 c #33332F",
"7 c #2D2D2B",
"8 c #32322F",
"9 c black",
/* pixels */
"                                             .XXXXXXX.          ",
"                                             .XXXXXXX.          ",
"                                             .XXXXXXX.          ",
"                                             oXXXXXXXo          ",
"                                             OXXXXXXX+          ",
"                                            @XXXXXXXXX#         ",
"$$$$$$$$$$$$$$$$$$$$$$$$$$$$$$$$$$$$$$$$$$$+XXXXXXXXXXX+$$$$$$$$",
"XXXXXXXXXXXXXXXXXXXXXXXXXXXXXXXXXXXXXXXXXXXXXXXXXXXXXXXXXXXXXXXX",
"XXXXXXXXXXXXXXXXXXXXXXXXXXXXXXXXXXXXXXXXXXXXXXXXXXXXXXXXXXXXXXXX",
"XXXXXXXXXXXXXXXXXXXXXXXXXXXXXXXXXXXXXXXXXXXXXXXXXXXXXXXXXXXXXXXX",
"XXXXXXXXXXXXXXXXXXXXXXXXXXXXXXXXXXXXXXXXXXXXXXXXXXXXXXXXXXXXXXXX",
"XXXXXXXXXXXXXXXXXXXXXXXXXXXXXXXXXXXXXXXXXXXXXXXXXXXXXXXXXXXXXXXX",
"XXXXXXXXXXXXXXXXXXXXXXXXXXXXXXXXXXXXXXXXXXXXXXXXXXXXXXXXXXXXXXXX",
"XXXXXXXXXXXXXXXXXXXXXXXXXXXXXXXXXXXXXXXXXXXXXXXXXXXXXXXXXXXXXXXX",
"%%%%%%%%&XXXXXXXXXXX&%%%%%%%%%%%%%%%%%%%%%%%%%%%%%%%%%%%%%%%%%%%",
"         @XXXXXXXXX#                                            ",
"          *XXXXXXX+                                             ",
"          =XXXXXXX=                                             ",
"          .XXXXXXX.                                             ",
"          .XXXXXXX.                                             ",
"          .XXXXXXX.                                             ",
"          .XXXXXXX.                                             ",
"          .XXXXXXX.                                             ",
"          .XXXXXXX.                                             ",
"          .XXXXXXX.                                             ",
"          %XXXXXXX-                                             ",
"         ;:XXXXXXX>                                             ",
"        @,XXXXXXXXX,@                                           ",
"XXXXXXXXXXXXXXXXXXXXXXXXXXXXXXXXXXXXXXXXXXXXXXXXXXXXXXXXXXXXXXXX",
"XXXXXXXXXXXXXXXXXXXXXXXXXXXXXXXXXXXXXXXXXXXXXXXXXXXXXXXXXXXXXXXX",
"XXXXXXXXXXXXXXXXXXXXXXXXXXXXXXXXXXXXXXXXXXXXXXXXXXXXXXXXXXXXXXXX",
"XXXXXXXXXXXXXXXXXXXXXXXXXXXXXXXXXXXXXXXXXXXXXXXXXXXXXXXXXXXXXXXX",
"XXXXXXXXXXXXXXXXXXXXXXXXXXXXXXXXXXXXXXXXXXXXXXXXXXXXXXXXXXXXXXXX",
"XXXXXXXXXXXXXXXXXXXXXXXXXXXXXXXXXXXXXXXXXXXXXXXXXXXXXXXXXXXXXXXX",
"XXXXXXXXXXXXXXXXXXXXXXXXXXXXXXXXXXXXXXXXXXXXXXXXXXXXXXXXXXXXXXXX",
"XXXXXXXXXXXXXXXXXXXXXXXXXXXXXXXXXXXXXXXXXXXXXXXXXXXXXXXXXXXXXXXX",
"                                           #,XXXXXXXXX+#        ",
"                                             :XXXXXXX<          ",
"                                             -XXXXXXX-          ",
"                                             .XXXXXXX.          ",
"                                             .XXXXXXX.          ",
"                                             .XXXXXXX.          ",
"                                             .XXXXXXX.          ",
"                                             .XXXXXXX.          ",
"                                             .XXXXXXX.          ",
"                                             .XXXXXXX.          ",
"                                             =XXXXXXX=          ",
"                                             *XXXXXXX1          ",
"                                            @XXXXXXXXX@         ",
"22222222222222222222222222222222222222222231XXXXXXXXXXX432222222",
"XXXXXXXXXXXXXXXXXXXXXXXXXXXXXXXXXXXXXXXXXXXXXXXXXXXXXXXXXXXXXXXX",
"XXXXXXXXXXXXXXXXXXXXXXXXXXXXXXXXXXXXXXXXXXXXXXXXXXXXXXXXXXXXXXXX",
"XXXXXXXXXXXXXXXXXXXXXXXXXXXXXXXXXXXXXXXXXXXXXXXXXXXXXXXXXXXXXXXX",
"XXXXXXXXXXXXXXXXXXXXXXXXXXXXXXXXXXXXXXXXXXXXXXXXXXXXXXXXXXXXXXXX",
"XXXXXXXXXXXXXXXXXXXXXXXXXXXXXXXXXXXXXXXXXXXXXXXXXXXXXXXXXXXXXXXX",
"XXXXXXXXXXXXXXXXXXXXXXXXXXXXXXXXXXXXXXXXXXXXXXXXXXXXXXXXXXXXXXXX",
"XXXXXXXXXXXXXXXXXXXXXXXXXXXXXXXXXXXXXXXXXXXXXXXXXXXXXXXXXXXXXXXX",
"$$$$$$$$5XXXXXXXXXXX6$$$$$$$$$$$$$$$$$$$$$$$$$$$$$$$$$$$$$$$$$$$",
"         #XXXXXXXXX7                                            ",
"          8XXXXXXX+                                             ",
"          oXXXXXXXo                                             ",
"          .XXXXXXX.                                             ",
"          .XXXXXXX.                                             ",
"          .XXXXXXX.                                             "
};
