/* XPM */
static char *bbcf6e36cea240c7b9ef566760547b62n0Nmstdxe8QrjnFR[] = {
/* columns rows colors chars-per-pixel */
"32 32 144 2 ",
"   c None",
".  c black",
"X  c #010000",
"o  c #010101",
"O  c #020101",
"+  c #030101",
"@  c #050201",
"#  c #040202",
"$  c #050302",
"%  c #070302",
"&  c #060303",
"*  c #070403",
"=  c #050305",
"-  c #040404",
";  c #070404",
":  c #060406",
">  c #070607",
",  c #070707",
"<  c #080402",
"1  c #090403",
"2  c #080503",
"3  c #080404",
"4  c #090504",
"5  c #0A0504",
"6  c #0B0604",
"7  c #090606",
"8  c #0B0606",
"9  c #0D0504",
"0  c #0C0604",
"q  c #0C0605",
"w  c #0E0605",
"e  c #0E0606",
"r  c #0F0806",
"t  c #080708",
"y  c #100806",
"u  c #110807",
"i  c #100907",
"p  c #130907",
"a  c #150A09",
"s  c #160B09",
"d  c #1A0C09",
"f  c #1B0C09",
"g  c #1B0D0A",
"h  c #1C0D0A",
"j  c #1C0F0B",
"k  c #111011",
"l  c #1B181B",
"z  c #1C191C",
"x  c #210F0B",
"c  c #26110D",
"v  c #27120F",
"b  c #28130E",
"n  c #2B1713",
"m  c #2C1611",
"M  c #2E1713",
"N  c #2F1813",
"B  c #311813",
"V  c #292529",
"C  c #2A262A",
"Z  c #302C30",
"A  c #373137",
"S  c #373237",
"D  c #393439",
"F  c #431F17",
"G  c #441F17",
"H  c #442017",
"J  c #472119",
"K  c #482118",
"L  c #492219",
"P  c #4A2219",
"I  c #4D241B",
"U  c #4A241D",
"Y  c #4F251D",
"T  c #4D271F",
"R  c #50271E",
"E  c #52271E",
"W  c #54281F",
"Q  c #58291E",
"!  c #5B2A1F",
"~  c #4B2821",
"^  c #4D2922",
"/  c #572A21",
"(  c #562B23",
")  c #512C24",
"_  c #592B22",
"`  c #5D3329",
"'  c #613027",
"]  c #693124",
"[  c #623128",
"{  c #643229",
"}  c #653329",
"|  c #6B3328",
" . c #6D3529",
".. c #6C3B2F",
"X. c #703426",
"o. c #713427",
"O. c #7C392A",
"+. c #6D3C30",
"@. c #753A30",
"#. c #7B3D32",
"$. c #463F46",
"%. c #474047",
"&. c #625862",
"*. c #843D2D",
"=. c #853E2D",
"-. c #883F2E",
";. c #894233",
":. c #8C4131",
">. c #8D4230",
",. c #894234",
"<. c #884337",
"1. c #8A4538",
"2. c #8E473A",
"3. c #904333",
"4. c #924534",
"5. c #954736",
"6. c #964736",
"7. c #984837",
"8. c #964839",
"9. c #93493C",
"0. c #964A3D",
"q. c #9D4B39",
"w. c #A04C3B",
"e. c #A04D3C",
"r. c #A14D3D",
"t. c #A34F3D",
"y. c #A34E3E",
"u. c #A44F3E",
"i. c #935041",
"p. c #955142",
"a. c #965242",
"s. c #975242",
"d. c #9A5444",
"f. c #A25848",
"g. c #BB5D4C",
"h. c #BD604E",
"j. c #BE614E",
"k. c #BE614F",
"l. c #C06251",
"z. c #C46754",
"x. c #C76B56",
"c. c #C96E59",
"v. c #CA6E58",
"b. c #CA6E59",
/* pixels */
"                            7 y y 7                             ",
"                            s M N s                             ",
"                              [ [                               ",
"                              ' '                               ",
"                              ' #.                              ",
"                    , =       ' g.      = ,                     ",
"        .         t .         ' @.        . ,         .         ",
"          .       . t         [ '         , .       .           ",
"          .       z ,   .     { {     .   , l       .           ",
"            .     S ,   . . 0 9.9.y . .   , D     .             ",
"            .     Z V . . n d.j.g.2.B . . C &.    .             ",
"            .     k %.& s.b.b.b.z.j.g.1.7 $.S     .             ",
"            .     t 7 f.b.b.b.b.b.b.k.g.0.0 t     .             ",
"              .   . ) b.b.b.b.b.b.b.b.k.g.T &   .               ",
"                . & i.b.b.b.b.b.b.b.b.x.g.<.7 .                 ",
"                  0 ` ....+.s.b.b.s.+.+.{ ( y                   ",
"                & m Q ! E P f T ^ j / ( I G b 1                 ",
"          . . . & o.y.y.t.7.=.f g r.t.r.6.-.! 1 . . .           ",
"          .     9 | t.f.t.w.-.G E y.t.t.6.-.! a     .           ",
"          .     0  .t.t.t.w.-.P Q f.t.t.6.-.! a     .           ",
"        .       y  .f.y.t.w.-.P Q y.u.u.7.-.! a       .         ",
"        .       0 | y.y.t.w.-.G / y.u.u.6.-.! a       .         ",
"      . .       1 X.y.y.u.y.-.P / u.u.u.6.-.! 9       . .       ",
"              . . X.u.u.u.y.-.P / t.u.u.6.-.Q & .               ",
"              . & _ t.f.y.w.-.G ! y.t.t.4.-.I 1 .               ",
"              .   b t.t.y.w.-.P Q f.t.t.:.-.c   .               ",
"              .   1 <.t.u.w.-.G / y.t.q.-.X.0   .               ",
"              .     B t.u.y.-.G / y.t.>.*.f     .               ",
"                .     ;.8.w.-.P / y.-.*.x y   .                 ",
"                .       1 U ] G E o.G 9       .                 ",
"              . .         1 y 7 0 y 9         . .               ",
"            . .                                 . .             "
};
