/* XPM */
static char *c1ef56c09c9f409783b13718f7e9115atZ2ga9DiBLcdSQlW[] = {
/* columns rows colors chars-per-pixel */
"64 64 211 2 ",
"   c None",
".  c black",
"X  c #4A1B0D",
"o  c #572504",
"O  c #41241D",
"+  c #522214",
"@  c #5E311A",
"#  c #5F371D",
"$  c #622E0E",
"%  c #6F3903",
"&  c #6E3308",
"*  c #6D3709",
"=  c #633512",
"-  c #6C3C19",
";  c #482A23",
":  c #4A3127",
">  c #7F4608",
",  c #6F4418",
"<  c #774B1F",
"1  c #5D4232",
"2  c #76502D",
"3  c #7F5728",
"4  c #795833",
"5  c #6B4F40",
"6  c #7A624A",
"7  c #8E4C00",
"8  c #804709",
"9  c #8D5704",
"0  c #875209",
"q  c #8D520D",
"w  c #915405",
"e  c #865112",
"r  c #8F5E15",
"t  c #9A6717",
"y  c #976A17",
"u  c #9D6A1A",
"i  c #B76E00",
"p  c #B97500",
"a  c #BD7E00",
"s  c #845C2D",
"d  c #A07E2F",
"f  c #C55D00",
"g  c #CA6704",
"h  c #CE6A00",
"j  c #CC7400",
"k  c #CD7500",
"l  c #CE7C04",
"z  c #C07B09",
"x  c #DC7C00",
"c  c #CA7910",
"v  c #8E7143",
"b  c #917344",
"n  c #9A7C4D",
"m  c #9B7D4E",
"M  c #937E5E",
"N  c #917E64",
"B  c #AC821D",
"V  c #AF841F",
"C  c #A88425",
"Z  c #B89223",
"A  c #BB9425",
"S  c #AB8D35",
"D  c #A1803E",
"F  c #BC9C34",
"G  c #B1933A",
"H  c #B7983F",
"J  c #B99A3A",
"K  c #BCA238",
"L  c #CD8600",
"P  c #C48A07",
"I  c #D68200",
"U  c #D58700",
"Y  c #DD8205",
"T  c #D38B03",
"R  c #D98A00",
"E  c #DE8900",
"W  c #D88F00",
"Q  c #DE8E00",
"!  c #D0830D",
"~  c #D4810E",
"^  c #CD9708",
"/  c #CC9C0E",
"(  c #D79400",
")  c #DB9200",
"_  c #DD9400",
"`  c #DE9A06",
"'  c #D39108",
"]  c #D5930C",
"[  c #D3970F",
"{  c #D6940F",
"}  c #DC9E09",
"|  c #CE8D13",
" . c #D18912",
".. c #C59110",
"X. c #D79A15",
"o. c #D99C18",
"O. c #E58800",
"+. c #E68A00",
"@. c #E48E01",
"#. c #E09000",
"$. c #E19706",
"%. c #E89100",
"&. c #E19C00",
"*. c #E29D00",
"=. c #E39E00",
"-. c #E99800",
";. c #EA9E00",
":. c #E3990B",
">. c #D9A10A",
",. c #DAA20C",
"<. c #DBA30F",
"1. c #D2A117",
"2. c #D9A711",
"3. c #DCA411",
"4. c #DDA513",
"5. c #DFA615",
"6. c #D5A910",
"7. c #D7AB14",
"8. c #DAA813",
"9. c #DBA915",
"0. c #DDAA17",
"q. c #D8A11C",
"w. c #DFAD1B",
"e. c #DBBB15",
"r. c #DCBC17",
"t. c #D5B51C",
"y. c #DDB11D",
"u. c #E2A300",
"i. c #E7A100",
"p. c #E0A700",
"a. c #E6A605",
"s. c #E7A707",
"d. c #E8A201",
"f. c #ECA500",
"g. c #EAA407",
"h. c #EAAA00",
"j. c #E8AE00",
"k. c #E4AB08",
"l. c #E1AE08",
"z. c #E5AC0B",
"x. c #E7B300",
"c. c #E5B700",
"v. c #EBB100",
"b. c #EDB200",
"n. c #EBB603",
"m. c #EFBF00",
"M. c #E3B00E",
"N. c #E7BF0E",
"B. c #EABB0A",
"V. c #EDB80A",
"C. c #EEB90D",
"Z. c #EBBC0D",
"A. c #F1BB00",
"S. c #E0A717",
"D. c #E0AE1C",
"F. c #E4B111",
"G. c #E5B213",
"H. c #E0BF1C",
"J. c #C09820",
"K. c #C29A23",
"L. c #C6A320",
"P. c #C7A421",
"I. c #C8AB27",
"U. c #CCAE2B",
"Y. c #D9A721",
"T. c #DCA420",
"R. c #DDAC26",
"E. c #DFB320",
"W. c #C0A533",
"Q. c #C1A634",
"!. c #E0B422",
"~. c #E3B624",
"^. c #E4B726",
"/. c #E5B827",
"(. c #E4BD2B",
"). c #EABC2D",
"_. c #EDC300",
"`. c #E8C500",
"'. c #E9C600",
"]. c #EDCA06",
"[. c #F0C705",
"{. c #F4C405",
"}. c #F1C809",
"|. c #E7C516",
" X c #E8C011",
".X c #F4CA10",
"XX c #EAC225",
"oX c #EDC528",
"OX c #EEC62A",
"+X c #EFC72B",
"@X c #EAC92A",
"#X c #EDCB2D",
"$X c #EECC2F",
"%X c #F0C82D",
"&X c #E9C130",
"*X c #EFCD30",
"=X c #F1CF33",
"-X c #99814F",
";X c #A38240",
":X c #A28743",
">X c #A68B47",
",X c #A88D49",
"<X c #AD914C",
"1X c #AE924D",
"2X c #B49644",
"3X c #B59D42",
"4X c #B99A41",
"5X c #A48B53",
"6X c #A18957",
"7X c #A28A58",
"8X c #938065",
/* pixels */
"                                                                                                                                ",
"                                                                                                                                ",
"                                                                                                                                ",
"                                                                                                                                ",
"                                                                                                                                ",
"                                                                                                                                ",
"                                                                                                                                ",
"                                                                                                                                ",
"                                                                                                                                ",
"                                                                                                                                ",
"                                                                                                                                ",
"                                                                                                                                ",
"                                                  . . . . . . . . . . . . . .                                                   ",
"                                            . . . N 7X1X2X3XC 8 8 C 3X2X,X2 O . . .                                             ",
"                                        . . 6 + o d Q.U.t.r.l.L L l.H.t.L.t & , b 8X. .                                         ",
"                                      . 8X5X<Xy 7 P  X_..X.Xv.@.@.b..X.Xv.( p B F <X5X8X.                                       ",
"                                    . 8X6X4XU.7.R %.V.m.Z.c.` h h ` c.c.:.+.-.v.r.U.4X7X8X.                                     ",
"                                  . : n K t.'._.i.Y { D.0.9.3.! ! 3.9.5.! g Q C.[.'.t.K n : .                                   ",
"                                . : X e 7.].}.B.4.o.4.Y.T.T.T.T.T.T.T.o.[ | } F.Z.}.].7.e X : .                                 ",
"                              . 8Xn e i _ C.c.D.9.Y.T.T.T.T.T.T.T.T.T.T.T.T.Y.2.D.c.A.*.i e n N .                               ",
"                            . 8X6XK 7._ x U 0.4.T.T.T.T.T.T.T.T.T.T.T.T.T.T.T.T.4.0.p.*.&.7.K 6X8X.                             ",
"                            . 5X4Xt.].C.U ,.Y.T.T.T.T.T.T.T.T.T.T.T.T.T.T.T.T.T.T.Y.S.p.A.].t.4X5X.                             ",
"                          . 8X<XU.'.}.c.0.Y.T.T.T.T.T.T.T.T.T.T.T.T.T.T.T.T.T.T.T.T.Y.0.c.}.'.U.>X1 .                           ",
"                          . v J e.[.Z.D.4.T.T.T.T.T.T.T.T.T.T.T.T.T.T.T.T.T.T.T.T.T.T.4.D.B.m./ 0 + .                           ",
"                          . - B c.V.l.8.T.T.T.T.T.T.T.T.T.T.T.Y.Y.T.T.T.T.T.T.T.T.T.T.T.8.M.b.) 7 = .                           ",
"                        . O & p -.E ' Y.T.T.T.T.T.T.T.T.T.Y.w.!.!.w.Y.T.T.T.T.T.T.T.T.T.Y.0.j.h./ S 8X.                         ",
"                        . 4 u ( +.f c q.T.T.T.T.T.T.T.T.T.w.(.XXXX(.w.T.T.T.T.T.T.T.T.T.T.8.M.{.|.Q.7X.                         ",
"                        . ,XP.n.*.j | T.T.T.T.T.T.T.T.T.Y.E.XX#X#XXX!.Y.T.T.T.T.T.T.T.T.T.Y.D._._.U.<X.                         ",
"                        . 2Xt..Xn.>.T.T.T.T.T.Y.Y.T.T.T.Y.!.XX#X*XXX!.Y.T.T.T.Y.Y.T.T.T.T.T.0.Z..XE.<X.                         ",
"                        . 3XH..Xc.9.T.T.T.Y.w.!.!.w.Y.T.T.y.&X*X*X&Xw.T.T.Y.w.!.!.w.Y.T.T.T.9.c..X|.3X.                         ",
"                        . C l.v.` ,.T.T.T.D.(.XXXX(.y.T.T.Y.y./.^.y.Y.T.Y.w.(.XXXX(.w.T.T.T.4.p.b.l.C .                         ",
"                        . 8 L @.h ! T.T.Y.!.XX#X#XXX!.Y.T.T.T.Y.Y.T.T.T.Y.!.XX#X#XXX!.Y.T.T.X.I @.L 8 .                         ",
"                        . 8 L @.h ! T.T.Y.!.XX#X#XoX!.Y.q.Y.Y.R.R.Y.T.T.Y.E.XX*X#XXX!.Y.T.T.X.I @.L 8 .                         ",
"                        . C l.b.` 2.T.T.T.D./.XXXX&XD.T.T.0.(.OXOX(.0.T.T.w.&XOXXX(.w.T.T.T.4.p.b.l.C .                         ",
"                        . 3XH..Xc.4.T.T.T.Y.D.!.E.y.Y.T.Y.(.#X=X*X#X(.Y.T.Y.E.!.E.w.Y.T.T.T.9.c..XH.3X.                         ",
"                        . 2Xt..XZ.0.T.T.T.T.T.Y.Y.T.T.T.Y.(.+X*X*X#X(.Y.T.T.T.Y.Y.T.T.T.T.q.4.x._.t.2X.                         ",
"                        . 1XU._._.D.Y.T.T.T.T.T.T.q.Y.Y.D.XX%X=X=X*XXXw.Y.Y.T.T.T.T.T.T.T.q.T $.a.J.D .                         ",
"                        . 7XQ.|.A.k.4.T.T.T.T.T.T.w.(.(.XXOX=X=X=X=XOXXX).(.0.T.T.T.T.T.T.q.~ @.T q @ .                         ",
"                        . N G ^ ;.*.4.Y.T.T.T.T.Y.^.OXOX=X=X#X#X*X#X=X*XOXOX/.Y.T.T.T.T.Y.0.z.f.a % O .                         ",
"                          . $ 7 R i.l.8.T.T.T.T.Y.).#X#X=X=X#X!.E.#X=X=X*XOX).Y.T.T.T.T.9.G.m.N.A s .                           ",
"                          . + r 1.m.B.w.4.Y.T.T.9.).OX#X=X#X+X0.R.OX*X*X*XOX(.9.T.T.T.4.w.Z.[.r.K -X.                           ",
"                          . 5 1XU.'.}.c.0.Y.T.T.Y.^.OX@XOXOX(.Y.Y.(.oX@X@XOX!.Y.T.T.Y.0.c.}.'.U.<X8X.                           ",
"                            . 5X4Xt.].A.p.S.Y.T.T.0.^.(.).^.0.T.T.0.!.).)./.0.T.T.Y.S.p.A.].t.4X5X.                             ",
"                            . 8X6XK 7.*.=.p.0.4.T.T.Y.9.9.Y.q.T.T.Y.Y.0.4.Y.T.Y.4.0.p.*.*.7.K 7X8X.                             ",
"                              . N n e i &.A.c.w.9.Y.q.T.T.T.T.T.T.T.T.T.T.T.Y.9.D.c.A.&.i e n 8X.                               ",
"                                . : X e 9.].}.Z.F.4.] X.q.T.T.T.T.T.T.T.Y.8.4.k.B.}.].9.e X : .                                 ",
"                                  . : m K t.'.].m.u.j l <.0.4.X.X.4.4.0.w.M.s.d.c.`.t.K n : .                                   ",
"                                    . N 6X4XU.r.N.g.+.Q n.c.p.I I p.c.Z._.{.h.R ..I.4X6XN .                                     ",
"                                      . 8X5X<XK Z a T z.]..Xv.#.@.b..X.X_.`.6.w > :X5X8X.                                       ",
"                                        . . 8Xn s * 9 K.E.|.2.L L l.H.t.U.Q.4X< + ; . .                                         ",
"                                            . . . O # n 2X4XC 8 8 C 3X2X<X7X8X. . .                                             ",
"                                                  . . . . . . . . . . . . . .                                                   ",
"                                                                                                                                ",
"                                                                                                                                ",
"                                                                                                                                ",
"                                                                                                                                ",
"                                                                                                                                ",
"                                                                                                                                ",
"                                                                                                                                ",
"                                                                                                                                ",
"                                                                                                                                ",
"                                                                                                                                ",
"                                                                                                                                ",
"                                                                                                                                "
};
