/* XPM */
static char *be4e777722a941f094cf565c7a20d2e2uaB3BqZukJbRVDP6[] = {
/* columns rows colors chars-per-pixel */
"64 64 244 2 ",
"   c #010302",
".  c #060805",
"X  c #0B0A06",
"o  c #050A0C",
"O  c #0B0D0C",
"+  c #120C07",
"@  c #0E110D",
"#  c #13130E",
"$  c #1A1609",
"%  c #0D0F10",
"&  c #0D1213",
"*  c #0E171A",
"=  c #131413",
"-  c #191613",
";  c #151916",
":  c #1B1A15",
">  c #121719",
",  c #151A1B",
"<  c #1B1B1A",
"1  c #270000",
"2  c #351103",
"3  c #221F16",
"4  c #201F1C",
"5  c #152119",
"6  c #1E211C",
"7  c #262602",
"8  c #232116",
"9  c #22211D",
"0  c #29271E",
"q  c #2C291E",
"w  c #051627",
"e  c #151D22",
"r  c #1A1E21",
"t  c #251620",
"y  c #0F272E",
"u  c #1C2224",
"i  c #182428",
"p  c #1C252A",
"a  c #1D2A31",
"s  c #262522",
"d  c #282723",
"f  c #262821",
"g  c #2B2925",
"h  c #242729",
"j  c #242B2D",
"k  c #2B2C2A",
"l  c #322D24",
"z  c #322E29",
"x  c #2D322D",
"c  c #3A3427",
"v  c #34322C",
"b  c #252D32",
"n  c #292F31",
"m  c #2C3234",
"M  c #253239",
"N  c #2B3538",
"B  c #2D353A",
"V  c #323434",
"C  c #393733",
"Z  c #3C3934",
"A  c #323639",
"S  c #343A3C",
"D  c #3A3C3C",
"F  c #462F0F",
"G  c #463B2B",
"H  c #523C29",
"J  c #413C32",
"K  c #433D37",
"L  c #374436",
"P  c #53472E",
"I  c #4A4338",
"U  c #534533",
"Y  c #55493B",
"T  c #695424",
"R  c #67523A",
"E  c #2B3346",
"W  c #353D42",
"Q  c #3C3E41",
"!  c #413E41",
"~  c #3D4244",
"^  c #384549",
"/  c #3C444C",
"(  c #30544E",
")  c #3C4651",
"_  c #3B4A54",
"`  c #3E4A54",
"'  c #424444",
"]  c #4E4B41",
"[  c #414649",
"{  c #444A4D",
"}  c #4A4C4C",
"|  c #534D47",
" . c #5D584B",
".. c #434C55",
"X. c #4A4E53",
"o. c #444E59",
"O. c #4A4F5A",
"+. c #4D5254",
"@. c #46515B",
"#. c #4C555A",
"$. c #4C545B",
"%. c #525556",
"&. c #5F5F57",
"*. c #52565A",
"=. c #555A5D",
"-. c #5A5C5D",
";. c #695747",
":. c #775D47",
">. c #5D6657",
",. c #77674A",
"<. c #696456",
"1. c #766A5A",
"2. c #4C5661",
"3. c #4E5962",
"4. c #515863",
"5. c #545C63",
"6. c #5A5E62",
"7. c #566066",
"8. c #5D6265",
"9. c #59656B",
"0. c #5C646A",
"q. c #5B6D74",
"w. c #626566",
"e. c #686B65",
"r. c #62666A",
"t. c #646A6C",
"y. c #6A6B6D",
"u. c #72736A",
"i. c #656D72",
"p. c #6A6E71",
"a. c #636D7A",
"s. c #6C7275",
"d. c #677678",
"f. c #6C737A",
"g. c #727476",
"h. c #73767A",
"j. c #767A7A",
"k. c #7B7C7D",
"l. c #8E6C2F",
"z. c #8C704D",
"x. c #88784C",
"c. c #877859",
"v. c #A67C4E",
"b. c #897A6B",
"n. c #EA7253",
"m. c #7C8271",
"M. c #65D162",
"N. c #928357",
"B. c #AB8D5A",
"V. c #93896B",
"C. c #979569",
"Z. c #83827C",
"A. c #AF9671",
"S. c #AFAC77",
"D. c #C49D65",
"F. c #C7B574",
"G. c #E9F078",
"H. c #547886",
"J. c #667C85",
"K. c #737D83",
"L. c #7A7D82",
"P. c #6043F1",
"I. c #5B8699",
"U. c #6E868B",
"Y. c #7C8385",
"T. c #788487",
"R. c #648E9A",
"E. c #68939A",
"W. c #749599",
"Q. c #5D92A9",
"!. c #6F95A1",
"~. c #6897A6",
"^. c #75ACB7",
"/. c #71B2C4",
"(. c #78C9ED",
"). c #7AD6F4",
"_. c #5DF8EB",
"`. c #7CE4FE",
"'. c #838484",
"]. c #8B8985",
"[. c #83858A",
"{. c #85898C",
"}. c #8B8B8C",
"|. c #928F8A",
" X c #82918D",
".X c #93928D",
"XX c #9C998B",
"oX c #8D8F91",
"OX c #8A9291",
"+X c #929393",
"@X c #9C9A94",
"#X c #959698",
"$X c #9B9B9A",
"%X c #B49D83",
"&X c #A09E98",
"*X c #BAA987",
"=X c #A4A29B",
"-X c #A9A59A",
";X c #9B9FA3",
":X c #A09FA0",
">X c #99A5A7",
",X c #92ACB3",
"<X c #88B3B9",
"1X c #A5A5A3",
"2X c #ADAAA4",
"3X c #A6A8AA",
"4X c #B2ADA4",
"5X c #B1AEA9",
"6X c #B4B2AC",
"7X c #BCBAAE",
"8X c #B7B7B4",
"9X c #C1BBAE",
"0X c #C2BEB3",
"qX c #BDC683",
"wX c #CDD88E",
"eX c #D4E39B",
"rX c #C6C1B6",
"tX c #D0C8B9",
"yX c #E9DEAF",
"uX c #EDE6B0",
"iX c #8BB2CB",
"pX c #ACBFC0",
"aX c #97CCD6",
"sX c #A4CBD0",
"dX c #B1E0DE",
"fX c #88D2EC",
"gX c #96DAEA",
"hX c #85DBF6",
"jX c #B0DCE4",
"kX c #86E7FB",
"lX c #96EAF6",
"zX c #93EDFC",
"xX c #8DF6FF",
"cX c #99F3FF",
"vX c #B1E5ED",
"bX c #A7EDF7",
"nX c #A5F4FE",
"mX c #ABF6FE",
"MX c #B7F3FA",
"NX c #F3F3D4",
"BX c #C9EBEF",
"VX c #C7F4FA",
"CX c #D7F8FB",
"ZX c #EBFDF6",
/* pixels */
"d d d d d f f d d 9 0 9 d d d d z g 3 - C p.oX6X9X0X0X6X5X5X4Xg.Z.4XXX|.|.'.2X0X9X7X4X{.y.9 + s g g d g g s d s d g g d s s s t ",
"d g d d s d d d d d g d d g d g t - ! p.6.p.-X6X9X0XrX0X6X2X1Xg.|.9X-X&X|.|.0X0X9X7X4X$Xg.8.y.v - d g g d d d g g g g g d d s g ",
"d d d d s d d d g g g d g g d d K r.oX8X'.Q }.-X4X4X0X0XrX3X:Xg.|.tX0X|.-.9X0X9X4X4X1Xb.Q #X5X}.6.k 4 z g g d d s s d s s s g g ",
"d d d d d d d g d k d k 4 3 3 S h.|.oX6X1X%.y.&X4X6X@X1X6X:X1Xy.XXtX@X) k.8X1X&X6X2X$X-.r.5X3X.X].s.g   - s d g g g d s g g z g ",
"9 d d d d g g s g g z $ Z p.L.X.b.+X#X;X;Xp.} L.}.3X+Xh.[.T.:Xg..X#X4.O.L.}.h.3X:X'.h.X.K.;X$X@X.Xg.6.{.i.t 3 g g g g d s g z g ",
"9 d d 9 d g f d g 3 + X.L.3X8Xh.w.$X3X#X;XL.} r.g.L.oXp.h.h.K.f.r.g.6...p.g.p.oXL.f.6.*.L.;X#X3X@X%.{.rX;XL.! . 4 k k d s s 9 d ",
"d g d d d s s d + Q L.oX$X6X8XoXX.}.;XK.L.L.6.X.t.p.g.y.6.6.6.6.6.y.O.O.6.r.p.p.p.w.O.6.L.L.L.1X[.} #X6X5X#XoXg.V + s s 9 s s s ",
"d d d d d g 9 g 6.'.&X2X3X5X5X&Xr.y.h.6.w.i.6.} 6.p.y.w.5.O.O.6.%.w.O.O.O.6.i.p.t.-.O.r.p.6.8.L.y.y.&X4X5X2X2X$XL.-.g 4 g g g s ",
"g s s g g . Q p.oX&X$X&X|.@X@X&Xh.} 6.6.6.4.5.O.=.r.r.w.4.*.O.*.X.6.O.O.*.=.8.y.t.%.$.5.6.-.=.-.X.k.1X&X@X.X&X&X&X].r.S 3 g d d ",
"g s g g - w.oX[..X&X=X@X'.'.}.].h.O.%.4.*.4.2.O.} 8.-.-.-.4.5.=.! 6.4.6.=.-.7.-.6.{ $.$.4.*.4.O.-.L.].[.k.Z.&X&X&X.X'.oXw.+ g d ",
"s g g c - '.+XZ.Z.+X@X+X'.[.[.Y.L.5.' 2.$.O.O.O.[ [ *.*.X.} { D V Q ! [ { +.%.=.[ { O.o.$.$.$.' i.L.[.[.[.}.+X#X}.b.'.}.L.< g d ",
"g g g z 4 f.[.b.y.j.[.{.oX[.[.L.f.a.{ { O.O.) Q W V S S S S Q ' } } [ ! D S S S n Q / { o.@.[ $.a.L.Y.[.[.+X{.[.g.y.'.[.s.< z g ",
"g g s s s q.g.k.p.r.y.y.p.i.5.o...9.2./ ^ ~ A V V { } } +.%.>.=.*.-.-.%.%.X.{ +.[ V V B ^ / / 5.4.) O.6.i.p.y.y.w.y.j.j.0.< g g ",
"s s s s h 6.8.w.y.w.r.p.r.2.W ..$.5.O.A A V { =.[ =.6.5.=.=.=.&.-.-.-.-.-.-.=.7.O.[ =.' V m W $.4.O...) 5.r.y.w.w.y.e.8.6.h g g ",
"s s g g s 5.4.6.y.r.r.0.0.O.o.O.4.` x ~ ^ { -.*.~ $.*.=.=.5.-.-.-.-.-.-.*.=.4.=.{ ~ -.=.' [ L M O.4.....4.r.r.t.r.y.=.4.4.9 d d ",
"g g s g t 5.4.5.6.5.4.4.5.O.o.o.B x ^ { { { { ^ ~ ..+.*.=.=.=.=.6.6.*.4.=.=.#.+./ Q { { { [ ..~ a Q ....O.5.2.5.5.6.3.3.5.4 d d ",
"d s d d t O.o.@.2.o.` ` ....` b m / { { / / ' ~ W ../ { { { { +.%.+.} { { { { { ^ V ^ ~ ^ ' ^ { Q j B o.O.O.` ..2.2.2.o.@.< d d ",
"s s s d 4 X.*.4.4.O.X.X.X.E & < j j b b m n m j j m m j j n j m N N n j n n n m N j V N V m N A E n e r W ..{ ..O.O.$.$...d d d ",
"d z z g < 5.Y.Y.K.s.i.a.5.n   o   .   o o .   & *   o O i & & # u r ; > i u > > ; i , < : < * * * & %   n 6.i.i.f.K.K.Y.9.< d d ",
"d d d d < +.f.i.i.p.f.s.=.b   o O O % * & & % , i & & = i * & O b u O O i i . O & p % o o * * . o o o   n 6.f.d.a.p.p.s.X.6 g g ",
"d f d d 4 #.t.i.t.i.h.p.*.b   O @ & & 5 > * @ e p : 5 5 p 5 : - M h ; - j i = > > i > ; = u * & = & &   b *.s.f.i.t.p.9.$.s s g ",
"d d d d 4 #.9.y.t.i.d.i.*.n   & & > = i 5 > = p a 6 8 9 j 6 6 8 m a : 6 M j : 5 < a 5 < : h u & = & &   m =.y.i.i.t.i.t.+.< g s ",
"d g l g 5 =.t.i.i.0.r.6.#.N   & > > # j u : : j M 8 9 0 M k l q N x 0 q N j 6 f 6 b s 6 5 j p : ; > =   N *.6.r.9.t.y.9.*.< d d ",
"d g g g : 7.t.i.t.6.5.4.*.N   & # = # M h 5 6 n E l v v B J Z G _ D c c S C c c l N u 6 6 n j < < > >   A *.4.7.8.t.d.t.3.s d d ",
"g d d d : *.i.i.=.=.7.7.4.N   e i a a m j a M N v B E ^ Z ^ [ ' ~ L W Q A v S S B k n M b b b a i i e . A 5.9.5.=.3.s.t.=.6 l f ",
"g g d d < +.t.9.5.5.7.7.3.N   = > 5 6 n f d g x v Y x.l.Y N.A.v.] ;.z.v.,.I ;.U U z l l 0 j k 8 6 : >   S 4.5.9.-.5.9.9.{ 6 g g ",
"d d d d 6 #.8.7.7.7.9.5.3.N . > > 6 < S k f v L / x.A.$X9.iXgXaX8.b.%XB.z.T B.x.<.' H J q D v 8 6 6 <   W 4.5.9.7.7.8.8.+.9 g f ",
"d d d d < #.7.5.5.5.5.3.#.m . > : 6 9 ~ x f c I <.B.hX`.J.).nXcXd./.xXhX^.U.pXD.v.w.G K c D V 0 6 6 , X B 2.5.5.3.7.7.7...9 g f ",
"d h s g 6 ^ ` ) / / / ..^ r O ; < 6 6 ~ k 0 c ` R ,X).hXJ.(.bXbXj./.xXxX/.Q.`.aX%Xu.F H P D v q 9 6 : @ j / ` / W ^ / / ^ 9 g d ",
"s d s f < } <.w.8.*.%.[ Q h % e i b b V M N E 7 } Q.Q.R.4.H.~.~.c.T.~.~.q.7.Q.Q.J.| E ! A S B M M a i > g ~ { +.-.y.w.w.} 4 d d ",
"d d s d : -.{.Y.m.f.p.8.+.x . ; 5 s f v f f Y Q.J.hXhXkXH.(.zXcXu.,XnXkX/.I.kXfXiX;.,.R U Z v l g 9 < @ m %.8.y.h.Y.Y.[.-.: g s ",
"d d d d : *.Y.K.d.f.s.y.*.V   , 6 9 d D m 1 U.).U.kXkXzXU.kXnXbXs.,XmXcX/.R.nXzX(.b.F.,.Y Y I I l 9 6 = V =.y.g.s.s.j.Y.-.4 g d ",
"d d g g : %.Y.K.t.r.y.r.7.V . : 6 9 d ! A 1 /.).W.kXlXbXT.hXnXbXe.<XmXmXaXW.mXcX).u.F.S.R Y I I v d 6 O D 6.e.r.y.9.K.Y.%.< g k ",
"d d d g < *.Y.d.7.0.w.w.w.A . < 6 6 s Q m 1 /.).E.zXnXMXY.gXnXnXe.iXmXMXaXW.mXcXkX7.B.F.:.I Z U P g 6 # D w.w.w.y.7.d.T.-.: g 0 ",
"d d g k : -.d.9.+.8.r.r.w.D   < < 9 s W x + W./.E.xXbXbXd.gXlXlXt.^.mXMXsXI.cXlX`.3.T C.x.Y S U U v 9 - ~ w.r.0.9.@.0.d.=.< g d ",
"d g g z < 5.i.3.@.5.8.t.r.L . i a M b A V V _ H.7.E.!.E.>.I.!.W.=.q.W.!.m.8.~.R.E.+.Y >. .I S S B N p > ' w.r.9.5.o.3.t.=.4 g g ",
"g g g z > 6.0.o.@.5.9.r.w.D . < 6 g f V l j L d.E.cXMXBXK.jXVXMXd.,XVXMXaX XCXvX`.q.,.S.c.Y Z c c l 0 : Q w.r.3.3.@.o.9.=.6 d g ",
"g g d 9 h 9.4.O.4.5.8.8.8.~ . : 8 g 0 D x f v T W.cXVXCXU.vXCXVXd.,XCXCXaXW.CXMXxXU.N.C.N.,.Z G c g l : Q -.8.@.2.2.o.3.0.d d g ",
"9 d d 9 h 6.5.5.6.9.0.8.=.D . < 9 g q L l f l P W.cXVXBXT.vXCXBXd.,XCXCXsX XCXVXkXm.N.S.S.m.S U G l 8 8 S 6.6.o.o.3.3.5.0.g 9 d ",
"d d d d h 9.9.5.8.r.w.6.=.D . < 8 9 0 ' x 8 x F W.mXVXVXU.bXCXCXm.sXCXVXaXW.CXVXlXm.m.qXqX,.I P I l 8 : D -.4.o.o.2.4.9.9.d 9 d ",
"d d d d s 5.0.6.r.p.r.6.-.D O u j x x D V m A F q.gXvXaXq.gXdXBXm.,XBXjXiXd.jXdXfX7.;.C.C. .~ I D C h - D 6.4.o.3.4.5.0.0.h d g ",
"d d d d h d.r.9.r.s.y.w.-.S . ; 5 u k V j j m B Z Z u.XX<.,X<X<Xb.d.^.^.~.<.,X>XOX>.C.m.<.Z S I J z d = D 6.5.2.4.5.9.t.d.g d z ",
"9 d d 0 d t.0.7.8.y.y.w.-.S : z c g : D g 8 0 v D v I V.<.yXNXZXZ.8XZXCXjX{.ZXZXNXm.wXwXC.;.} 2 H R U q D 6.*.O.4.5.5.t.0.s d d ",
"g z k g h 0.t.6.7.t.y.w.6.S : J ;.:.:.} y 5 9 V L z l 6 =.P ,.N.<.N.A.%XA.b.NXNXuXm.wXeXeX*X1.F.F.b.| 4 ! 6.6.3.4.4.7.t.0.s d g ",
"d d d d s q.8.5.=.7.r.8.-.S . ; f I ,.| U G q m Z 0 l Z +.I C w / y     V I ,.V.S.<.yXuXyX*X;.V.;.s < X Q *.6.4.4.4.5.r.0.s d d ",
"d d d g : 5.q.7.4.6.-.*.%.S   : : > < m Y  .Y ' S 8 f g L G I G L Z G c ' W @     ^ z.1.R K n   o 4 < O Q *.*.-.6.4.7.q.4.9 d d ",
"d d g g : ) @./ / ! ' D D V . > < 9 9 N u > : V B 5 u 6 B g g l m k l q S S l c z ^ o     m A g g 4 - O V Q D Q ~ [ { o./ < d d ",
"d g z g : / +.e.e.%.[ %.%.V   = ; : : M f : - j M : 6 6 M h 3 9 B j 9 8 B B 8 g 0 W k f 3 m j : 4 , = . C *.-.} *.e.r.$.W s d d ",
"d g d g 3 ..0.T.Y.y.-.8.8.D   = > = = b r < = p j = , : M e = , b h : - b b 8 9 4 b < < - b b # : = =   ~ w.w.-.y.k.T.0./ d k g ",
"g d f g : ..7.t.y.t.w.w.8.L   X . . . r > O X e p O & # a e % = p r = # i i # = > p ; = O e e O @ O &   ~ w.w.w.r.d.a.5./ g k g ",
"d d g g 4 ..5.q.8.9.t.y.8.S o e p h a h p p r r e < , ; e , > , , , , > e e > e ; , e r r r r r e , <   ' w.t.y.8.8.t.7...s d d ",
"d d d d 3 o.4.9.9.t.t.w.w.Q * b b b b n n b n m b r n N m m m n e i n m n n n b u N m n n m b n b b h & ~ 8.t.y.t.0.0.3./ s 0 d ",
"s d s d 4 ..@.2.q.w.r.w.6.S ; m S Q V n n n n V S r j S S S S N u j S A A A B h n S m n n m A W W S n * Q 8.w.t.0.q.2.` / s s s ",
"s d d d 4 ..` @.4.7.r.r.6.Q > n W W A B V V j j n u j n m A S V u j D S A m n r h b j j n V A W W A b * Q 8.r.r.6.3.@.` / g d d ",
"d d d d : ` @.2.#.*.t.y.w.Q o p u r r r r r r r r < r r r h h j , r j j s r r r e r u u u h h r u r u   ' r.y.r.*.$.2.@./ s g g ",
"d d d g 4 ..` #.2.=.4.w.6.Q   - % = = > = = = = = = = = = = & O = = % = % = = # = # = = # % % % % = =   ' w.8.4.3.2.2.` ) s d d ",
"d s g g 4 ` ) O.2.$.=.=.8.D . < > : : < < > - , : > , , < ; ; < : : < > < : > : : > : < > : : < : > :   ' w.6.*.@.2.o.) ) s d s ",
"d s g k - o._ ..o.@.*.=.8.Q O < < > < : < - < < : : < < < < < ; < : < , < : < : , < < : < < > < < < < + ! 6.*.*.$.o.o.` ) r d s ",
"d d k z : o.O.o...X.+.+.-.D + < < < < < < < < < < 4 < < < < < < < < < < < < < < < < < : < < < < < < < % Q *.%.X.X.o.o.o.) 4 g d ",
"g g d s : O.2.2.*.#.*.+.%.D = s < 4 4 u t 9 r 9 4 t < s t 9 t 9 9 t u 4 r 9 4 t 4 6 t 4 t 4 4 9 r t 4 - D *.O.%.$.*.3.3.X.3 k g ",
"g g s s 4 n V V D Q S C V h - t < 4 < t 4 < r t < < 9 r 9 r 4 < 9 < 4 t 4 9 t < 4 4 4 r < s t 9 4 < 4 < h D D Q Q D W L m 3 l d ",
"d d s g s 4 3 - - - : - : 4 4 s 9 4 9 9 s 9 s 9 s 9 9 9 t s s 9 9 9 s 9 4 9 9 s 4 4 9 9 s < s 9 4 s 9 9 t - # # # - #   + t e 7 ",
"d d s s g g k k s g g k g d s d d s d d d d d d d d d d d d d d s s g s s 9 s s d d d d d s d d d s s d d d d d g g 9 P ( V H E ",
"d d s d s g g s s s g g k d d s d s d s s d d s g d g d d d d g g s s s g c d d d d d d d d s d s d d d g d d d l w T G._.M.n.P."
};
