/* XPM */
static char *_5825c4d3de8450982279b4a0e691f31ZWxqPPMZejxNfW6z[] = {
/* columns rows colors chars-per-pixel */
"64 64 230 2 ",
"   c None",
".  c #37352F",
"X  c #38352F",
"o  c #38362F",
"O  c #38372F",
"+  c #39372F",
"@  c #373530",
"#  c #363630",
"$  c #373630",
"%  c #373631",
"&  c #383530",
"*  c #393530",
"=  c #383531",
"-  c #383630",
";  c #393630",
":  c #383730",
">  c #383631",
",  c #383731",
"<  c #393731",
"1  c #3A3831",
"2  c #393832",
"3  c #3A3832",
"4  c #3B3832",
"5  c #3A3932",
"6  c #3B3932",
"7  c #3B3833",
"8  c #3B3933",
"9  c #3B3A33",
"0  c #3C3833",
"q  c #3C3933",
"w  c #3C3A33",
"e  c #3C3934",
"r  c #3C3A34",
"t  c #3D3B34",
"y  c #3C3A35",
"u  c #3D3B35",
"i  c #3E3B35",
"p  c #3D3B36",
"a  c #3E3C35",
"s  c #3F3C35",
"d  c #3D3C36",
"f  c #3E3C36",
"g  c #3F3C36",
"h  c #3F3D36",
"j  c #3E3C37",
"k  c #3F3C37",
"l  c #3F3D38",
"z  c #3F3E38",
"x  c #403D37",
"c  c #403F37",
"v  c #413E38",
"b  c #413F38",
"n  c #423F38",
"m  c #413F3B",
"M  c #414039",
"N  c #424038",
"B  c #43403A",
"V  c #43413A",
"C  c #42413B",
"Z  c #44413A",
"A  c #44423B",
"S  c #45423B",
"D  c #45433B",
"F  c #46433B",
"G  c #43413C",
"H  c #43423C",
"J  c #44413C",
"K  c #45433C",
"L  c #44423D",
"P  c #46433C",
"I  c #45433E",
"U  c #46433F",
"Y  c #46443C",
"T  c #47453D",
"R  c #48453D",
"E  c #48463E",
"W  c #49463E",
"Q  c #49473E",
"!  c #49473F",
"~  c #4A473F",
"^  c #4A483F",
"/  c #464640",
"(  c #474641",
")  c #484641",
"_  c #4B4840",
"`  c #4B4941",
"'  c #494843",
"]  c #4C4941",
"[  c #4D4A42",
"{  c #4E4A42",
"}  c #4E4B42",
"|  c #4E4B43",
" . c #4A4844",
".. c #4A4944",
"X. c #4B4944",
"o. c #4B4A44",
"O. c #4B4A45",
"+. c #4B4B46",
"@. c #4C4A46",
"#. c #4C4B46",
"$. c #4C4B47",
"%. c #4D4B47",
"&. c #4F4C44",
"*. c #4E4C48",
"=. c #4F4D49",
"-. c #4F4E49",
";. c #504C43",
":. c #504D44",
">. c #514E45",
",. c #524F45",
"<. c #514E46",
"1. c #524E46",
"2. c #535046",
"3. c #535047",
"4. c #545147",
"5. c #545148",
"6. c #555249",
"7. c #565349",
"8. c #56534A",
"9. c #57534A",
"0. c #575449",
"q. c #57544B",
"w. c #51504C",
"e. c #54534E",
"r. c #55544E",
"t. c #56544E",
"y. c #58544B",
"u. c #58554B",
"i. c #58554C",
"p. c #59564C",
"a. c #5A564C",
"s. c #5A574C",
"d. c #5B574D",
"f. c #5B584D",
"g. c #5C584E",
"h. c #5C594E",
"j. c #5D5A4F",
"k. c #555551",
"l. c #565550",
"z. c #565651",
"x. c #585650",
"c. c #585753",
"v. c #5E5A50",
"b. c #5E5B50",
"n. c #5F5B50",
"m. c #5F5B51",
"M. c #595854",
"N. c #5B5B57",
"B. c #5C5C58",
"V. c #5D5C58",
"C. c #5E5C59",
"Z. c #5E5E5A",
"A. c #615B52",
"S. c #615D52",
"D. c #615D53",
"F. c #625E53",
"G. c #625D54",
"H. c #625E54",
"J. c #635F54",
"K. c #615F5C",
"L. c #656055",
"P. c #666257",
"I. c #676257",
"U. c #676358",
"Y. c #676458",
"T. c #60605D",
"R. c #686458",
"E. c #686459",
"W. c #696459",
"Q. c #69655A",
"!. c #6A655A",
"~. c #6A665A",
"^. c #6B675B",
"/. c #6C675B",
"(. c #6D695C",
"). c #6D695D",
"_. c #6E6A5E",
"`. c #6F6A5E",
"'. c #6F6B5F",
"]. c #706C5F",
"[. c #646360",
"{. c #666561",
"}. c #656562",
"|. c #676662",
" X c #686764",
".X c #696764",
"XX c #686865",
"oX c #6B6A67",
"OX c #6B6A68",
"+X c #6B6B68",
"@X c #6C6A68",
"#X c #6C6C69",
"$X c #6D6E6B",
"%X c #6F6E6C",
"&X c #6F6F6D",
"*X c #716B60",
"=X c #706C60",
"-X c #716C60",
";X c #716D61",
":X c #726D61",
">X c #726E61",
",X c #736E62",
"<X c #746F63",
"1X c #757063",
"2X c #757064",
"3X c #767164",
"4X c #777164",
"5X c #767165",
"6X c #777265",
"7X c #787366",
"8X c #70706E",
"9X c #727270",
"0X c #757573",
"qX c #767674",
"wX c #767775",
"eX c #787775",
"rX c #787977",
"tX c #7A7A78",
"yX c #7E7E7C",
"uX c #878887",
"iX c #8B8C8B",
"pX c #8E8F8F",
"aX c #8F9090",
"sX c #909090",
"dX c #909191",
"fX c #919292",
"gX c #929393",
"hX c #939494",
"jX c #949595",
"kX c #959696",
/* pixels */
"  - % X - - - - - - - - - - - - - - - - - - - - - - - - - - - - - - - - - - - - . : % % - - - - - - - - - - - - - - - - - % X   ",
"% - w v v v v v v v v v v v x - 0 J J / p - - - v v v x X p T w - - p v v v v x 1 w T J T z - - - x v v v v v v v v v v w - - X ",
"- w 1X7X7X7X7X7X7X7X7X7X7X7X>X- @.jXkXkX|.- - - 7X7X7XW.- c.kXe.- - ^.7X7X7X7X*X% *.kXkXkX0X% - - >X7X7X7X7X7X7X7X7X7X7X5.- - - ",
"- x 7X7X7X7X7X7X7X7X7X7X7X7X>X- $.kXkXkX@X- - - 7X7X7XW.X c.kXc.- - ^.7X7X7X5X>X+ -.kXkXkX0X% - - >X7X7X7X7X7X7X7X7X7X7Xy.- - - ",
"- x 7X7X7X7X7X7X7X7X7X7X7X7X>X- $.jXkXkX#X- - - 7X*XU.y.- c.kXe.X % ^.7X7X7X7X>XX -.kXkXkX0X- - - >X7X7X7X7X7X7X7X7X7X7Xy.- - - ",
"- x 7X7X7X7X7X7X7X7X7X7X7X7X>X- +.kXkXkX#X- - - 1 - - - - c.kXw.- . . V ] b.].oX. w.kXkXkX0X- - - >X7X7X7X7X7X7X7X7X7X7Xs.+ - - ",
"- x 7X7X7X7X7X7X7X7X7X7X7X7X>X- +.kXkXkX#X- - - - - - - - c.kXe.- - - - + X X F % *.kXkXkX0X- - - >X7X7X7X7X7X7X7X7X7X7Xf.- - - ",
"- x 7X7X7X7X7X7X7X7X7X7X7X7X7Xv 1 wXkXkX#X- - - - - - - - c.kXk.- - - - - + X X 1 *.kXkXkX0X- - - >X7X7X7X7X7X7X7X7X7X7Xh.- - - ",
"- x 7X7X7X7X7X7X7X7X7X7X7X7X7Xy.- 1 rXkX#X- - - - - - - - $.kXc.- - - - - - - - - *.kXkXkX0X% - - >X7X7X7X7X7X7X7X7X7X7Xh.- - - ",
"- x 7X7X7X7X7X7X7X7X7X7X7X5X3.- - - J kX#X- - - - - - - - ` kXB.- - - - - - - - - +.kXkXkX&X- - - >X7X7X7X7X7X7X7X7X7X7Xh.- - - ",
"- x 7X7X7X7X7X7X7X7X7X7X<XT - - - - H kX#X- - - - -     - c.kXB.- -         % 1 - h kXkXsXT - - - <X7X7X7X7X7X7X7X7X7X7Xh.- - - ",
"- x 7X7X7X7X7X7X7X7X7X*XV - - - - % H kX#X- - -         - c.kXB.- -             - #.kXfX+.- - - S 7X7X7X7X7X7X7X7X7X7X7Xg.- -   ",
"- x 7X7X7X7X7X7X7X7X'.h - - - - - - h kX#X- - -         - c.kXB.- -             - *.kX8X+ % - - :.7X7X7X7X7X7X7X7X7X7X7Xg.- -   ",
"- x 7X7X7X7X7X7X7X<XV - - - - - - - 1 kX#X- - -         J rXkXC.- -             . w.kX+X1 X - - - h.7X7X7X7X7X7X7X7X7X7Xg.- - X ",
"- x 7X7X7X7X7X7X7X] - - - - - - - - V kX#X- - -           kXkXB.- -             + *.kX+X. 1 . - - - ^.7X7X7X7X7X7X7X7X7Xh.- - - ",
"- x 7X7X7X7X7X7Xy.X - - - - - -   % H kX+X- - -           sXkXB.- -             % ) kX+X% X %   - - w 5X7X7X7X7X7X7X7X7Xh.- - - ",
"- x 7X7X7X7X7X^.1 % - - - - -     - H gX+.X - -         - C.kXB.- -             - - C.XX- - -     X - ^ 7X7X7X7X7X7X7X7Xg.- - - ",
"- x 7X7X7X7X7XS - - - - - X       - V *.% % - -         - c.kXB.- -               - - 1 - - -       X - A.7X7X7X7X7X7X7Xg.- - - ",
"- x 7X7X7X7XF.- - - - - -         - - - - X -           - c.kXB.- -                 - - - -           - - >X7X7X7X7X7X7Xg.- - - ",
"- x 7X7X7X7Xv - - - - - -         - - - - -             - c.kXC.- -                     +             X - T 7X7X7X7X7X7Xg.- - - ",
"% v 7X7X7XL.X - - - - -               - -               - ) fXC.- -                                     - - h.7X7X7X7X7Xg.- - - ",
"X v 7X7X7X` - - - X -                                   - - *.( - -                                       . p >X7X7X7X7Xg.- - - ",
"- x 7X7X>X1 - - . % X                                     - - - - -                                       - - q.7X7X7X7Xg.- - - ",
"- x 7X5X>X1 - - 1 -                                           -                                             - p <X7X7X7Xg.- - - ",
"- x 7X7X7XL.1 - - -                                                                                         1 - b.7X7X7Xh.- - - ",
"- x 7X7X7X7XU.- -                                                                                             - J 7X7X7Xh.- - - ",
"- x 7X7X7X7X1X- -                                                                                             - - 1X7X7Xh.- - - ",
"- x 7X7X7X7X7X5.- -                                                                                         - - 5.7X7X7Xg.- - - ",
"- x 7X7X7X7X7X7X4.- -                                                                                     X - 1.7X7X7X7Xg.- - - ",
"- x 7X7X7X7X7X7X7X4.- -                                                                                 X - 1.7X7X7X7X7Xg.- - - ",
"- x 7X7X7X7X7X7X7X7X4.- -                                                                             X - 1.7X7X7X7X7X7Xg.- - - ",
"- x 7X7X7X7X7X7X7X7X7Xv - -                                                                         - - 1.7X7X7X7X7X7X7Xg.- - - ",
"- z 7X7X7X7X7X7X7X7X7X:.- - -                                 1                                   - - 1.7X7X7X7X7X7X7X7Xg.X - - ",
"- v 7X7X7X7X7X7X7X7X7X$.- - -                               - - - %                               - X <X7X7X7X7X7X7X7X7Xg.X - - ",
"- x 7X7X7X7X7X7X7X7X7X;.- - -                             X 1 b.1 % +                             - - <X7X7X7X7X7X7X7X7Xh.- - - ",
"- x 7X7X7X7X7X7X7X7X7X;.- - -                             - ^ 7XT . %                             - - >X7X7X7X7X7X7X7X7Xg.- - - ",
"- x 7X7X7X7X7X7X7X7X7X;.X -                               - ^ 7XQ - . %                           - X <X7X7X7X7X7X7X7X7Xg.- - - ",
"- x 7X7X7X7X7X7X7X7X7X;.X p                               - ^ 7X^ - - :                           ; X <X7X7X7X7X7X7X7X7Xg.- - - ",
"- x 7X7X7X7X7X7X7X7X7X:.- 1                               - h 7XQ % % +                           ; - <X7X7X7X7X7X7X7X7Xg.- - - ",
"- x 7X7X7X7X7X7X7X7X7XU.1 - -                           - . F 7XQ % . 1                           ; - <X7X7X7X7X7X7X7X7Xg.- - - ",
"- x 7X7X7X7X7X7X7X7X7X7XH.% -                         % X - ^ 7XQ - - 1                           - - <X7X7X7X7X7X7X7X7Xg.- - - ",
"- x 7X7X7X7X7X7X7X7X7X7Xb.. %                       - 1 h.- ^ 7X) X % O                           % - b.7X7X7X7X7X7X7X7Xg.- - - ",
"- x 7X7X7X7X7X7X7X7X5XH.1 % X %                   - . L.'.. ^ 7Xy.% X 1                         % - - 1 J.7X7X7X7X7X7X7Xg.- - - ",
"- x 7X7X7X7X7X7X7X7XL.1 % F.3.X -                 % S 7X'.. ^ 7X7X} % O                       - - :.H.- X F.7X7X7X7X7X7Xg.- - - ",
"- x 7X7X7X7X7X7X7XL.1 1 F.7X7X4.- -               - T 7X'.- ^ 7X7X'.. .                     - - :.7X7XF.- 1 J.7X7X7X7X7Xg.- - - ",
"- x 7X7X7X7X7X7X7XV . F.7X7X7X7X3.- -             . F 7X'.X ^ 7X7X1XV X -                 - 1 :.7X7X7X7XH.- v 7X7X7X7X7Xg.- - - ",
"- x 7X7X7X7X7X7X5XX N 7X7X7X7X7X7Xw - -           1 F 7X'.. ^ 7X7X7X>Xx - -             - - :.7X7X7X7X7X7XW.^.7X7X7X7X7Xg.- - - ",
"- x 7X7X7X7X7X7X5X. N 7X7X7X7X7X5XS - -           . T 5X'.. ] 7X7X7X7Xh.- - %           - ;.7X7X7X7X7X7X7X7X7X7X7X7X7X7Xg.- - - ",
"- x 7X7X7X7X7X7X7X- v 7X7X7X7X7X7XS X - %         - T 5X7Xq.Y.7X7X7X7XF.- - X         % - Y.7X7X7X7X7X7X7X7X7X7X7X7X7X7Xf.- - - ",
"- x 7X7X7X7X7X7X7Xv _ 7X7X7X7X7X5XS X X -         - T 7X7X7X5X7X7X7X7XF.- - -         - - Y.7X7X7X7X7X7X7X7X7X7X7X7X7X7Xh.- - - ",
"- p 5.5.5.5.a.^.7X7X5X7X7X7X7X7X7XS - - -         - F 7X7X7X7X7X7X7X7XF.- - -         - - Y.7X7X7X7X7X7X7X7X7X7X^.y.q.q.Q - - - ",
"- - - - X % % - 5.7X7X7X7X7X7X7X7XS - - -         . T 7X7X7X7X7X7X7X7XF.- - -         - - Y.7X7X7X7X7X7X7X7X7X5.. X . X - - - - ",
"- - - - - @X9Xv X 3.a.a.a.a.a.a.g.h X - -       % . h a.a.a.a.a.a.a.a.} - - - %       - - :.a.a.a.a.a.a.a.a.4.X - - - - k.0Xh - ",
"- - - - - w.kX|.X - - - - - - - - - X - - - - - - - . 1 X % . 1 - - - - - - - - - - - - X . - - - - - - - - - - - - - - T.kXJ - ",
"- - - - - - yXkXJ - 5.b.b.b.b.b.h.h.F.1.h.h.h.b.b.4.y.b.b.b.b.b.b.b.b.b.b.y.4.b.b.b.b.h.:.F.b.b.b.b.b.b.b.5.- - - - - - T.kXJ - ",
"- - - - - - *.kXwX- S 7X7X7X7X7X7X7X7X7X7X7X7X7X7X7X7X7X7X7X7X7X7X7X7X7X7X7X7X7X7X7X7X7X7X7X7X7X7X7X7X7X7XJ - - - - - - T.kXJ - ",
"- - - - - - % tXkX` - Q Q Q Q a.].7X7X7X7X7X7X7X7X7X7X7X7X7X7X7X7X7X7X7X7X7X7X7X7X7X7X7X7X7X7X'.5.) Q Q J - - - - - - - T.kXJ 1 ",
"- - - - - - - e +.( - - . - - % p ].7X7X7X7X7X7X7X7X7X7X7X7X7X7X7X7X7X7X7X7X7X7X7X7X7X7X7X7X].x - - - - - - - - - - - - T.kXJ % ",
"- - - - - - - - . X - - - k.uXK.% ] 7X7X7X7X7X7X7X7X7X7X7X7X7X7X7X7X7X7X7X7X7X7X7X7X7X7X7X7X] - - - - - - - - - - - - - T.kXJ 1 ",
"- - - - - - - - . % - - - - fXfXH . '.7X7X7X7X7X7X7X7X7X7X7X7X7X7X7X7X7X7X7X7X7X7X7X7X7X7X'.- - - - - - - - - - - - - - }.kXH % ",
"- p @X.X}.[.[.[.[.[.[.}.[.&XkXkX&X- ` 5X7X7X7X7X7X7X7X7X7X7X7X7X7X7X7X7X7X7X7X7X7X7X7X7X7X` X c.|.[.[.[.[.[.[.[.[.[.[.}.iXkXH - ",
"- p fXkXkXkXkXkXkXkXkXkXkXkXkXkXhXJ - ^.7X7X7X7X7X7X7X7X7X7X7X7X7X7X7X7X7X7X7X7X7X7X7X7X^.- J kXkXkXkXkXkXkXkXkXkXkXkXkXkXaXp - ",
"1 - p J J T ( J J ( J J ( J J T T p - 1 v v v v ^.7XF.N v v v v v v v v v v v v v v v v - - p J T J J ) / J J / / J / J J h - - ",
"  - - - - X % - - - - - % - - % - - - - - - - .       . - - - - - - - - - - - - - - - - - - - - - - - - - - - - - - - - - - -   "
};
