/* XPM */
static char *a38d2a4e14f1423deb53872d24fc84bfuocbwsPMBY7sEscc[] = {
/* columns rows colors chars-per-pixel */
"64 64 234 2 ",
"   c None",
".  c #2C3E4F",
"X  c #363F4F",
"o  c #373F4F",
"O  c #393F4E",
"+  c #3B3F4E",
"@  c #3B3F4F",
"#  c #3D3F4E",
"$  c #2B3E50",
"%  c #2C3D50",
"&  c #2C3E50",
"*  c #2D3E50",
"=  c #2C3F50",
"-  c #2D3F50",
";  c #2C3E51",
":  c #2D3E51",
">  c #2C3F51",
",  c #2D3F51",
"<  c #2F3E50",
"1  c #3C404E",
"2  c #2F4253",
"3  c #2F4254",
"4  c #2F4354",
"5  c #304354",
"6  c #304355",
"7  c #304455",
"8  c #304456",
"9  c #324758",
"0  c #334959",
"q  c #33495A",
"w  c #334A5B",
"e  c #34495A",
"r  c #35495A",
"t  c #36495A",
"y  c #354A5B",
"u  c #354B5B",
"i  c #364B5B",
"p  c #344B5C",
"a  c #354B5C",
"s  c #344C5D",
"d  c #364E5E",
"f  c #374F60",
"g  c #395060",
"h  c #3A5161",
"j  c #3B5262",
"k  c #3B5362",
"l  c #3B5363",
"z  c #3C5363",
"x  c #3C5463",
"c  c #3C5563",
"v  c #3C5565",
"b  c #3C5665",
"n  c #3E5665",
"m  c #3E5A6A",
"M  c #3E5B6B",
"N  c #3F5C6B",
"B  c #3E5C6C",
"V  c #3F5C6C",
"C  c #3F5D6C",
"Z  c #3F5C6D",
"A  c #47404D",
"S  c #48414D",
"D  c #4C404C",
"F  c #4D404D",
"G  c #4E414C",
"H  c #57424B",
"J  c #56414C",
"K  c #6A4249",
"L  c #6B4349",
"P  c #724348",
"I  c #734348",
"U  c #724449",
"Y  c #774448",
"T  c #7C4C4D",
"R  c #7D4C4D",
"E  c #6C575F",
"W  c #75565C",
"Q  c #7E565A",
"!  c #78575C",
"~  c #405867",
"^  c #4B5866",
"/  c #4A5966",
"(  c #4B5967",
")  c #4C5965",
"_  c #435B6A",
"`  c #425B6B",
"'  c #475A68",
"]  c #465A69",
"[  c #465B6A",
"{  c #405D6B",
"}  c #405C6C",
"|  c #405D6C",
" . c #405C6D",
".. c #405D6D",
"X. c #415D6D",
"o. c #435E6C",
"O. c #405E6E",
"+. c #415E6E",
"@. c #405F6E",
"#. c #415F6F",
"$. c #425F6E",
"%. c #435F6E",
"&. c #425F6F",
"*. c #435F6F",
"=. c #525762",
"-. c #535762",
";. c #535A66",
":. c #525B67",
">. c #575A65",
",. c #545A66",
"<. c #555A66",
"1. c #6B5760",
"2. c #42606F",
"3. c #43606F",
"4. c #45616E",
"5. c #446271",
"6. c #456371",
"7. c #466270",
"8. c #466370",
"9. c #466271",
"0. c #476371",
"q. c #456372",
"w. c #476470",
"e. c #456472",
"r. c #466472",
"t. c #486371",
"y. c #486674",
"u. c #496876",
"i. c #496976",
"p. c #4A6876",
"a. c #4A6976",
"s. c #4B6976",
"d. c #4B6977",
"f. c #4B6A77",
"g. c #4B6B77",
"h. c #4C6A76",
"j. c #4D6A77",
"k. c #4C6B77",
"l. c #4B6A78",
"z. c #4B6B78",
"x. c #4C6B78",
"c. c #4C6C79",
"v. c #4D6C79",
"b. c #4E6D79",
"n. c #4E6E7A",
"m. c #4F6F7B",
"M. c #4F6F7C",
"N. c #506F7C",
"B. c #506F7D",
"V. c #50707B",
"C. c #50707C",
"Z. c #50717C",
"A. c #51717C",
"S. c #50717D",
"D. c #51717D",
"F. c #52727D",
"G. c #52727E",
"H. c #53727E",
"J. c #52737E",
"K. c #53737E",
"L. c #53737F",
"P. c #52747F",
"I. c #53747F",
"U. c #54747F",
"Y. c #54757F",
"T. c #BF3A2B",
"R. c #AC3F35",
"E. c #AD3F35",
"W. c #B13E33",
"Q. c #C03A2B",
"!. c #9F423C",
"~. c #9E433C",
"^. c #A34239",
"/. c #A4413A",
"(. c #CE4A3E",
"). c #CF4A3E",
"_. c #D34A3E",
"`. c #D24B3E",
"'. c #D34B3E",
"]. c #DD4B3D",
"[. c #DE4C3C",
"{. c #DC4D3E",
"}. c #DC4D3F",
"|. c #E44B3D",
" X c #E34C3C",
".X c #E24C3D",
"XX c #E24D3D",
"oX c #E24C3E",
"OX c #E44C3C",
"+X c #E64C3C",
"@X c #854447",
"#X c #8E4845",
"$X c #8F4845",
"%X c #814B4B",
"&X c #824B4B",
"*X c #854949",
"=X c #864A48",
"-X c #914545",
";X c #924645",
":X c #944645",
">X c #974645",
",X c #984645",
"<X c #835558",
"1X c #825559",
"2X c #815659",
"3X c #845559",
"4X c #A94742",
"5X c #B54941",
"6X c #B64841",
"7X c #BC4940",
"8X c #BD4941",
"9X c #A3534F",
"0X c #A4524F",
"qX c #B3504A",
"wX c #B4514B",
"eX c #C04940",
"rX c #C24C43",
"tX c #C44C42",
"yX c #C44F46",
"uX c #CE4E43",
"iX c #CF4F43",
"pX c #CC4E44",
"aX c #D04E42",
"sX c #537380",
"dX c #537480",
"fX c #537580",
"gX c #537581",
"hX c #537680",
"jX c #547480",
"kX c #557480",
"lX c #547580",
"zX c #557580",
"xX c #547680",
"cX c #557780",
/* pixels */
"                                                                                                                                ",
"                                                                                                                                ",
"                                                      & $ $ 2 & & & $ & &                                                       ",
"                                            . & & & & & . . . & & & & & & & & & & &                                             ",
"                                      & & & & & & & & & & & $ & & & & $ & & & & & & & & .                                       ",
"                                  & & & & & & & & & & & & & $ . & & & . & & & & & & & & & & &                                   ",
"                              . & & & & & & & & & . $ $ F I @X>X>X@XY F $ $ & & & & & & & & & & $                               ",
"                            & & & & & & & & & & & @ ;X_.+X+X+X+XOXOXOXOX_.-X1 & & & & & & & & & & &                             ",
"                          & & & & & & & & & & & 1 _.+X+X+X+X+X+XOX+X+X+X+X+X_.@ & & & & & & & & & & &                           ",
"                        & & & & & & & & & & & & Y +X+X+X+X+X+X+X+X+X+X+X+X+XOXY & & & & & & & & & & & &                         ",
"                        & & & & & & & & & & & & S [.OX+X+X+X+X+X+X+X+X+XOXOX].A & & & & & & & & & & & &                         ",
"                      . & & & & & & & & & & & & & F 6X+X+X+X+XOX+X+X+X+X|.6XD & & & & & & & & & & & & & &                       ",
"                      4 9 3 & & & & & & & & & & & & & # U >X4XeXeX4X>XP # & & & & & & & & & & & & & 5 q 5                       ",
"            lXsXlXlXI.lXlXH.j & & & & & & & & & & & & & & L _.OX+X'.L & & & & & & & & & & & & & & c H.lXlXY.lXlXlXlX            ",
"    lXlXlXlXlXlXlXlXlXlXlXlXdXj & & & & & & & & & & & & @ OX+X+X+X+XOX# & & & & & & & & & & & & z Y.lXlXlXlXlXlXlXlXlXlXlXlX    ",
"  lXlXlXlXlXlXlXlXlXlXlXlXlXlXdXj & & & & & & & & & & & X .X+XOX+X+X].X & & & & & & & & & & & c Y.lXlXlXlXlXlXlXlXlXlXlXlXlXlX  ",
"  lXlXlXlXlXlXlXlXlXlXdXdXdXlXlXdXc $ & & & & & & & & & & H 8XOX|.8XJ & & & & & & & & & & & c Y.lXlXlXlXI.dXdXlXlXlXlXlXlXlXlX  ",
"    lXlXlXlXlXlXdXt.j t w.lXlXlXdXI.j . & & & & & & & & & & & & . & & & & & & & & & & & & z Y.lXlXlXlX4.t j w.lXlXlXlXlXlXlX    ",
"                    & & 2 4.dXlXlXlXdXc & & & & & & & & & & & & & & & & & & & & & & & & z dXlXlXlXlX4.& & &                     ",
"                    & & . 2 w.dXlXlXlXY.c & & & & & & & & & & & & & & & & & & & & & & j dXlXlXlXlX9.& & & &                     ",
"                    & & $ $ 2 4.lXlXlXlXY.c & & & & & & & & & & & & & & & & & & & . j dXlXlXlXY.9.2 & & & &                     ",
"                    & & & . . 2 w.lXlXlXlXY.c & & & & & & & & & & & & & & & & & & c dXdXlXlXlX9.$ . $ . & &                     ",
"                    & & & & & & 2 4.lXlXlXlXY.c $ $ & & & & & & & & & & & & $ . c dXlXlXlXlX9.& $ & & . & &                     ",
"                    t n j & & & . 2 w.lXlXlXlXY.n & & & & & & $ & & & & & & $ v H.lXlXlXlX9.& & $ & & j ~ t                     ",
"                    lXlXlXk.i & . & & t.lXlXlXlXdXj 3 w y s s s d w s y q 4 v dXdXlXlXY.4.& $ & & t h.lXlXlX                    ",
"                  lXlXlXlXlXY.4.3 $ & & w.lXlXH.5.M V V V V V V V V V V V V M o.H.Y.lX9.& & $ 2 o.Y.lXlXlXlXlX                  ",
"                lXlXlXlXlXlXlXlXH.n 2 $ & w.9.M V V V V V V V V V V V V V V V V M 9.9.& & 2 j Z.lXlXlXlXlXlXlXlX                ",
"              lXlXlXlXlXlXlXlXlXY.lXx.y $ f V V V V V V V V V V V V V V V V V V V V d $ t f.I.I.lXlXlXlXlXlXlXlXlX              ",
"            lXlXlXlXlXlXlXlXlXlXlXlXlXY.n V V V V V V V V V V V V V V V V V V V V V V v lXlXlXlXlXlXlXlXlXlXlXlXlXlX            ",
"          lXlXlXlXlXlX      lXlXlXlXlXn.N V V V V V V V V V V V V V V V V V V V V V V N m.lXlXlXlXlX      lXlXlXlXlXlX          ",
"        lXlXlXlXlXlX            lXlXlX2.V V V V _ V V V V V V V V V V V V M V _ N V V V 2.Y.lXlX            lXlXlXlXlXlX        ",
"      lXlXlXlXlXlX                lXN.V V V ] ~.Q.^.( V V V V V V V V V V ( ^.T.~.] V V M H.lX                lXlXlXlXlXlX      ",
"    lXlXlXlXlXlX                    2.V V V T Q.Q.T.%X_ V V V V V V o.M M *XQ.Q.Q.T M M V #.                    lXlXlXlXlXlX    ",
"  lXlXlXlXlXlX                      V V V V *XQ.Q.T.;X0XpXyXQ o.V Q yXaX9X$XQ.Q.Q.%Xo.M V M                       lXlXlXlXlXlX  ",
"  lXlXlXlXlX                        V V V V ) R.Q.W.yX+XOX+XOX3X3X+X+X+X+XtXW.Q.R.^ V V V V                         lXlXlXlXlX  ",
"  lXlXlXlX                  cXlXlXlXV V V V } { =.E +X+X+X+XOXpXpXOX+X+X+XOX1.-.{ V V V V V lXlXlXlX                  lXlXlXlX  ",
"                  lXlXlXlXlXlXlXlXlXo.V V V V V M ! +X+X+X+X+X[.[.+X+X+X+XOX! o.V V V V V N lXlXlXlXlXlXlXlXlX                  ",
"                lXlXlXlXlXlXlXlXlXlXV V V V V V { ;.|.+X+XOX+XwXwX+X+XOX+XOX:.V V V V V V o.lXlXlXlXlXlXlXlXlXlX                ",
"              lXlXlXlXlXlXlXlXdXdXdXV V V V V V V V 3X.XOXOXiX<.<.iXOXOX.X3XV V V V V V V V lXlXlXlXlXlXlXlXlXlXlX              ",
"              lXlXlXlXlXlXlXlXcXhXdXf.5.V V V V V V V <.3XW [ V o.[ W 3X<.V V V V V V V @.f.hXhXlXlXlXlXlXlXlXlXlX              ",
"              lXlXlXlX          dXdXlXY.n.w.V V V V V V V V V V V V V V V V V M V M 5.n.Y.lXlXlX          lXlXlXlX              ",
"            lXlXlXlXdX          lXlXlXlXY.lXZ.f.V M V V V V V V V V V V M M V o.y.H.dXdXlXlXlXlX          lXlXlXlXlX            ",
"            lXlXlXlXhX          lXlXlXlXlXlXdXdXdXn.o.M V V V V V V V V V 5.n.I.lXlXlXlXlXlXlXlX          dXlXlXlXlX            ",
"            lXlXlXlX            lXlXlXlXlXlXlXdXlXlXdX5.V V V V V V V V w.I.I.lXlXlXlXlXlXlXlXlX            lXlXlXlX            ",
"          lXlXlXlXlX            dXlXlXlXdXlXlXlXdXlXlXn.V V V V V V V V c.dXlXlXlXlXI.I.dXdXlXdX            lXlXlXlXlX          ",
"          dXlXlXlXlX              lXlXlXI.2.n.Y.I.I.lXf.V V V V V V V V l.dXdXdXI.c.5.I.lXlXlX              lXlXlXlXdX          ",
"          lXlXlXlX                lXlXlXdX#.M o.l.H.l.V V V V V V V V V V c.Z.f.2.V 2.dXlXlXlX                lXlXlXlX          ",
"          lXlXlXlX                lXlXlXdXw.V M V V V V V V V V V V V V V V V V N V w.dXlXlXlX                lXlXlXlX          ",
"        lXlXlXlXlX                dXlXlXlXl.V V V V V V V V V V V V V V V V V V V M l.lXlXlXlX                lXlXlXlXcX        ",
"        lXlXlXlX                  lXlXlXdXZ.V V V V V V V V V V V V V V V V V V V M H.lXlXlXlX                  lXlXlXlX        ",
"        lXlXlXlX                    lXlXlXdXV V V V V V M M V V V V V V V V o.M V V dXlXlXlX                    lXlXlXlX        ",
"      lXlXlXlXlX                    lXlXlXlX          H.H.            M.Z.          lXlXlXlX                    lXlXlXlXlX      ",
"      lXlXlXlX                      lXlXlXlX          lXlX            lXlX          lXlXlXlX                      lXlXlXlX      ",
"      lXlXlXlX                      lXlXlXlX          lXlX            lXlX          lXlXlXlX                      lXlXlXlX      ",
"    cXlXlXlXlX                      lXlXlXlXlX        lXlX            lXlX        lXlXlXlXlX                      lXlXlXlXlX    ",
"    lXlXlXlX                        lXlXlXlXlX          lXlX        lXlX          lXlXlXlXlX                        lXlXlXlX    ",
"    dXlXlXlX                          lXlXlXlX          lXlXlX    dXlXlX          lXlXlXlX                          lXlXlXdX    ",
"        lX                            lXlXlXlX                                    lXlXlXlX                            lX        ",
"                                      lXlXlXlX                                    lXlXlXlX                                      ",
"                                      lXlXlXlX                                    lXlXlXlX                                      ",
"                                      dXlXlXlX                                    lXlXdXlX                                      ",
"                                        dXlX                                        lXcX                                        ",
"                                                                                                                                ",
"                                                                                                                                "
};
