/* XPM */
static char *_f1548390e3744abb89f90c11e0e75f3hbtuQ3SMhhOdhulT[] = {
/* columns rows colors chars-per-pixel */
"64 64 234 2 ",
"   c None",
".  c #2C3E4F",
"X  c #363F4F",
"o  c #373F4F",
"O  c #393F4E",
"+  c #3B3F4E",
"@  c #3B3F4F",
"#  c #3D3F4E",
"$  c #2B3E50",
"%  c #2C3D50",
"&  c #2C3E50",
"*  c #2D3E50",
"=  c #2C3F50",
"-  c #2D3F50",
";  c #2C3E51",
":  c #2D3E51",
">  c #2C3F51",
",  c #2D3F51",
"<  c #2F3E50",
"1  c #3C404E",
"2  c #2F4253",
"3  c #2F4254",
"4  c #2F4354",
"5  c #304354",
"6  c #304355",
"7  c #304455",
"8  c #304456",
"9  c #324758",
"0  c #334959",
"q  c #33495A",
"w  c #334A5B",
"e  c #34495A",
"r  c #35495A",
"t  c #36495A",
"y  c #354A5B",
"u  c #354B5B",
"i  c #364B5B",
"p  c #344B5C",
"a  c #354B5C",
"s  c #344C5D",
"d  c #364E5E",
"f  c #374F60",
"g  c #395060",
"h  c #3A5161",
"j  c #3B5262",
"k  c #3B5362",
"l  c #3B5363",
"z  c #3C5363",
"x  c #3C5463",
"c  c #3C5563",
"v  c #3C5565",
"b  c #3C5665",
"n  c #3E5665",
"m  c #3E5A6A",
"M  c #3E5B6B",
"N  c #3F5C6B",
"B  c #3E5C6C",
"V  c #3F5C6C",
"C  c #3F5D6C",
"Z  c #3F5C6D",
"A  c #47404D",
"S  c #48414D",
"D  c #4C404C",
"F  c #4D404D",
"G  c #4E414C",
"H  c #57424B",
"J  c #56414C",
"K  c #6A4249",
"L  c #6B4349",
"P  c #724348",
"I  c #734348",
"U  c #724449",
"Y  c #774448",
"T  c #7C4C4D",
"R  c #7D4C4D",
"E  c #6C575F",
"W  c #75565C",
"Q  c #7E565A",
"!  c #78575C",
"~  c #405867",
"^  c #4B5866",
"/  c #4A5966",
"(  c #4B5967",
")  c #4C5965",
"_  c #435B6A",
"`  c #425B6B",
"'  c #475A68",
"]  c #465A69",
"[  c #465B6A",
"{  c #405D6B",
"}  c #405C6C",
"|  c #405D6C",
" . c #405C6D",
".. c #405D6D",
"X. c #415D6D",
"o. c #435E6C",
"O. c #405E6E",
"+. c #415E6E",
"@. c #405F6E",
"#. c #415F6F",
"$. c #425F6E",
"%. c #435F6E",
"&. c #425F6F",
"*. c #435F6F",
"=. c #525762",
"-. c #535762",
";. c #535A66",
":. c #525B67",
">. c #575A65",
",. c #545A66",
"<. c #555A66",
"1. c #6B5760",
"2. c #42606F",
"3. c #43606F",
"4. c #45616E",
"5. c #446271",
"6. c #456371",
"7. c #466270",
"8. c #466370",
"9. c #466271",
"0. c #476371",
"q. c #456372",
"w. c #476470",
"e. c #456472",
"r. c #466472",
"t. c #486371",
"y. c #486674",
"u. c #496876",
"i. c #496976",
"p. c #4A6876",
"a. c #4A6976",
"s. c #4B6976",
"d. c #4B6977",
"f. c #4B6A77",
"g. c #4B6B77",
"h. c #4C6A76",
"j. c #4D6A77",
"k. c #4C6B77",
"l. c #4B6A78",
"z. c #4B6B78",
"x. c #4C6B78",
"c. c #4C6C79",
"v. c #4D6C79",
"b. c #4E6D79",
"n. c #4E6E7A",
"m. c #4F6F7B",
"M. c #4F6F7C",
"N. c #506F7C",
"B. c #506F7D",
"V. c #50707B",
"C. c #50707C",
"Z. c #50717C",
"A. c #51717C",
"S. c #50717D",
"D. c #51717D",
"F. c #52727D",
"G. c #52727E",
"H. c #53727E",
"J. c #52737E",
"K. c #53737E",
"L. c #53737F",
"P. c #52747F",
"I. c #53747F",
"U. c #54747F",
"Y. c #54757F",
"T. c #BF3A2B",
"R. c #AC3F35",
"E. c #AD3F35",
"W. c #B13E33",
"Q. c #C03A2B",
"!. c #9F423C",
"~. c #9E433C",
"^. c #A34239",
"/. c #A4413A",
"(. c #CE4A3E",
"). c #CF4A3E",
"_. c #D34A3E",
"`. c #D24B3E",
"'. c #D34B3E",
"]. c #DD4B3D",
"[. c #DE4C3C",
"{. c #DC4D3E",
"}. c #DC4D3F",
"|. c #E44B3D",
" X c #E34C3C",
".X c #E24C3D",
"XX c #E24D3D",
"oX c #E24C3E",
"OX c #E44C3C",
"+X c #E64C3C",
"@X c #854447",
"#X c #8E4845",
"$X c #8F4845",
"%X c #814B4B",
"&X c #824B4B",
"*X c #854949",
"=X c #864A48",
"-X c #914545",
";X c #924645",
":X c #944645",
">X c #974645",
",X c #984645",
"<X c #835558",
"1X c #825559",
"2X c #815659",
"3X c #845559",
"4X c #A94742",
"5X c #B54941",
"6X c #B64841",
"7X c #BC4940",
"8X c #BD4941",
"9X c #A3534F",
"0X c #A4524F",
"qX c #B3504A",
"wX c #B4514B",
"eX c #C04940",
"rX c #C24C43",
"tX c #C44C42",
"yX c #C44F46",
"uX c #CE4E43",
"iX c #CF4F43",
"pX c #CC4E44",
"aX c #D04E42",
"sX c #537380",
"dX c #537480",
"fX c #537580",
"gX c #537581",
"hX c #537680",
"jX c #547480",
"kX c #557480",
"lX c #547580",
"zX c #557580",
"xX c #547680",
"cX c #557780",
/* pixels */
"                                                                                                                                ",
"                              kXkX                                kXhXkX                                                        ",
"                            kXhXkXhX                            kXhXkXhX                                    kXhXhX              ",
"                            hXkXhXkX                          kXhXkXhXkX                              kXhXkXhXkXkX              ",
"                            kXhXkXhX                        kXhXhXkXhXcX                        cXhXkXhXkXhXkXhXhXkX            ",
"                            hXkXhXkX                      cXhXkXkXhXkX                  kXhXkXhXhXkXhXkXhXkXhXkXkX              ",
"                          hXkXhXkXhX                    kXhXkXhXhXkX              hXhXkXhXkXhXkXkXhXkXhXkXkXhX                  ",
"                          kXhXkXkXkX                  kXhXkXhXkXkX          kXkXkXhXkXhXkXhXkXhXhXkXhXkX                        ",
"                          hXkXhXhXkX                kXhXhXkXhXkX          kXhXkXhXkXhXkXkXhXkXcXkX                              ",
"                          kXhXkXkX7.              kXhXkXkXhXkX          kXhXkXhXkXhXkXhXhXkX                                    ",
"                          I.kXhXhXh ; . 2 . $ y kXhXkXhXhXkX            hXkXhXkXhXkXhX                                          ",
"                      ; 7 kXhXkXkXy . ; . . $ n hXkXhXkXkX              kXhXkXhX                                                ",
"                  ; ; . 0 kXhXkXkX4.$ ; . ; . d kXkXhXkXhX              kXhXhXkX                                                ",
"                2 ; . ; 2 K.kXhXhXkX4.; ; . ; 2 g.Y.kXhXkX              hXkXkXhX                                                ",
"              ; . . ; . . h I.kXkXhXkX7.; . ; . u Y.hXkXkXkX          cXkXhXkXkX                                                ",
"            $ $ $ . $ $ . 2 c I.hXkXhXhX4.2 . . . 2.kXhXhXkX          kXhXkXhXhX                                                ",
"            ; . ; . ; . ; . ; z Y.Y.hXkXhX7.; ; . 5 V.kXhXkXhX        kXhXkXkXhXhXkXhXkXhX                                      ",
"          ; . ; . ; . ; . ; . ; z Y.kXhXkXhX4.; ; . z Y.kXhXhXK.      hXkXhXkXhXkXhXkXhXkXhXkXkXkXhX                            ",
"          . ; . ; . ; . ; . ; . ; z I.kXhXkXkXw.; ; ; s.hXkXhXK.$.Z V V N $.Z y.hXkXhXkXhXkXkXhXkXhXkXhXkXhXkXhX                ",
"        . ; . ; . ; . ; . ; . ; . ; c sXkXhXkXhX4.; . y Y.m.$.V M Z V V V N M $.kXhXkXhXkXhXhXkXhXkXhXkXhXkXhXkXkXhXkXhXkX      ",
"        ; . ; . ; . ; . ; . ; . . ; ; h hXkXhXkXkX7.$ ; v V V V V V V V $.M M $.m.hXhXjXhXK.hXhXkXhXhXjXkXhXkXhXkXhXkXhXhXkX    ",
"        . ; . ; . ; . ; . ; . ; ; . ; . h hXkXhXhXkX7.s V V V V V V V V M Z Z M 7.hXhXkXI.2.$.7.i.K.hXkXhXkXhXkXhXkXhXkXkXhX    ",
"      ; ; . ; . ; . ; . ; . ; . . ; . ; ; z hXhXhXjX7.V V V V ' T %X/ Z M M M Z M K.kXhXkXz.$.M V V V       kXkXkXhXkXhXkX      ",
"      ; . ; . ; . ; . ; . ; . ; ; . ; . ; ; h sXhXK.N V V V V ~.Q.T.R._ $.M Z M Z y.hXkXY.K.$.Z V V V                           ",
"      ; . ; . . O Y A ; ; . ; . . ; . ; . ; . z kX4.Z Z V V _ T.Q.Q.T.-.Z M $.M V $.K.hXkXhXi.M V V V                           ",
"      . ; . ; O ).+X].D . ; . ; ; . ; . ; . ; . h M V M V V V /.Q.Q.W.E ! :.Z M V V x.kXhXkXK.M V V V                           ",
"      ; . ; $ -X+X+X+X6X; . . ; . ; . ; . ; . ; 7 V V V V V V / =X#XtX+X+XXX<XM V V 2.hXkXhXi.Z V V V                           ",
"    ; . ; . ; _.+X+X+X+X# . ; ; ; . ; . ; . ; . 0 V V V V V V V Z 9X+X+X+X+XXX>.V V V 7.c.i.$.Z V V N K.hXkXkX                  ",
"    $ $ ; . G +X+X+X+X+XI $ O o . ; . ; . ; . ; a V V V V V V V $.aX+X+X+X+X+X1XV V V V V V V V V V V K.kXhXkXhXkX              ",
"    $ $ . ; I +X+X+X+X+X:XK +X].H . ; . ; . ; . s V V V V V V V M yX+X+X+X+X+XW V V V V V V V V V V Z         cXhX              ",
"    2 . ; . @X+X+X+X+X+X4X_.+X+X7X; . ; . ; . ; s V V V V V V V M Q +X+X+X+XaX[ V V V V V V V V V V M           hX              ",
"    . . . ; :X+X+X+X+X+XeX+X+X+XXX; ; . ; . ; . s V V V V V V V V V 1XuX{.wX<.V V V V V V V V V V V V                           ",
"    ; . ; . :X+X+X+X+X+X(.+X+X+X+X. ; . ; . ; . s V V V V V V V V V 1XpX}.qX:.{ V V V V V V V V V V V                           ",
"    2 ; . ; @X+X+X+X+X+X4X_.+X+X7X; . ; . ; . ; s V V V V V V V V Q +X+X+X+XiX' V V V V V V V V V V V           kX              ",
"    ; . ; . I +X+X+X+X+X-XK +X{.H ; ; . ; . ; . s V V V V V V V V yX+X+X+X+X+XW V V V V V V V V V V V         hXhX              ",
"    . ; . ; G +X+X+X+X+XL $ O O ; ; . ; . ; . ; s V V V V V V V V aX+X+X+X+X+X1XV V V V V V V V V V V B.kXhXkXkXkX              ",
"    ; . ; . ; '.+X+X+X+X1 ; . ; . ; . ; ; . ; . s Z M V V V V V $.0X+X+X+X+XXX<.V V V 7.m.y.$.M V V V K.K.hXkX                  ",
"      ; . ; . -X+X+X+X6X. ; ; . ; . ; . . ; . ; 3 Z V V V V V / =X$XeX+X+XXX3X .V V 2.Y.kXkXi.Z V V V                           ",
"      ; ; . ; O _.+X{.F ; . ; . . ; . ; ; . ; $ h M V V V V V ^.T.T.W.E ! :.Z Z M V x.hXkXhXK.M V V V                           ",
"      . . ; . . O Y S ; . ; . ; ; . ; . . ; . b kX$.V V _  .{ T.Q.Q.Q.-.M M $.M Z $.sXkXhXkXi.M V V V                           ",
"      ; . ; . ; ; . ; . ; . ; . . ; ; . ; ; c Y.hXI.N V V V V ~.Q.Q.E._ V V V V V u.hXsXjXY.$.Z V V V                           ",
"      . ; . ; . . ; . ; . ; . ; ; . . ; . c Y.Y.kXhX7.V V V V ' T %X^  .V V V V V K.hXhXhXz.Z M V V V       kXkXhXkXhXkXkX      ",
"        . ; . ; ; . ; . ; . ; . . ; . . c I.kXhXkXkXt.d V V V V M M  .M V V V V 7.kXjXkXsX5.#.w.i.V.I.hXkXhXkXhXkXhXkXhXhXkX    ",
"        ; . ; . . ; . ; . ; . ; ; . ; c Y.kXhXkXkX4.2 . b N V V Z $.M  .V V V V m.hXkXhXhXK.kXhXkXkXhXkXhXkXhXkXhXkXhXkXkXhX    ",
"        . . ; . ; . ; . ; . ; . ; ; k I.kXhXkXhX4.; ; y I.m.2.V M $.V V V V M $.I.I.kXhXkXhXhXkXhXkXhXkXkXhXkXhXhXkXhXkXhX      ",
"          ; . ; . ; . ; . ; . ; . h hXkXhXkXkXw.2 ; 2 s.I.kXhXM.V Z V V N $.$.i.kXhXhXkXhXkXkXhXkXhXkXhXhXkXkXhX                ",
"          . ; . ; . ; . ; . ; . c I.kXhXkXhXw.2 ; . n hXkXhXhXcX      hXI.kXhXhXhXhXkXhXkXkXhXkXhXkX                            ",
"            . ; . ; . ; . ; ; h hXkXhXkXhXw.$ . . 4 I.kXhXkXkX        kXkXhXkXcXhXkXhXkXhX                                      ",
"            . . ; . ; . ; ; c K.hXkXhXhXw.2 ; . ; 4.Y.kXkXhX          hXhXkXhXkX                                                ",
"              ; . ; . ; . h hXkXkXhXkXw.; . . ; y Y.kXhXhXkX          cXkXhXkXkX                                                ",
"                ; . ; . 3 K.hXkXkXkXw.; . . ; ; g.kXhXkXkX              hXkXkXhX                                                ",
"                  ; . ; 9 hXkXhXY.4.2 ; $ ; . h kXhXkXhXhX              kXhXhXkX                                                ",
"                      ; 3 kXhXkXhXy ; . . ; . ~ hXkXhXkXhX              kXhXkXhX                                                ",
"                          K.kXhXkXg . ; ; . ; y hXhXkXhXkXkX            hXkXhXkXkXhXhX                                          ",
"                          kXhXkXhXt.              kXhXkXhXkXkX          cXhXkXhXkXhXkXhXhXkX                                    ",
"                          hXkXhXkXhX                kXhXkXhXhXcX          kXhXkXhXkXhXkXkXhXkXhXkX                              ",
"                          hXhXjXkXhX                  cXhXkXhXkXkX          kXhXkXhXkXhXkXhXhXkXhXkXhXkX                        ",
"                          kXhXkXhXcX                    kXhXkXhXhXkX              kXhXkXhXkXkXhXkXhXkXhXkXhXcX                  ",
"                            kXhXkXhX                      kXhXkXkXhXkX                  kXhXcXkXhXkXhXkXhXkXkXhXcX              ",
"                            hXkXhXkX                        kXhXhXkXhXkX                        kXhXkXhXkXhXhXkXhXkX            ",
"                            kXhXkXhX                          kXkXhXkXhX                              kXkXhXkXhXkX              ",
"                            hXkXhXkX                            hXkXhXkX                                    hXkXhX              ",
"                              kXkX                                kXkXhX                                                        ",
"                                                                                                                                "
};
