/* XPM */
static char *_86f69916f514128eeea1fbfb5067e8asaTTz03lb2YNQ4qL[] = {
/* columns rows colors chars-per-pixel */
"64 64 234 2 ",
"   c None",
".  c #2C3E4F",
"X  c #363F4F",
"o  c #373F4F",
"O  c #393F4E",
"+  c #3B3F4E",
"@  c #3B3F4F",
"#  c #3D3F4E",
"$  c #2B3E50",
"%  c #2C3D50",
"&  c #2C3E50",
"*  c #2D3E50",
"=  c #2C3F50",
"-  c #2D3F50",
";  c #2C3E51",
":  c #2D3E51",
">  c #2C3F51",
",  c #2D3F51",
"<  c #2F3E50",
"1  c #3C404E",
"2  c #2F4253",
"3  c #2F4254",
"4  c #2F4354",
"5  c #304354",
"6  c #304355",
"7  c #304455",
"8  c #304456",
"9  c #324758",
"0  c #334959",
"q  c #33495A",
"w  c #334A5B",
"e  c #34495A",
"r  c #35495A",
"t  c #36495A",
"y  c #354A5B",
"u  c #354B5B",
"i  c #364B5B",
"p  c #344B5C",
"a  c #354B5C",
"s  c #344C5D",
"d  c #364E5E",
"f  c #374F60",
"g  c #395060",
"h  c #3A5161",
"j  c #3B5262",
"k  c #3B5362",
"l  c #3B5363",
"z  c #3C5363",
"x  c #3C5463",
"c  c #3C5563",
"v  c #3C5565",
"b  c #3C5665",
"n  c #3E5665",
"m  c #3E5A6A",
"M  c #3E5B6B",
"N  c #3F5C6B",
"B  c #3E5C6C",
"V  c #3F5C6C",
"C  c #3F5D6C",
"Z  c #3F5C6D",
"A  c #47404D",
"S  c #48414D",
"D  c #4C404C",
"F  c #4D404D",
"G  c #4E414C",
"H  c #57424B",
"J  c #56414C",
"K  c #6A4249",
"L  c #6B4349",
"P  c #724348",
"I  c #734348",
"U  c #724449",
"Y  c #774448",
"T  c #7C4C4D",
"R  c #7D4C4D",
"E  c #6C575F",
"W  c #75565C",
"Q  c #7E565A",
"!  c #78575C",
"~  c #405867",
"^  c #4B5866",
"/  c #4A5966",
"(  c #4B5967",
")  c #4C5965",
"_  c #435B6A",
"`  c #425B6B",
"'  c #475A68",
"]  c #465A69",
"[  c #465B6A",
"{  c #405D6B",
"}  c #405C6C",
"|  c #405D6C",
" . c #405C6D",
".. c #405D6D",
"X. c #415D6D",
"o. c #435E6C",
"O. c #405E6E",
"+. c #415E6E",
"@. c #405F6E",
"#. c #415F6F",
"$. c #425F6E",
"%. c #435F6E",
"&. c #425F6F",
"*. c #435F6F",
"=. c #525762",
"-. c #535762",
";. c #535A66",
":. c #525B67",
">. c #575A65",
",. c #545A66",
"<. c #555A66",
"1. c #6B5760",
"2. c #42606F",
"3. c #43606F",
"4. c #45616E",
"5. c #446271",
"6. c #456371",
"7. c #466270",
"8. c #466370",
"9. c #466271",
"0. c #476371",
"q. c #456372",
"w. c #476470",
"e. c #456472",
"r. c #466472",
"t. c #486371",
"y. c #486674",
"u. c #496876",
"i. c #496976",
"p. c #4A6876",
"a. c #4A6976",
"s. c #4B6976",
"d. c #4B6977",
"f. c #4B6A77",
"g. c #4B6B77",
"h. c #4C6A76",
"j. c #4D6A77",
"k. c #4C6B77",
"l. c #4B6A78",
"z. c #4B6B78",
"x. c #4C6B78",
"c. c #4C6C79",
"v. c #4D6C79",
"b. c #4E6D79",
"n. c #4E6E7A",
"m. c #4F6F7B",
"M. c #4F6F7C",
"N. c #506F7C",
"B. c #506F7D",
"V. c #50707B",
"C. c #50707C",
"Z. c #50717C",
"A. c #51717C",
"S. c #50717D",
"D. c #51717D",
"F. c #52727D",
"G. c #52727E",
"H. c #53727E",
"J. c #52737E",
"K. c #53737E",
"L. c #53737F",
"P. c #52747F",
"I. c #53747F",
"U. c #54747F",
"Y. c #54757F",
"T. c #BF3A2B",
"R. c #AC3F35",
"E. c #AD3F35",
"W. c #B13E33",
"Q. c #C03A2B",
"!. c #9F423C",
"~. c #9E433C",
"^. c #A34239",
"/. c #A4413A",
"(. c #CE4A3E",
"). c #CF4A3E",
"_. c #D34A3E",
"`. c #D24B3E",
"'. c #D34B3E",
"]. c #DD4B3D",
"[. c #DE4C3C",
"{. c #DC4D3E",
"}. c #DC4D3F",
"|. c #E44B3D",
" X c #E34C3C",
".X c #E24C3D",
"XX c #E24D3D",
"oX c #E24C3E",
"OX c #E44C3C",
"+X c #E64C3C",
"@X c #854447",
"#X c #8E4845",
"$X c #8F4845",
"%X c #814B4B",
"&X c #824B4B",
"*X c #854949",
"=X c #864A48",
"-X c #914545",
";X c #924645",
":X c #944645",
">X c #974645",
",X c #984645",
"<X c #835558",
"1X c #825559",
"2X c #815659",
"3X c #845559",
"4X c #A94742",
"5X c #B54941",
"6X c #B64841",
"7X c #BC4940",
"8X c #BD4941",
"9X c #A3534F",
"0X c #A4524F",
"qX c #B3504A",
"wX c #B4514B",
"eX c #C04940",
"rX c #C24C43",
"tX c #C44C42",
"yX c #C44F46",
"uX c #CE4E43",
"iX c #CF4F43",
"pX c #CC4E44",
"aX c #D04E42",
"sX c #537380",
"dX c #537480",
"fX c #537580",
"gX c #537581",
"hX c #537680",
"jX c #547480",
"kX c #557480",
"lX c #547580",
"zX c #557580",
"xX c #547680",
"cX c #557780",
/* pixels */
"                                                                                                                                ",
"                                                                                                                                ",
"                                        lXlX                                        lXdX                                        ",
"                                      lXlXlXlX                                    lXlXlXdX                                      ",
"                                      lXlXlXlX                                    lXlXlXlX                                      ",
"                                      lXlXlXlX                                    lXlXlXlX                                      ",
"        lX                            lXlXlXlX                                    lXlXlXlX                            lX        ",
"    dXlXlXlX                          lXlXlXlX          lXlXlX    lXlXlX          lXlXlXlX                          lXlXlXdX    ",
"    lXlXlXlX                        lXlXlXlXlX          lXlX        lXlX          jXlXlXlXlX                        lXlXlXdX    ",
"    lXlXlXlXlX                      lXlXlXlXlX        lXlX            lXlX        lXlXlXlXlX                      cXlXlXlXcX    ",
"      lXlXlXlX                      lXlXlXlX          lXlX            lXlX          lXlXlXlX                      lXlXlXlX      ",
"      lXlXlXlX                      lXlXlXlX          lXlX            lXlX          lXlXlXlX                      lXlXlXlX      ",
"      lXlXlXlXlX                    lXlXlXlX          J.B.            B.J.          lXlXlXlX                    lXlXlXlXlX      ",
"        lXlXlXlX                    lXlXlXsXC V C C V M V V C V C C V V V V V V V C P.lXlXlX                    lXlXlXlX        ",
"        lXlXlXlX                  lXlXlXlXB.V V V V V V V V V V C V V V V V V V V V N.lXlXlXlX                  lXlXlXlX        ",
"        lXlXlXlXlX                lXlXlXlXa.V V V V V V V V V V V V V V V V V V V V a.Y.lXlXdX                lXlXlXlXlX        ",
"          lXlXlXlX                lXlXlXlXe.C C V V V C C V V V V V V V V V C } C } e.lXlXlXlX                lXlXlXlX          ",
"          lXlXlXlX                lXlXlXlX2.N 2.a.J.a.} V V V V V V V V } z.B.a.} } 2.P.lXlXlX                lXlXlXlX          ",
"          dXlXlXlXlX              lXlXlXJ.2.z.Y.lXlXdXa.V V V V V V V V a.lXlXlXlXb.5.J.lXlXlX              lXlXlXlXhX          ",
"          lXlXlXlXlX            dXlXlXlXdXY.lXlXlXlXlXc.V V V V V V V  .c.lXlXlXlXdXlXdXlXlXlXhX            lXlXlXlXlX          ",
"            lXlXlXlX            lXlXlXlXlXlXlXlXlXlXlX6.V V V V V V V V 6.dXlXlXlXlXlXlXlXlXlXlX            lXlXlXlX            ",
"            lXlXlXlXcX          lXlXlXlXlXlXlXlXsXz.5.M V V V V V V V V C *.c.sXlXlXlXlXlXlXlXlX          lXlXlXlXlX            ",
"            dXlXlXlXlX          lXlXlXlXlXlXJ.e.} C V V V V V V V V V V V V C } y.J.lXlXlXlXlXlX          dXlXlXlXlX            ",
"              lXlXlXlX          lXlXlXY.b.6.} } V V V V V V V V V V V V V V C V V C 6.b.lXlXlXdX          lXlXlXlX              ",
"              lXlXlXlXlXlXlXlXlXdXdXa.2.V V V V V V V >.<XW [ C V [ ! 3X>.} M } V V V V } z.dXcXlXlXlXlXlXlXlXlXlX              ",
"              lXlXlXlXlXlXlXlXlXlXlXC C V V V V V V <X.X+X+XuX>.>.uX+X+X+X3XV C V V V V C } lXlXlXlXlXlXlXlXlXlXlX              ",
"                lXlXlXlXlXlXlXlXlXlXC V C V M } C :..X+X+X+X+XwXqX+X+X+X+XoX;.V V V V V V } lXlXlXlXlXlXlXlXlXlX                ",
"                  lXlXlXlXlXlXlXlXlX{ V } M  . .C ! +X+X+X+X+X{.aX+X+X+X+X+X! V V V V V V } lXlXlXlXlXlXlXlXlX                  ",
"  lXlXlXlX                  lXlXlXlX .V V V V  .-.1.+X+X+X+X+XuXuX+X+X+X+X+XE -.`  . .V C C lXcXlXlX                  lXlXlXlX  ",
"  lXlXlXlXlX                        V V V V ^ R.Q.W.tX+X+X+X+X<X<X+X+X+X+XrXW.T.R.)  .V C C                         lXlXlXlXlX  ",
"  lXlXlXlXlXlX                      C C V V %XQ.Q.Q.#X9XaXyXQ V V Q yXaX0X#XQ.Q.Q.%XV C V V                       lXlXlXlXlXlX  ",
"    lXlXlXlXlXlX                    } C V V T Q.Q.Q.=XV V V V V V V V V V =XQ.Q.Q.T V C C }                     lXlXlXlXlXlX    ",
"      lXlXlXlXlXlX                dXJ.} V V [ !.T././ V V V V V V V V V V ' /.T.!.[ M } C M.lX                lXlXlXlXlXlX      ",
"        lXlXlXlXlXlX            lXdXdX2.V { M V } V V V V V V V V V V V V V } } V V  .M } lXlXlX            lXlXlXlXlXlX        ",
"          lXlXlXlXlXlX      lXlXlXlXlXb.M } V V } } V V V V V V V V V V C } } } V V M M M.lXlXlXlXlX      lXlXlXlXlXlX          ",
"            lXlXlXlXlXlXlXlXlXlXlXlXlXP.n C { M M } V V V V V V V V V V V M  .M V C } n lXlXlXlXlXlXdXcXlXlXlXlXlXlX            ",
"              lXlXlXlXlXlXlXlXlXlXJ.a.i ; s } } } C V V } C V V V V V V V V V V  .} s ; i j.lXU.lXlXlXlXlXlXlXlXlX              ",
"                lXlXlXlXlXlXlXlXJ.k ; . ; t.6.} M } V V M } V V V V V V V V V V M 6.w.2 ; ; n J.lXlXlXlXlXlXlXlX                ",
"                  lXlXlXY.lXY.o.2 . . ; 6.lXlXJ.} M V V  . . . .V V C V C } M } U.lXlXw.; . . 6 4.P.Y.lXlXlXlX                  ",
"                    Y.lXP.j.i ; ; ; ; 4.lXlXlXlXlXl 6 0 p p p p s p p p w 8 z lXlXlXlXlXw.; ; . 2 0 k.lXlXlX                    ",
"                    i ~ d < ; . . ; 6.lXlXlXlXjXz . ; . ; . ; . ; ; ; . . ; . c Y.lXlXlXlXw.; . ; . ; k n i                     ",
"                    . ; ; ; . ; ; 6.lXlXlXlXU.z ; . . ; . ; . ; ; ; . ; ; . ; . c Y.lXlXlXlXw.2 . ; . . ; ;                     ",
"                    ; . . ; . ; 4.lXlXlXlXJ.k ; . ; . ; ; . ; . ; . ; . . ; . ; . c Y.lXlXlXlXw.; ; . ; . ;                     ",
"                    . ; ; . 2 4.lXlXlXlXjXk ; . ; . ; . . ; . ; . ; . ; ; . ; . ; ; c Y.lXlXlXlXw.; ; . ; .                     ",
"                    ; . ; ; 6.lXlXlXlXP.k . ; . . ; . ; . ; ; ; ; . . ; . ; . ; . ; . c Y.lXlXlXY.t.; . ; .                     ",
"                    . ; ; 4.Y.lXlXlXlXz ; ; . ; ; . ; . ; . ; < . ; ; . ; . ; . ; . ; . k dXlXlXlXlX4.2 . .                     ",
"    lXlXlXlXlXlXlX6.g i 4.Y.lXlXlXY.z ; ; . ; . . ; . ; . ; 5 o ; $ ; ; . ; . ; . ; . ; ; k P.lXlXlXlXw.p k w.lXlXlXcXlXlXlX    ",
"  lXlXlXlXlXlXlXlXlXlXlXlXlXlXlXY.z . ; . ; . ; ; . ; . ; H /.oX+X8XH . ; . ; . ; . ; . . ; z P.lXlXlXlXlXlXlXlXlXlXlXlXlXlXlX  ",
"  lXlXlXlXlXlXlXlXlXlXlXlXlXlXY.c . ; . ; . ; . ; . ; . o [.+X+X+X+X[.o ; . ; . ; . ; . ; . . z lXlXlXlXlXlXlXlXlXlXlXlXlXlXlX  ",
"    lXlXlXlXlXlXlXlXlXlXlXlXY.c ; . . ; . ; . ; . ; . ; # oX+X+X+X+X+X+ . ; . ; . ; . ; . ; . ; z P.lXlXlXlXlXlXlXlXlXlXlXlX    ",
"            lXlXlXlXY.Y.U.U.z . . ; . ; ; . ; . . ; ; . . L _.+X+X`.L ; ; . ; . ; . ; . ; . ; . . k U.Y.lXJ.lXlXlXlX            ",
"                      6 i 6 . ; ; . ; . . ; . ; ; . ; # I ,X4X8X8X4X>XP # ; . ; . ; . ; . ; . ; ; ; 3 9 3                       ",
"                      ; . $ $ ; . ; . ; . ; . ; . G 5XoX+X+X+X+X+X+X+X+XoX6XF . ; . ; . ; . ; . . ; ; . .                       ",
"                        . . ; . ; . ; . ; . ; . A [.+X+X+X+X+X+X+X+X+X+X+X+X[.S . ; . ; . ; . ; ; . . ;                         ",
"                        ; ; . ; . ; . ; . ; . ; Y +X+X+X+X+X+X+X+X+X+X+X+X+X+XY ; . ; . ; . ; . . ; . $                         ",
"                          . ; . ; . ; . ; . ; . + (.+X+X+X+X+X+X+X+X+X+X+X+X`.1 . ; . ; . ; . ; ; . ;                           ",
"                            ; . . ; . ; . ; . ; $ + ;X`.+X+X+X+X+X+X+X+X_.;X+ $ ; . ; . ; . ; . ; ;                             ",
"                              ; ; . ; . ; . ; . $ $ . ; G P @X>X>X@XP G ; . . ; . ; . ; . ; . ; .                               ",
"                                  ; . ; . ; . ; ; . ; . $ $ $ $ . . ; . ; . ; . ; . ; . ; ; .                                   ",
"                                      . ; . ; . . ; . ; . ; $ . $ ; . ; . ; . ; . ; . ; .                                       ",
"                                            . ; ; ; . ; . ; . . . ; ; . ; ; . ; ; .                                             ",
"                                                      . ; $ 2 . ; $ . ; .                                                       ",
"                                                                                                                                ",
"                                                                                                                                "
};
