/* XPM */
static char *_4b32ae0cb0449c29b26acb520f308aegJmIMdiQn4JweSP5[] = {
/* columns rows colors chars-per-pixel */
"64 64 212 2 ",
"   c None",
".  c #010100",
"X  c #0A0601",
"o  c #0C0A02",
"O  c #0E0E0D",
"+  c #120C02",
"@  c #1D0E00",
"#  c #140F0A",
"$  c #141102",
"%  c #1B1401",
"&  c #1F1900",
"*  c #1C1208",
"=  c #1C1C0B",
"-  c #171709",
";  c gray10",
":  c #221303",
">  c #241B00",
",  c #21150A",
"<  c #2C1B0A",
"1  c #281903",
"2  c #361B00",
"3  c #3B1E00",
"4  c #2D2400",
"5  c #25250E",
"6  c #362600",
"7  c #352B00",
"8  c #3C2D00",
"9  c #34240D",
"0  c #3E3200",
"q  c #292914",
"w  c #3A2511",
"e  c #3A2713",
"r  c #393917",
"t  c #3C3C18",
"y  c #333315",
"u  c #272625",
"i  c #35342A",
"p  c #383736",
"a  c #422100",
"s  c #4C2600",
"d  c #452A0B",
"f  c #542A00",
"g  c #5D2E00",
"h  c #522E09",
"j  c #443500",
"k  c #473900",
"l  c #4C3C00",
"z  c #4A3200",
"x  c #553A03",
"c  c #472E13",
"v  c #4D3115",
"b  c #4B3219",
"n  c #5E3711",
"m  c #5D3C1B",
"M  c #563616",
"N  c #653200",
"B  c #693706",
"V  c #633B14",
"C  c #643F19",
"Z  c #554400",
"A  c #5C4300",
"S  c #5D4A00",
"D  c #43431B",
"F  c #4A4A1D",
"G  c #4F4000",
"H  c #614600",
"J  c #634D00",
"K  c #665200",
"L  c #6A5500",
"P  c #6E5800",
"I  c #735C00",
"U  c #785700",
"Y  c #684017",
"T  c #6B4219",
"R  c #66411D",
"E  c #73481D",
"W  c #7B6300",
"Q  c #47472B",
"!  c #535321",
"~  c #5A5A24",
"^  c #555538",
"/  c #754B21",
"(  c #7B4F22",
")  c #7F5123",
"_  c #6F4E2E",
"`  c #656528",
"'  c #6B6B2B",
"]  c #616127",
"[  c #74742E",
"{  c #66663E",
"}  c #7C7C32",
"|  c #737332",
" . c #5C5C51",
".. c #787855",
"X. c #7A6F4C",
"o. c #646463",
"O. c #6A6A6A",
"+. c #78756C",
"@. c #806700",
"#. c #846A00",
"$. c #896E00",
"%. c #8C6400",
"&. c #8D7100",
"*. c #917400",
"=. c #9E7500",
"-. c #967800",
";. c #9A7B00",
":. c #906800",
">. c #A77800",
",. c #AB7B00",
"<. c #A17300",
"1. c #8B5B2B",
"2. c #845629",
"3. c #905F2E",
"4. c #946230",
"5. c #996633",
"6. c #92602F",
"7. c #8B725A",
"8. c #896F4E",
"9. c #A48300",
"0. c #A98700",
"q. c #AD8A00",
"w. c #B58200",
"e. c #B18E00",
"r. c #BB8C00",
"t. c #B69200",
"y. c #BA9500",
"u. c #B88C1D",
"i. c #888837",
"p. c #94943C",
"a. c #9C9C3F",
"s. c #C39C00",
"d. c #C59900",
"f. c #CAA200",
"g. c #D0A700",
"h. c #D9A600",
"j. c #D5AA00",
"k. c #D9AE00",
"l. c #DDB100",
"z. c #E3B100",
"x. c #E8B700",
"c. c #EBBC00",
"v. c #E7B900",
"b. c #C7A03D",
"n. c #F4C300",
"m. c #FFCC00",
"M. c #FCCB06",
"N. c #FFD011",
"B. c #FFD524",
"V. c #FFDA36",
"C. c #888846",
"Z. c #9E9550",
"A. c #A4934D",
"S. c #A3A341",
"D. c #ABAB49",
"F. c #B7B749",
"G. c #B3B359",
"H. c #89896C",
"J. c #979775",
"K. c #8A8A77",
"L. c #BBBB73",
"P. c #C7AA60",
"I. c #C6C64F",
"U. c #CCCC53",
"Y. c #DCDC5B",
"T. c #E3E35B",
"R. c #EBEB5E",
"E. c #FFE35B",
"W. c #FFE256",
"Q. c #FFE04E",
"!. c #C9C975",
"~. c #E8E866",
"^. c #F3F361",
"/. c #FEFE66",
"(. c #FFFF6B",
"). c #F0F068",
"_. c #FFE972",
"`. c #FFEB7D",
"'. c #F8F87A",
"]. c #908F8D",
"[. c #A39C8B",
"{. c #B7B78B",
"}. c #ADA58F",
"|. c #BBBAB3",
" X c #BBBBBB",
".X c #B2AFA4",
"XX c #C5BEB8",
"oX c #CACA9F",
"OX c #FFED85",
"+X c #FFFF8B",
"@X c #FFFF85",
"#X c #FFF49F",
"$X c #FFFC98",
"%X c #E7E78A",
"&X c #D5D5A7",
"*X c #D5D5BD",
"=X c #FFF9AA",
"-X c #EBEBBB",
";X c #FDFDB3",
":X c #FFFFBA",
">X c #D8D4C8",
",X c #D0CECC",
"<X c #FFFFC4",
"1X c #FFFFCC",
"2X c #FEFED3",
"3X c #FFFFDC",
"4X c #FEFEE4",
"5X c #FFFFEC",
"6X c #FEFEF2",
"7X c #FFFFFE",
"8X c #F3F3F3",
"9X c gray88",
/* pixels */
"                                                                                                                                ",
"      . . . . . . . . . . . . . . . . . . . . . . . . . . . . . . . . . . . . . . . . . . . . . . . . . . . . . . . . . .       ",
"    . . 6 6 6 6 6 6 6 6 6 6 6 6 6 6 6 6 6 6 6 6 6 6 6 6 6 6 6 6 6 6 6 6 6 6 6 6 6 6 6 6 6 6 6 6 6 6 6 6 6 6 6 6 6 6 6 2 . .     ",
"    . . w.z.z.z.z.z.z.z.z.z.z.z.z.z.z.x.z.z.z.z.z.z.z.z.z.z.z.z.z.z.z.z.z.z.z.z.z.z.z.x.z.z.z.z.z.z.z.z.z.z.z.z.z.z.z.d.. .     ",
"    . . w.h.h.h.h.h.h.h.h.h.h.h.h.h.h.h.h.h.h.h.h.h.h.h.h.h.h.h.h.h.h.h.h.h.h.h.h.h.h.h.h.h.h.h.h.h.h.h.h.h.h.h.h.h.h.r.. .     ",
"    . . >.w.w.w.w.w.w.,.w.w.w.w.w.,.w.w.w.w.w.,.w.w.w.,.w.w.w.w.w.w.w.,.w.w.w.w.w.,.w.w.w.w.w.w.w.w.w.,.w.w.w.w.w.w.w.>.. .     ",
"    . . ,.w.w.%.1 1 1 > > 1 > > > > > 1 1 w 1 1 > 1 > 1 1 > > > 1 > 1 > > 1 > > > 1 > 1 > > 1 > > > > 1 1 1 > > :.w.w.>.. .     ",
"    . . ,.w.w.A . X X X . X . X X . X X X u p X X . X X i # . X X X X X . X . X X . X . X X . X . X X X X . X . A w.w.>.. .     ",
"    . . ,.w.w.A . 3 s s s s s s s s s s s s XXn s s s X.7.s s s s s s s s s s s s s s s s s s s s s s s s s 3 . H w.w.>.. .     ",
"    . . ,.w.w.A . 3 s s s s s s s s s s s s _ >Xh s 7.XX3 3 a s s s s s s s s s s s s s s s s s s s s s s s 3 . H w.w.>.. .     ",
"    . . ,.w.w.A . 3 s s s s s s s s s s s s s >X.X+.8Xu . . . X + 2 s s s s s s s s s s s s s s s s s s s s 3 . H w.w.>.. .     ",
"    . . ,.w.w.A . 3 s s f N N N g N N g N N a o.7X7X|.+.K.H.{ r . . @ N N N N N N N N g N N N N N N N g s s 3 . H w.w.>.. .     ",
"    . . ,.w.w.H . 3 s s g N N N N N N g B 7.|.7X7X7X7X7X7X7X7X@XT.F . 3 f g N N N N N N N N N N N N N g s s 3 . H w.w.>.. .     ",
"    . . ,.w.w.A . 3 s s g N N N B N n X.].K.o...4X2X;X3X7X1X@X/./.i.. . . . X : 3 N N N N N B N N N N g s s 3 . H w.w.>.. .     ",
"    . . ,.w.w.A . 3 s s g N N N 3 X . . . = . .  X{.I.T.).%X!.p.y . . G I S 4 . . X s N N N N N N N N N s s 3 . H w.w.>.. .     ",
"    . . ,.w.w.A . 3 s s g N N 1 . - } I./.Y.. $ |.p . . . . . . X = . &.m.m.m.v.#.o . s N N B N N N N g s s 3 . H w.w.>.. .     ",
"    . . >.w.w.A . 3 s s g N s . D ^././././.q . .X| [ ` ~ ` [ [ ~ X o l.m.m.m.m.m.j.. @ N N N N N N N N s s 3 . H w.w.>.. .     ",
"    . . ,.w.w.A . 3 s s g N s . ~ ^./.(././.T.D o.. . - 5 = . . . . K j.m.m.m.m.k.I . . X + > 2 f N N g s s 3 . H w.w.>.. .     ",
"    . . ,.w.w.H . 3 s s f g 3 . . o D ` ' ] D o u . = . & 7 $ . k X . . X % & o . . . . - + . . . X 2 s s s 3 . H w.w.>.. .     ",
"    . . ,.w.w.A . 1 @ X . . . . F r X . . . o r } F.5 X z.m.W . $ W -.L j 4 4 8 K W . F /.(.S.. . . . . O + % . H w.w.>.. .     ",
"    . . ,.w.w.x . . . = ! ' D . = a.Y.R.Y.R.Y.D.~ X . &.k.7 . . . . X 7 K W #.P 8 . . F././.o # X.[.J...H.o . . z w.b.>.. .     ",
"    . . ,.w.l . X  .oX1X@X/.~.. . . . X # X . . . 7 y.z.$ . J e.t.I X . . . . . . . . D ! ' . D $X6X7X7X7X<Xi.- . [.u.>.. .     ",
"    . . >.6 . i *X7X7X3X(./.! . . & Z X . . . $ P g.m.Z . 9.M.W.E.N.y.X 4 L X . . . . X . . . . ' '.;X2X6X7X:X^.|.O.z >.. .     ",
"    . . x . ^ 6X7X6X=X(.T.D . Z & X X . . . . . . . 7 X 8 m.#X1X1X=Xm.G . . $ ` D.Y./.(.^.! . q . 5 S././.+X7X3X3Xr . =.. .     ",
"    . . X = @X;X+X(.^.i.$ . S #.. . 7 #.t.j.J + . . . . S m.<X1X1X1XN.P . . q t t [ /././.[ . S.} o . - ..:X7X7X-X5 X =.. .     ",
"    . . X 5 S.D.p.! o . & 9.#.. % y.m.m.m.m.J . o o o o K m.`.1X1XOXm.L o o + o . ! /./.^.} . X p.~.H..X|.].,X9X,X9XZ.>.. .     ",
"    . . x . . . . . 7 -.t.7 . . W m.m.m.m.m.L . z.m.m.m.m.m.m.V.V.m.m.m.m.m.m.v.. r } F o . $ & . y a.^.R.F.&X&X} O 8.P.; .     ",
"    . . :.% . Z #.9.#.4 . . 0 X . j &.q.t.0.j . j.m.m.m.m.m.m.m.m.m.m.m.m.m.m.j.. . . . $ L f.s.k . . . r ] }.J.= . Z %.. .     ",
". . . . . . . . . . . . . . . . . . . . . . . . f.m.m.m.m.m.m.m.m.m.m.m.m.m.m.f.. . . . . . . . . . . . . . o.u . . . . . . . . ",
". . P I I I I I I I I I I I I I P W I I I I 0 . f.m.m.m.m.m.l.I I v.m.m.m.m.m.t.. j I I I I I I I I I I I I A.W I I I I I L . . ",
". . j._.#X#X#X#X=X#X#X#X#X#X#X#X#X#X#X#X#XW.&.. t.m.m.m.m.n.& . . 4 m.m.m.m.m.9.. 9.Q.#X#X#X#X#X#X#X=X#X#X#X=X#X#X#X=X#XOXs.. . ",
"  . q._.1X1X1X1X<X1X1X1X1X1X1X1X1X1X1X1X1X`.;.. q.m.m.m.m.f.. . . . z.m.m.m.m.;.. q._.1X1X1X1X1X1X1X1X1X1X1X1X1X1X1X1X1XOX-..   ",
"  . #.W.1X1X1X1X1X1X1X1X1X1X1X1X1X1X1X1X1XOX9.. 9.m.m.m.m.s.. . . . v.m.m.m.m.$.. d.`.1X1X1X1X1X1X1X1X1X1X1X1X1X1X1X1X1XE.K .   ",
"  . Z N.V.V.V.V.V.V.V.V.V.V.V.V.V.V.V.V.V.B.q.. ;.m.m.m.m.f.. . . . v.m.m.m.m.W . g.B.V.V.V.V.V.V.V.V.V.V.V.V.V.V.V.V.V.N.7 .   ",
"  . > s.s.s.s.s.s.s.s.d.s.s.d.s.s.s.s.s.s.s.$.. *.m.m.m.m.f.. . . . n.m.m.m.m.L . 0.s.d.s.s.s.s.d.s.s.s.s.s.s.d.s.s.d.s.s.X .   ",
"  . . . . . . . . . . . . . . . . . . . . . . . $.m.m.m.m.f.. . . . n.m.m.m.m.S . . . . . . . . . . . . . . . . . . . . . . .   ",
"      . X 1 8 8 8 8 % + < < < < < < < < < < : . W m.m.m.m.f.. . . . m.m.m.m.m.l . < < < < < 2 2 < < < < < X 1 j 8 8 8 % X .     ",
"        o x =.=.=.=.z @ C T C T T T T Y T T m . I m.m.m.m.f.. . . X m.m.m.m.m.0 X T C T T T C E T T T T M @ H =.<.=.<.6 +       ",
"        X a =.=.=.=.x @ m T T T T T T T T T m . L m.m.m.m.n.$ . . k m.m.m.m.m.4 X T T C T T E B T T T T d @ U =.=.=.=.: o       ",
"        . > x.x.v.v.%.X R 1.3.3.3.1.3.1.1.1.2.. K m.m.m.m.m.g.S I c.m.m.m.m.m.& @ 3.3.1.3.3.1.1.1.1.4.1.c X d.x.x.x.d.X .       ",
"        . . n.m.m.m.e.. R 5.5.5.5.5.5.5.5.5.4.. Z m.m.m.m.m.m.m.m.m.m.m.m.m.m.o , 5.5.5.5.5.5.5.5.5.5.5.9 . n.m.m.m.9..         ",
"        . . g.m.m.m.f.. b 5.5.5.5.5.5.5.5.5.5.. l m.m.m.m.m.m.m.m.m.m.m.m.m.m.. 9 5.5.5.5.5.5.5.5.5.5.5.- > m.m.m.m.W .         ",
"          . q.m.m.m.v.. e 5.5.5.5.5.5.5.5.5.5.. j m.m.m.m.m.m.m.m.m.m.m.m.m.c.. e 5.5.5.5.5.5.5.5.5.5.5.. j m.m.m.m.l .         ",
"          . #.m.m.m.m.X = 5.5.5.5.5.5.5.5.5.5.X X & & > 7 m.m.m.m.m.g.& & & & . e 5.5.5.5.5.5.4.5.5.5.2.. K m.m.m.m.& .         ",
"          . S m.m.m.m.> @ 5.6.1.4.3.5.4.5.5.5., + + + . % m.m.m.m.m.y.. X + + + b 5.5.5.5.5.1.6.5.5.5._ . $.m.m.m.n.. .         ",
"          . 7 m.m.m.m.0 X E 2.%.2.2.2.2.) ) ) V n n n * . l.m.m.m.m.W . d n n B T 2.2.E 2.2.2.2.) ) 2.v . q.m.m.m.s..           ",
"          . + m.m.m.M.J . / 2.2.2.2.E 2.2.( ) V n n n d . k n.m.m.f.X o M V V V E ( 2.2.E 2.E E 2.2.E w . g.m.m.m.-..           ",
"          . . v.m.m.m.U . C E 2.2.E 2.2.E 2.( E T T T V : . > I Z X . d C T V C / 2.E 2.2.2.2.2.2.E 2.< . n.m.m.m.K .           ",
"          . . t.m.m.m.-.. m 1.2.1.2.1.1.2.1.1.1.1.1.1.E V 9 X . . # v V 2.2.1.2.1.1.1.1.1.1.1.1.2.1.1.@ & m.m.m.n.7 .           ",
"        . . . . > I j.t.. m 5.5.5.5.5.5.5.5.5.5.5.5.4.3.T T C V V T Y ( 5.5.5.5.4.5.4.5.4.5.4.5.4.5.5.. 0 n.;.j X . . .         ",
"      . . . K S % . . 0 . c 4.4.4.4.4.4.4.3.3.4.4.4.4.4.2.V Y V Y Y T 4.4.4.6.4.4.4.3.6.4.4.4.4.4.4.2.. > $ . X 0 W $ .         ",
"    . . q . -.m.M.t.0 . . < ) 2.) ) ) ) ) 2.2.E 2.E 2.2.2.E V V V T ) ) / ) ) ) 2.2.2.E 2.2.2.E 2.( C . . $ &.c.m.n.. .         ",
"    . p.>X. I m.m.m.m.9.X . m ) ) ) ) ) ) ) ) ) 2.2.2.E 2.2.) ) T w * . . . * R 2.2.E 2.2.( 2.2.( E # . S n.m.m.m.s.. .         ",
"    . F Y.. l m.m.m.m.m.f.o X E ) ) ) ) ) ) ) ) 2.E 2.E 2.E R , . . o Q  .Q o X B V M d b m E ( ( , . #.m.m.m.m.m.;..           ",
"    . . . . > m.m.9.K z.m.e.. * ) ) ) ) ) ) ) ) 2.2.C 2.E w X . ! L.3X7X7X+X~ . . . . . . . . * < . K m.n.W W m.m.L .           ",
"    . G l X . n.m.X . k m.m.S . m ) ) ) ) ) ) ) U 2.2.2.2 X e U.<X7X7X5X+XF.X . o i.D.G.D.i.! X . + n.m.#.. . f.m.8 .           ",
"    . . j 0 . g.m.4 . 4 m.m.k.. , 2.) ) ) ) ) ) E 2.2.v . F ^.+X5X2X$X(.i.X o > . 4X7X7X7X6X<X~.r . k.m.S . X v.m.X .           ",
"      . . . . 9.m.l.L y.m.m.m.j . / ) ) ) ) ) ) 2.2.E , X R.(././.^.a.5 . > -.X y +X<X3X4X4X1X).D . j.m.l.K s.m.k.. .           ",
"            . W m.m.m.m.m.m.m.&.. w v v v v v v h v v # . ! } ' D X . o W 9.o . D S.I.I.F.a.~ o . X v.m.m.m.m.m.q..             ",
"            . Z m.m.m.m.m.m.m.f.. . . . . . . . . . . . . . . . X 0 &.t.l . o & . . . . . . . 4 4 . f.m.m.m.m.m.W .             ",
"            . X > > > > & > 4 $ . .                     . X K &.;.I 4 . . . X I 9.9.&.W &.0.>.S . . & > > > > > o .             ",
"            . . . . . . . . . . .                         . . . . . . .     . . . X 4 4 & . . . . . . . . . . . . .             ",
"                                                                                . . . . . . .                                   ",
"                                                                                                                                "
};
