/* XPM */
static char *a46a8ea18d6a4625c8c588f3205e8b254tfrlvpNgTg4BC2Q[] = {
/* columns rows colors chars-per-pixel */
"64 64 69 1 ",
"  c None",
". c #38362F",
"X c #383630",
"o c #393731",
"O c #3A3832",
"+ c #3C3A32",
"@ c #3C3A34",
"# c #3D3C34",
"$ c #403C36",
"% c #403E37",
"& c #413D38",
"* c #403E38",
"= c #434039",
"- c #43413A",
"; c #44423B",
": c #4D4A42",
"> c #4F4B43",
", c #4E4C42",
"< c #4F4C42",
"1 c #4E4B44",
"2 c #555048",
"3 c #545148",
"4 c #565348",
"5 c #55524A",
"6 c #58544A",
"7 c #5A564C",
"8 c #5A574C",
"9 c #5B574D",
"0 c #5B574E",
"q c #5C594E",
"w c #5C584F",
"e c #5D5950",
"r c #5E5A50",
"t c #5F5A51",
"y c #635F54",
"u c #636055",
"i c #666156",
"p c #676257",
"a c #676357",
"s c #676359",
"d c #66625A",
"f c #6A6458",
"g c #69655A",
"h c #6A665B",
"j c #6F675E",
"k c #6E695D",
"l c #6F695D",
"z c #6E6A5E",
"x c #6F6A5E",
"c c #6F6C5E",
"v c #706B5E",
"b c #706A5F",
"n c #716D60",
"m c #716D61",
"M c #736E61",
"N c #736F63",
"B c #746E62",
"V c #746F62",
"C c #757063",
"Z c #757064",
"A c #757164",
"S c #767164",
"D c #777164",
"F c #777165",
"G c #767265",
"H c #777265",
"J c #777365",
"K c #787265",
"L c #787366",
/* pixels */
"dSLLLLLLLLLLLLLLLLLLLLLLLLLLLLLLLLLLLLLLLSg       zLLLLLLLLLLLLd",
"SLLLLLLLLLLLLLLLLLLLLLLLLLLLLLLLLLLLLLLLLLL       LLLLLLLLLLLLLS",
"LLLLLLLLLLLLLLLLLLLLLLLLLLLLLLLLLLLLLLLLLLL#....XeLLLLLLLLLLLLLL",
"LLLLLLLLLLLLLLLLLLLLLLLLLLLLLLLLLLLLLLLLLLL@XXXXXqLLLLLLLLLLLLLL",
"LLLLLLLLLLLLLLLLLLLLLLLLLLLLLLLLLLLLLLLLLLL@XXXXXqLLLLLLLLLLLLLL",
"LLLLLLLLLLLLLLLLLLLLLLLLLLLLLLLLLLLLLLLLLLL@XXXXXqLLLLLLLLLLLLLL",
"LLLLLLLLLLLLLLLLLLLLLLLLLLLLLLLLLLLLLLLLLLL@XXXXXqLLLLLLLLLLLLLL",
"LLLLLLLLLLLLLLLLLLLLLLLLLLLLLLLLLLLLLLLLLLL@XXXXXqLLLLLLLLLLLLLL",
"LLLLLLLLLLLLLLLLLLLLLLLLLLLLLLLLLLLLLLLLLLL+XXXXXqLLLLLLLLLLLLLL",
"SLLLLLLLLLLLLLLLLLLLLLLLLLLLLLLLLLLLLLLLLLLXXXXXX,LLLLLLLLLLLLLS",
"gLLLLLLLLLLLLLLLLLLLLLLLLLLLLLLLLLLLLLLLLS5.XXXXXXdLLLLLLLLLLLLp",
"  **************************************$X..XXXXXXXO**********  ",
"  XXXXXXXXXXXXXXXXXXXXXXXXXXXXXXXXXXXXXXXXXXXXXXXXXXXXXXXXXXXX  ",
"  XXXXXXXXXXXXXXXXXXXXXXXXXXXXXXXXXXXXXXXXXXXXXXXXXXXXXXXXXXXX  ",
"  XXXXXXXXXXXXXXXXXXXXXXXXXXXXXXXXXXXXXXXXXXXXXXXXXXXXXXXXXXXX  ",
"  XXXXXXXXXXXXXXXXXXXXXXXXXXXXXXXXXXXXXXXXXXXXXXXXXXXXXXXXXXXX  ",
"  XXXXXXXXXXXXXXXXXXXXXXXXXXXXXXXXXXXXXXXXXXXXXXXXXXXXXXXXXXXX  ",
"  e0000000005OXXXXXXXX;:::::::::::::::::::::::::::::::::::::::  ",
"zLLLLLLLLLLLLSO.XXXXX6JLLLLLLLLLLLLLLLLLLLLLLLLLLLLLLLLLLLLLLLLq",
"LLLLLLLLLLLLLL5.X.XXOSLLLLLLLLLLLLLLLLLLLLLLLLLLLLLLLLLLLLLLLLLB",
"LLLLLLLLLLLLLLqXXXXXOLLLLLLLLLLLLLLLLLLLLLLLLLLLLLLLLLLLLLLLLLLL",
"LLLLLLLLLLLLLLqXXXXXOSLLLLLLLLLLLLLLLLLLLLLLLLLLLLLLLLLLLLLLLLLL",
"LLLLLLLLLLLLLLqXXXXXOLLLLLLLLLLLLLLLLLLLLLLLLLLLLLLLLLLLLLLLLLLL",
"LLLLLLLLLLLLLLqXXXXXOLLLLLLLLLLLLLLLLLLLLLLLLLLLLLLLLLLLLLLLLLLL",
"LLLLLLLLLLLLLLqXXXXXOLLLLLLLLLLLLLLLLLLLLLLLLLLLLLLLLLLLLLLLLLLL",
"LLLLLLLLLLLLLJqXXXXXOLLLLLLLLLLLLLLLLLLLLLLLLLLLLLLLLLLLLLLLLLLL",
"LLLLLLLLLLLLJJ0XXXXXXLLLLLLLLLLLLLLLLLLLLLLLLLLLLLLLLLLLLLLLLLLS",
"CLLLLLLJLLLLJJ=XXXXXXaLLLLLLLLLLLLLLLLLLLLLLLLLLLLLLLLLLLLLLLLLa",
" cmmmvvmmmvCk,XXXXXXX@8yuyyyyyyyyyyyyyyyyyyyyyyyyyyyyyyyyyyyyye ",
"  XXXOXXXXXXXXXXXXXXXXXXXXXXXXXXXXXXXXXXXXXXXXXXXXXXXXXXXXXX.X  ",
"  XXXXXXXXXXXXXXXXXXXXXXXXXXXXXXXXXXXXXXXXXXXXXXXXXXXXXXXXXXXX  ",
"  XXXXXXXXXXXXXXXXXXXXXXXXXXXXXXXXXXXXXXXXXXXXXXXXXXXXXXXXXXXX  ",
"  XXXXXXXXXXXXXXXXXXXXXXXXXXXXXXXXXXXXXXXXXXXXXXXXXXXXXXXXXXXX  ",
"  XXXXXXXXXXXXXXXXXXXXXXXXXXXXXXXXXXXXX.XXXXXXXXXXXXXXXXXXXoXX  ",
"  oXXXOXXXXXXX..XXXXXXXXXX.XXX..X..OXXXXOXXXXXXXX.XXXXXXXXXoXO  ",
" vncCvvmCvmmvmmmnnnvCvvCvmmmvmmmmmmvvmmvmh$XXXXXX.,zcCvmvCcvvmv ",
"CLLLLLLLJLLLLLLLJLLLLLLLLLLLLLLLLLLLLLLLLLBXXXXXX;LLLLLLLLLLJLLC",
"JLLLLLLLJLLLLLLLLLLLLLLLLLLLLLLLLLLLLLLLLLLOXXXX.8LLLLLLLLLLLLJJ",
"LLLLLLLLLLLLLLLLLLLLLLLLLLLLLLLLLLLLLLLLLLL@XXXX.qLLLLLLLLLLLLLL",
"LLLLLLLLLLLLLLLLLLLLLLLLLLLLLLLLLLLLLLLLLLL@XXXXX0LLLLLLLLLLLLLL",
"LLLLLLLLLLLLLLLLLLLLLLLLLLLLLLLLLLLLLLLLLLL@XXXXXqLLLLLLLLLLLLLL",
"LLLLLLLLLLLLLLLLLLLLLLLLLLLLLLLLLLLLLLLLLLL@XXXXXqLLLLLLLLLLLLLL",
"LLLLLLLLLLLLLLLLLLLLLLLLLLLLLLLLLLLLLLLLLLL@XXXXXqLLLLLLLLLLLLLL",
"LLLLLLLLLLLLLLLLLLLLLLLLLLLLLLLLLLLLLLLLLLL@XXXXXqLLLLLLLLLLLLLL",
"LLLLLLLLLLLLLLLJLLLJLLLLLLLLLLLLLLLLLLLLLLLOXXXXX5LLLLLLLLLLLLLL",
"zLLLLLLLLLLLLLLJLLLJLLLLLLLLLLLLLLLJLLJJLLaXXXXXXOSLLLLLLLLLLLLz",
"  e00000000000000000000000000000000000000:XXXXXXXXO5000000000e  ",
"  XXXXXXXXXXXXXXXOXXXXXOXXXXXXXXOXXXOXXXXXXXXXXXXXXXXXXXXXXXXX  ",
"  XXXXXXXXXXXXXXXXXXXXXXXXXXXXXXXXXXXXXXXXXXXXXXXXXXXXXXXXXXXX  ",
"  XXXXXXXXXXXXXXXXXXXXXXXXXXXXXXXXXXXXXXXXXXXXXXXXXXXXXXXXXXXO  ",
"  XXXXXXXXXXXXXXXXXXXXXXXXXXXXXXXXXXXXXXXXXXXXXXXXXXXXXXXXXXXX  ",
"  XXXXXXXXXXXXXXXXXXXXXXXXXXXXXXXXXXXXXXXXXXXXXXXXXXXXXXXXXXXX  ",
"  **********OXXXXXXXX.X$************************#*************  ",
"gSLLLLLLLLLLLgXXXXXXX5SLLLLLLLLLLLLLLLLLLLLLLLLLLLLLLLLLLLLLLLLg",
"SLLLLLLLLLLLLL:XXXXXXSLLLLLLLLLLLLLLLLLLLLLLLLLLLLLLLLLLLLLLLLLS",
"LLLLLLLLLLLLLLqXXXXX+LLLLLLLLLLLLLLLLLLLLLLLLLLLLLLLLLLLLLLLLLLL",
"LLLLLLLLLLLLLLqXXXXX@LLLLLLLLLLLLLLLLLLLLLLLLLLLLLLLLLLLLLLLLLLL",
"LLLLLLLLLLLLLLqXXXXX@LLLLLLLLLLLLLLLLLLLLLLLLLLLLLLLLLLLLLLLLLLL",
"LLLLLLLLLLLLLLqXXXXX@LLLLLLLLLLLLLLLLLLLLLLLLLLLLLLLLLLLLLLLLLLL",
"LLLLLLLLLLLLLLqXXXXX@LLLLLLLLLLLLLLLLLLLLLLLLLLLLLLLLLLLLLLLLLLL",
"LLLLLLLLLLLLLLqXXXXX@LLLLLLLLLLLLLLLLLLLLLLLLLLLLLLLLLLLLLLLLLLL",
"LLLLLLLLLLLLLLeX....@LLLLLLLLLLLLLLLLLLLLLLLLLLLLLLLLLLLLLLLLLLL",
"SLLLLLLLLLLLLL       LLLLLLLLLLLLLLLLLLLLLLLLLLLLLLLLLLLLLLLLLLS",
"dSLLLLLLLLLLLj       gLLLLLLLLLLLLLLLLLLLLLLLLLLLLLLLLLLLLLLLLSg"
};
